<svg fill="none" height="17" viewBox="0 0 1920 20" width="1582" xmlns="http://www.w3.org/2000/svg"><g fill="#6c9be2"><path d="m2065.6 19.5949h-9.88v-8.3978h9.89zm-19.78 0h-9.9v-8.3978h9.9zm-19.8 0h-9.88v-8.3978h9.89zm-19.79 0h-9.9v-8.3978h9.9zm-19.79 0h-9.89v-8.3978h9.9zm-19.79 0h-9.9v-8.3978h9.9zm-19.8 0h-9.89v-8.3978h9.9zm-19.79 0h-9.9v-8.3978h9.9zm-19.79 0h-9.89v-8.3978h9.89zm-19.8 0h-9.89v-8.3978h9.89zm-19.78 0h-9.9v-8.3978h9.9zm-19.79 0h-9.9v-8.3978h9.9zm-19.8 0h-9.89v-8.3978h9.89zm-19.79 0h-9.9v-8.3978h9.9zm-19.79 0h-9.9v-8.3978h9.9zm-19.8 0h-9.89v-8.3978h9.89zm-19.79 0h-9.9v-8.3978h9.9zm-19.79 0h-9.9v-8.3978h9.9zm-19.79 0h-9.9v-8.3978h9.9zm-19.79 0h-9.9v-8.3978h9.9zm-19.79 0h-9.91v-8.3978h9.9zm-19.8 0h-9.89v-8.3978h9.89zm-19.79 0h-9.9v-8.3978h9.89zm-19.79 0h-9.9v-8.3978h9.9zm-19.79 0h-9.91v-8.3978h9.9zm-19.8 0h-9.89v-8.3978h9.89zm-19.79 0h-9.9v-8.3978h9.89zm-19.79 0h-9.9v-8.3978h9.9zm-19.8 0h-9.9v-8.3978h9.89zm-19.78 0h-9.9v-8.3978h9.9zm-19.79 0h-9.92v-8.3978h9.9zm-19.8 0h-9.89v-8.3978h9.89zm-19.79 0h-9.91v-8.3978h9.89zm-19.79 0h-9.9v-8.3978h9.9zm-19.8 0h-9.91v-8.3978h9.9zm-19.79 0h-9.89v-8.3978h9.89zm-19.79 0h-9.91v-8.3978h9.89zm-19.79 0h-9.9v-8.3978h9.9zm-19.79 0h-9.92v-8.3978h9.9zm-19.79 0h-9.9v-8.3978h9.9zm-19.8 0h-9.92v-8.3978h9.9zm-19.79 0h-9.89v-8.3978h9.89zm-19.79 0h-9.92v-8.3978h9.89zm-19.79 0h-9.9v-8.3978h9.9zm-19.8 0h-9.92v-8.3978h9.9zm-19.79 0h-9.9v-8.3978h9.9zm-19.79 0h-9.92v-8.3978h9.89zm-19.79 0h-9.9v-8.3978h9.9zm-19.79 0h-9.93v-8.3978h9.9zm-19.79 0h-9.9v-8.3978h9.9zm-19.8 0h-9.93v-8.3978h9.9zm-19.79 0h-9.9v-8.3978h9.9zm-19.79 0h-9.93v-8.3978h9.9zm-19.8 0h-9.89v-8.3978h9.89zm-19.788 0h-9.929v-8.3978h9.897zm-19.793 0h-9.896v-8.3978h9.896zm-19.793 0h-9.929v-8.3978h9.897zm-19.793 0h-9.888v-8.3978h9.888zm-19.785 0h-9.896v-8.3978h9.896zm-19.793 0h-9.896v-8.3978h9.896zm-19.793 0h-9.896v-8.3978h9.896zm-19.793 0h-9.896v-8.3978h9.896zm-19.792 0h-9.897v-8.3978h9.897zm-19.793 0h-9.897v-8.3978h9.897zm-19.793 0h-9.897v-8.3978h9.897zm-19.793 0h-9.897v-8.3978h9.897zm-19.793 0h-9.889v-8.3978h9.889zm-19.785 0h-9.897v-8.3978h9.897zm-19.793 0h-9.896v-8.3978h9.896zm-19.793 0h-9.896v-8.3978h9.896zm-19.793 0h-9.896v-8.3978h9.896zm-19.793 0h-9.896v-8.3978h9.896zm-19.793 0h-9.896v-8.3978h9.896zm-19.793 0h-9.896v-8.3978h9.896zm-19.793 0h-9.896v-8.3978h9.896zm-19.793 0h-9.896v-8.3978h9.896zm-19.793 0h-9.888v-8.3978h9.888zm-19.784 0h-9.897v-8.3978h9.897zm-19.793 0h-9.897v-8.3978h9.897zm-19.793 0h-9.897v-8.3978h9.897zm-19.793 0h-9.897v-8.3978h9.897zm-19.793 0h-9.897v-8.3978h9.897zm-19.793 0h-9.897v-8.3978h9.897zm-19.793 0h-9.896v-8.3978h9.896zm-19.793 0h-9.896v-8.3978h9.896zm-19.793 0h-9.888v-8.3978h9.888zm-19.785 0h-9.896v-8.3978h9.896zm-19.793 0h-9.896v-8.3978h9.896zm-19.793 0h-9.896v-8.3978h9.896zm-19.793 0h-9.896v-8.3978h9.896zm-19.792 0h-9.897v-8.3978h9.897zm-19.793 0h-9.897v-8.3978h9.897zm-19.793 0h-9.897v-8.3978h9.897zm-19.793 0h-9.897v-8.3978h9.897zm-19.793 0h-9.897v-8.3978h9.897zm-19.793 0h-9.889v-8.3978h9.889zm-19.785 0h-9.897v-8.3978h9.897zm-19.793 0h-9.896v-8.3978h9.896zm-19.793 0h-9.896v-8.3978h9.896zm-19.793 0h-9.8963v-8.3978h9.8963zm-19.7928 0h-9.8964v-8.3978h9.8964zm-19.7929 0h-9.8965v-8.3978h9.8965zm-19.7929 0h-9.8965v-8.3978h9.8965zm-19.793 0h-9.8965v-8.3978h9.8965zm-19.79292 0h-9.88838v-8.3978h9.88838zm-19.78488 0h-9.8964v-8.3978h9.8964zm-19.7929 0h-9.8965v-8.3978h9.8965zm-19.7929 0h-9.8965v-8.3978h9.8965zm-19.793 0h-9.8964v-8.3978h9.8964zm-19.7929 0h-9.8969v-8.3978h9.8969zm-19.7929 0h-9.897v-8.3978h9.897zm-19.793 0h-9.896v-8.3978h9.896zm-19.793 0h-9.896v-8.3978h9.896zm-19.793 0h-9.896v-8.3978h9.896z"/><path d="m2094.58 15.3959h-2295.951c-.975.0011-1.94-.1972-2.841-.5837s-1.719-.9534-2.409-1.6685c-.689-.715-1.236-1.5641-1.608-2.4985-.373-.9345-.564-1.93601-.563-2.94723 0-2.04163.782-3.99964 2.174-5.44329 1.391-1.443646 3.279-2.25468 5.247-2.25468h2295.951c1.97 0 3.86.811034 5.25 2.25468 1.39 1.44365 2.17 3.40166 2.17 5.44329s-.78 3.99963-2.17 5.44333c-1.39 1.4436-3.28 2.2546-5.25 2.2546z"/></g></svg>