<svg fill="none" height="2772" viewBox="0 0 3161 5544" width="1581" xmlns="http://www.w3.org/2000/svg" xmlns:xlink="http://www.w3.org/1999/xlink"><linearGradient id="a" gradientUnits="userSpaceOnUse" x1="1576" x2="1576" y1="-5130" y2="6128"><stop offset=".249609" stop-color="#4179d0"/><stop offset="1" stop-color="#d6e6ff"/></linearGradient><linearGradient id="b"><stop offset=".01" stop-color="#fff"/><stop offset=".99" stop-color="#fff" stop-opacity="0"/></linearGradient><linearGradient id="c" gradientUnits="userSpaceOnUse" x1="1340.37" x2="2657.16" xlink:href="#b" y1="2804.2" y2="1250.57"/><linearGradient id="d" gradientUnits="userSpaceOnUse" x1="951.349" x2="1019.24" xlink:href="#b" y1="614.644" y2="271.469"/><linearGradient id="e" gradientUnits="userSpaceOnUse" x1="950.039" x2="1003.26" y1="732.446" y2="317.857"><stop offset=".01" stop-color="#2996f9"/><stop offset=".99" stop-color="#81aefa"/></linearGradient><clipPath id="f"><path d="m0 0h3161v5544h-3161z"/></clipPath><g clip-path="url(#f)"><path d="m0 0h3161v5544h-3161z" fill="#fff"/><path d="m-10-5130h3172v11258h-3172z" fill="url(#a)"/><path d="m1664.44 974.011c37.35-40.423 104.97-15.687 149.33 16.913 86.57 63.636 159.69 150.186 260.76 186.766 91.61 33.11 193.74 19.87 287.58-7.15s183.33-67.27 278.4-88.79c175.46-39.37 364.92-8.46 520.76 80.76v942.28c-48.46 10.78-97.26 20.47-145.65 24.31-85.23 6.25-170.83-5.45-251.27-34.34-80.43-28.88-153.91-74.31-215.7-133.35-83.35-80.64-141.59-183.3-215.93-272.31-81-96.75-180.37-176.51-292.36-234.67-120.69-62.66-261.56-104.78-341.62-214.71-42.46-58.75-62.58-130.71-56.75-202.96 1.98-22.41 7.06-46.09 22.45-62.749z" fill="url(#c)" opacity=".49"/><path d="m990.679 319c-124.8 0-125.011 193.911 0 193.911s125.011-193.911 0-193.911z" fill="url(#d)" opacity=".44"/><path d="m990.68 339.889c-94.562 0-94.689 152.219 0 152.219 94.69 0 94.69-152.219 0-152.219z" fill="url(#e)"/><g fill="#fff"><path d="m2669.98 4642.99c.6-.05 1.2-.05 1.79 0 .26.02.52-.05.72-.22.21-.16.34-.4.37-.65 4.93-25.29 19.67-41.51 42.13-46.09.27-.08.5-.26.64-.5.15-.24.2-.53.14-.8 0 0 0-.31 0-.48-.01-.23-.1-.45-.25-.61-.15-.17-.35-.28-.58-.31-23.76-4.93-38.94-22.85-42.86-50.88h-.79-.52c-.24.02-.46.12-.63.29-.16.17-.27.39-.29.63-4.36 27.99-19.79 45.69-44.08 50.09-.22.05-.42.18-.57.35s-.24.38-.26.61c-.04.28.02.56.17.79.16.23.39.4.66.47 23.41 4.36 38.72 20.89 43.6 47.13z"/><path d="m3020.4 5497.77c.61-.06 1.22-.06 1.83 0 .52 0 .96-.3 1.09-.91 5.1-26.16 20.32-42.77 43.6-47.53.28-.08.51-.26.65-.5.15-.24.2-.53.14-.8 0 0 0-.35 0-.53-.02-.22-.11-.44-.26-.61s-.35-.29-.57-.35c-24.55-5.05-40.16-23.58-44.21-52.31h-.79-.7c-.25.02-.48.12-.65.3-.18.18-.29.41-.31.66-4.36 28.81-20.4 47.08-45.48 51.66-.22.05-.42.17-.57.34s-.24.39-.26.62c-.04.28.02.57.17.81.16.24.39.42.66.5 24.16 4.36 39.95 21.53 44.96 48.61z" opacity=".2"/><path d="m637.44 5299.18c.61-.04 1.222-.04 1.832 0 .129.02.261.01.387-.02.126-.04.244-.1.346-.18s.186-.18.248-.3c.061-.11.098-.24.109-.37 5.102-26.16 20.32-42.81 43.605-47.52.277-.09.512-.28.664-.52.152-.25.21-.55.165-.83 0 0 0-.31 0-.48-.012-.24-.099-.46-.248-.64-.15-.18-.353-.31-.581-.37-24.549-5.05-40.16-23.54-44.216-52.31h-.784-.567c-.248.02-.481.12-.657.3-.175.18-.283.41-.303.66-4.36 28.86-20.407 47.08-45.437 51.66-.229.06-.435.19-.591.37-.155.18-.253.4-.281.63-.052.29.01.59.173.83.162.25.413.42.699.48 24.114 4.36 39.899 21.58 44.914 48.61z" opacity=".78"/><path d="m246.69 5284.66c0 1.2-.475 2.35-1.321 3.2-.847.84-1.995 1.32-3.192 1.32s-2.345-.48-3.191-1.32c-.846-.85-1.322-2-1.322-3.2 0-1.19.476-2.34 1.322-3.19.846-.84 1.994-1.32 3.191-1.32s2.345.48 3.192 1.32c.846.85 1.321 2 1.321 3.19z" opacity=".62"/><path d="m383.872 5369.81h-.04v-.04z" opacity=".53"/><path d="m3099.46 4731.62c2.38 0 4.31-1.93 4.31-4.31 0-2.39-1.93-4.32-4.31-4.32-2.39 0-4.32 1.93-4.32 4.32 0 2.38 1.93 4.31 4.32 4.31z" opacity=".95"/><path d="m2387.07 4810.62c7.88 0 14.26-6.38 14.26-14.25 0-7.88-6.38-14.26-14.26-14.26-7.87 0-14.26 6.38-14.26 14.26 0 7.87 6.39 14.25 14.26 14.25z" opacity=".98"/><path d="m1952.45 4444.01c7.88 0 14.26-6.39 14.26-14.26s-6.38-14.26-14.26-14.26c-7.87 0-14.25 6.39-14.25 14.26s6.38 14.26 14.25 14.26z" opacity=".98"/><path d="m2423.35 4701.15c0 .72-.21 1.42-.61 2.02-.4.59-.97 1.06-1.63 1.33-.67.27-1.4.34-2.1.2-.7-.15-1.35-.5-1.85-1.01-.51-.51-.85-1.16-.98-1.86-.14-.71-.06-1.43.22-2.09.28-.67.75-1.23 1.35-1.62s1.31-.6 2.02-.59c.48 0 .95.1 1.38.28.44.18.84.45 1.17.78.33.34.59.74.77 1.18s.27.91.26 1.38z" opacity=".5"/><path d="m2442.49 4475.74c0 .7-.27 1.36-.76 1.85-.49.5-1.16.77-1.85.77-.7 0-1.36-.27-1.85-.77-.49-.49-.77-1.15-.77-1.85 0-.69.28-1.35.77-1.84.49-.5 1.15-.77 1.85-.77.69 0 1.36.27 1.85.77.49.49.76 1.15.76 1.84z" opacity=".53"/><path d="m2583.08 4793.71c0 1.25-.37 2.47-1.07 3.51-.69 1.04-1.68 1.85-2.83 2.33-1.16.48-2.43.6-3.66.36-1.22-.25-2.35-.85-3.24-1.73-.88-.89-1.48-2.01-1.73-3.24-.24-1.22-.11-2.5.36-3.65.48-1.16 1.29-2.14 2.33-2.84 1.04-.69 2.27-1.06 3.52-1.06 1.67 0 3.28.66 4.47 1.85 1.18 1.18 1.85 2.79 1.85 4.47z" opacity=".65"/><path d="m2945.31 4467.72c0 .61-.24 1.18-.67 1.61-.42.42-1 .66-1.6.66-.34.1-.69.12-1.04.05-.34-.06-.67-.21-.95-.42s-.51-.48-.66-.8c-.16-.31-.24-.66-.24-1.01s.08-.69.24-1.01c.15-.31.38-.59.66-.8s.61-.35.95-.42c.35-.06.7-.04 1.04.05.57 0 1.12.22 1.55.6.42.39.67.92.72 1.49z" opacity=".91"/><path d="m2017.25 4496.11c.12 0 .22-.1.22-.22s-.1-.22-.22-.22-.22.1-.22.22.1.22.22.22z" opacity=".92"/><path d="m1842.26 4483.81c0 .52-.2 1.02-.57 1.39s-.87.57-1.39.57-1.03-.2-1.4-.57c-.38-.36-.59-.86-.61-1.39.02-.53.23-1.03.6-1.4.38-.38.88-.59 1.41-.6.53.01 1.02.22 1.39.6.37.37.57.88.57 1.4z" opacity=".64"/><path d="m516.348 4982.84c0 1.73-.518 3.42-1.486 4.86s-2.343 2.56-3.95 3.21c-1.606.65-3.37.81-5.068.46-1.697-.36-3.25-1.21-4.461-2.45-1.21-1.24-2.023-2.82-2.335-4.52-.311-1.71-.107-3.47.586-5.06.694-1.58 1.846-2.93 3.308-3.86 1.463-.93 3.17-1.41 4.903-1.36 2.275.05 4.438 1 6.027 2.63 1.588 1.62 2.477 3.81 2.476 6.09z" opacity=".73"/><path d="m672.847 4970.71c2.192 0 3.968-1.77 3.968-3.96s-1.776-3.97-3.968-3.97c-2.191 0-3.968 1.78-3.968 3.97s1.777 3.96 3.968 3.96z" opacity=".91"/><path d="m141.557 4764.98c4.142 0 7.5-3.36 7.5-7.5s-3.358-7.5-7.5-7.5-7.5 3.36-7.5 7.5 3.358 7.5 7.5 7.5z" opacity=".7"/><path d="m286.461 4802.12c2.432 0 4.404-1.97 4.404-4.4s-1.972-4.41-4.404-4.41c-2.433 0-4.404 1.98-4.404 4.41s1.971 4.4 4.404 4.4z" opacity=".76"/><path d="m1141.48 4552.22c0 1.14-.34 2.25-.98 3.2-.63.95-1.53 1.68-2.59 2.12-1.05.43-2.21.54-3.33.32-1.12-.23-2.14-.78-2.94-1.59-.81-.81-1.35-1.84-1.57-2.96s-.1-2.27.35-3.32c.44-1.06 1.18-1.95 2.13-2.58.96-.63 2.07-.96 3.21-.95 1.52.01 2.98.63 4.05 1.7 1.07 1.08 1.67 2.54 1.67 4.06z" opacity=".53"/><path d="m812.256 5474.71c.009 1.6-.459 3.18-1.345 4.52-.886 1.33-2.15 2.38-3.631 3s-3.114.79-4.69.48-3.025-1.08-4.164-2.21c-1.138-1.13-1.915-2.58-2.232-4.15-.316-1.57-.158-3.21.454-4.69.613-1.49 1.652-2.75 2.987-3.65 1.335-.89 2.905-1.37 4.511-1.37 2.143 0 4.2.85 5.719 2.36 1.52 1.51 2.38 3.57 2.391 5.71z" opacity=".75"/><path d="m905.004 4725.3c0 .36-.07.71-.206 1.04s-.335.62-.586.87c-.251.26-.549.45-.877.59s-.68.21-1.035.21c-.663-.09-1.273-.41-1.716-.91-.442-.5-.686-1.15-.686-1.82s.244-1.31.686-1.81c.443-.51 1.053-.83 1.716-.91.721.01 1.409.3 1.915.82.505.51.789 1.2.789 1.92z" opacity=".63"/><path d="m103.535 4560.28c.008.45-.117.9-.361 1.28-.244.37-.595.67-1.009.85-.413.18-.87.23-1.313.15-.443-.09-.851-.3-1.1722-.61-.3215-.32-.5418-.72-.6329-1.16s-.0488-.9.1214-1.32c.1703-.42.4608-.77.8347-1.02.374-.25.814-.39 1.264-.39.296 0 .59.05.865.16.274.11.525.27.736.48.211.2.379.45.493.72.115.28.174.57.174.86z" opacity=".8"/><path d="m867.722 4958.68c.008.33-.081.66-.258.94-.177.27-.433.49-.734.62-.302.14-.637.18-.961.12s-.624-.22-.86-.45-.398-.52-.466-.84c-.067-.33-.037-.66.087-.97.124-.3.336-.56.61-.75.273-.18.595-.28.925-.28.432 0 .847.17 1.156.47.31.3.489.71.501 1.14z" opacity=".51"/><path d="m1227.4 3567.27c0 .16-.04.31-.13.44-.08.13-.21.23-.35.29s-.3.07-.45.04c-.16-.03-.3-.1-.41-.21s-.18-.25-.21-.4-.02-.31.04-.46c.06-.14.16-.26.29-.35.13-.08.28-.13.44-.13.1 0 .2.02.3.06.09.04.18.1.25.17.08.07.13.16.17.25.04.1.06.2.06.3z" opacity=".84"/><path d="m641.257 3844.95c0 1.25-.371 2.48-1.066 3.51-.695 1.04-1.682 1.85-2.837 2.33-1.156.48-2.427.61-3.654.36-1.226-.24-2.353-.84-3.237-1.73-.884-.88-1.486-2.01-1.73-3.23-.244-1.23-.119-2.5.36-3.66.478-1.15 1.288-2.14 2.328-2.83 1.04-.7 2.263-1.07 3.513-1.07.83 0 1.652.16 2.42.48.767.32 1.464.79 2.051 1.37.587.59 1.053 1.29 1.37 2.05.318.77.482 1.59.482 2.42z" opacity=".76"/><path d="m3020.4 161.282c.61-.065 1.22-.065 1.83 0 .52 0 .96-.306 1.09-.916 5.1-26.159 20.32-42.77 43.6-47.522.28-.081.51-.26.65-.502.15-.242.2-.529.14-.806 0 0 0-.349 0-.523-.02-.226-.11-.44-.26-.612s-.35-.294-.57-.347c-24.55-5.057-40.16-23.5866-44.21-52.3177h-.79-.7c-.25.0199-.48.1274-.65.3031-.18.1758-.29.4083-.31.6561-4.36 28.8183-20.4 47.0855-45.48 51.6635-.22.047-.42.167-.57.34s-.24.391-.26.619c-.04.282.02.569.17.81.16.24.39.417.66.498 24.16 4.36 39.95 21.538 44.96 48.612z" opacity=".2"/><path d="m341.533 852.004c.493-.043.989-.043 1.483 0 .213.012.422-.058.584-.196.163-.138.266-.334.288-.546 4.099-20.927 16.265-34.311 34.884-38.148.22-.061.409-.203.53-.396.121-.194.165-.426.124-.65 0 0 0-.262 0-.393-.005-.185-.073-.363-.191-.505-.119-.142-.282-.241-.463-.28-19.709-4.054-32.224-18.921-35.495-42.115h-.61-.436c-.201 0-.394.076-.54.214s-.234.327-.245.527c-3.532 23.151-16.396 37.799-36.498 41.505-.185.031-.352.128-.472.272s-.185.326-.182.513c-.026.112-.029.227-.011.34.019.114.06.222.121.319s.14.181.233.248c.094.066.199.114.311.139 19.361 3.532 32.05 17.44 36.062 39.021z"/><path d="m383.872 33.3159h-.04v-.0405z" opacity=".53"/><path d="m850.061 879.428c0 1.328-.393 2.626-1.131 3.73s-1.787 1.965-3.014 2.473-2.577.641-3.88.382-2.499-.898-3.438-1.837-1.579-2.136-1.838-3.438-.126-2.652.382-3.879 1.369-2.276 2.473-3.013c1.105-.738 2.403-1.132 3.731-1.132 1.781 0 3.489.707 4.749 1.967 1.259 1.259 1.966 2.966 1.966 4.747z" opacity=".97"/><path d="m959.816 644.388c-.058.323-.227.614-.478.825-.251.21-.568.325-.896.325-.327 0-.644-.115-.895-.325-.251-.211-.421-.502-.478-.825-.036-.2-.028-.407.025-.604.052-.197.147-.38.278-.537.131-.156.295-.282.48-.368.185-.087.386-.131.59-.131s.406.044.591.131c.185.086.348.212.479.368.131.157.226.34.279.537.052.197.061.404.025.604z" opacity=".59"/><path d="m2709.88 567.482c.19 0 .35-.156.35-.348 0-.193-.16-.349-.35-.349s-.35.156-.35.349c0 .192.16.348.35.348z" opacity=".88"/><path d="m3152 576.332c.01 1.321-.38 2.615-1.1 3.717-.73 1.103-1.77 1.965-2.99 2.476-1.22.512-2.56.65-3.86.398-1.29-.253-2.49-.884-3.42-1.815-.94-.932-1.58-2.12-1.84-3.415s-.13-2.639.37-3.86c.5-1.222 1.36-2.266 2.46-3.001 1.09-.735 2.39-1.127 3.71-1.127 1.76 0 3.45.697 4.7 1.938 1.25 1.242 1.96 2.927 1.97 4.689z" opacity=".6"/><path d="m3023.54 518.434c1.54 0 2.79-1.249 2.79-2.79s-1.25-2.79-2.79-2.79c-1.55 0-2.79 1.249-2.79 2.79s1.24 2.79 2.79 2.79z" opacity=".58"/><path d="m812.256 138.218c.009 1.605-.459 3.178-1.345 4.517s-2.15 2.385-3.631 3.006c-1.481.62-3.114.787-4.69.479s-3.025-1.077-4.164-2.209c-1.138-1.133-1.915-2.577-2.232-4.152-.316-1.574-.158-3.206.454-4.691.613-1.484 1.652-2.753 2.987-3.646s2.905-1.37 4.511-1.37c2.143 0 4.2.848 5.719 2.36 1.52 1.511 2.38 3.563 2.391 5.706z" opacity=".75"/><path d="m431.274 960.78c-.009-2.097.605-4.149 1.764-5.897s2.811-3.113 4.746-3.921c1.936-.809 4.068-1.025 6.126-.621s3.95 1.409 5.437 2.889c1.486 1.48 2.5 3.368 2.912 5.424s.205 4.189-.596 6.127c-.8 1.938-2.158 3.596-3.902 4.762-1.743 1.166-3.794 1.788-5.891 1.788-2.803 0-5.492-1.11-7.478-3.087-1.985-1.978-3.107-4.661-3.118-7.464z" opacity=".88"/><path d="m207.881 1009c.009 1.91-.549 3.78-1.603 5.37s-2.556 2.83-4.316 3.56c-1.76.74-3.699.94-5.571.57s-3.593-1.28-4.946-2.63c-1.352-1.34-2.274-3.06-2.649-4.93-.376-1.87-.187-3.81.541-5.57s1.963-3.27 3.549-4.33c1.585-1.064 3.45-1.63 5.358-1.63 2.548 0 4.993 1.01 6.799 2.81 1.806 1.79 2.826 4.23 2.838 6.78z" opacity=".79"/><path d="m2025.49 1000.32c.01.33-.08.66-.25.94-.18.27-.44.49-.74.63-.3.13-.64.17-.96.11s-.62-.22-.86-.45-.4-.52-.47-.84c-.06-.33-.03-.66.09-.966.13-.305.34-.567.61-.751s.6-.282.93-.282c.43 0 .84.168 1.15.47.31.301.49.711.5 1.139z" opacity=".72"/><path d="m2859.27 765.157c0 .156-.04.307-.13.436-.08.129-.21.23-.35.289-.14.06-.3.075-.45.045-.16-.03-.3-.105-.41-.215-.1-.11-.18-.249-.21-.402-.03-.152-.01-.31.04-.453.06-.143.16-.266.29-.352s.28-.132.44-.132c.1 0 .21.02.3.059.1.04.18.097.25.17.08.073.14.16.18.255.03.095.05.197.05.3z" opacity=".84"/><path d="m3111.88 1006.6c0 1.56-.46 3.07-1.32 4.36s-2.09 2.3-3.52 2.89c-1.44.6-3.01.75-4.54.45-1.52-.3-2.92-1.05-4.02-2.15-1.09-1.1-1.84-2.49-2.14-4.02-.31-1.52-.15-3.1.44-4.53.6-1.43 1.6-2.66 2.89-3.52 1.29-.864 2.81-1.325 4.36-1.325 1.04-.005 2.06.194 3.01.586.96.392 1.83.969 2.56 1.699s1.3 1.6 1.7 2.55c.39.96.59 1.98.58 3.01z" opacity=".74"/><path d="m2273.13 1042.83c0 1.25-.37 2.48-1.07 3.52-.69 1.03-1.68 1.85-2.83 2.32-1.16.48-2.43.61-3.66.36-1.22-.24-2.35-.84-3.23-1.73-.89-.88-1.49-2.01-1.73-3.23-.25-1.23-.12-2.5.36-3.66.47-1.15 1.28-2.14 2.32-2.83 1.04-.7 2.27-1.07 3.52-1.07.83 0 1.65.16 2.42.48.76.32 1.46.79 2.05 1.37.59.59 1.05 1.29 1.37 2.05.32.77.48 1.59.48 2.42z" opacity=".76"/><path d="m1606.7 1041.61c1.55 0 2.8-1.25 2.8-2.79s-1.25-2.79-2.8-2.79c-1.54 0-2.79 1.25-2.79 2.79s1.25 2.79 2.79 2.79z" opacity=".8"/><path d="m581.016 3045.66c-.595.04-1.193.04-1.788 0-.259-.03-.518.05-.722.21-.203.16-.335.4-.368.66-4.927 25.29-19.666 41.5-42.123 46.08-.27.08-.5.26-.645.5-.145.25-.195.53-.14.81v.48c.008.22.096.44.248.61.151.17.357.27.581.3 23.765 4.93 38.939 22.85 42.864 50.88h.785.523c.236-.02.458-.12.625-.29.168-.16.271-.39.291-.62 4.36-27.99 19.797-45.69 44.085-50.1.221-.05.419-.17.568-.34.149-.18.24-.39.261-.62.041-.27-.02-.55-.173-.79-.153-.23-.387-.4-.656-.47-23.416-4.36-38.722-20.88-43.606-47.13z"/><path d="m230.602 2190.87c-.609.07-1.222.07-1.831 0-.523 0-.96.31-1.09.92-5.102 26.16-20.321 42.77-43.606 47.52-.27.08-.5.26-.645.5s-.195.53-.14.81v.52c.021.23.112.44.261.61.148.18.347.3.568.35 24.55 5.06 40.16 23.59 44.216 52.32h.785.697c.248-.02.481-.13.656-.31.176-.17.284-.4.303-.65 4.361-28.82 20.408-47.09 45.481-51.66.224-.05.427-.17.576-.34.15-.18.239-.4.253-.62.043-.29-.017-.57-.169-.81s-.387-.42-.66-.5c-24.157-4.36-39.942-21.54-44.957-48.61z" opacity=".2"/><path d="m2613.56 2389.46c-.61.05-1.22.05-1.83 0-.13-.02-.26-.01-.39.03-.13.03-.24.09-.35.17-.1.08-.18.19-.24.3-.06.12-.1.24-.11.37-5.1 26.16-20.32 42.82-43.61 47.53-.27.09-.51.27-.66.52s-.21.54-.17.83v.48c.02.23.1.46.25.64s.35.3.58.36c24.55 5.06 40.16 23.54 44.22 52.32h.78.57c.25-.02.48-.13.66-.31.17-.17.28-.4.3-.65 4.36-28.86 20.41-47.09 45.44-51.67.23-.05.43-.18.59-.36.15-.18.25-.4.28-.64.05-.29-.01-.58-.17-.83-.17-.24-.42-.41-.7-.48-24.12-4.36-39.9-21.58-44.92-48.61z" opacity=".78"/><path d="m2909.47 1500.15c-.5.04-.99.04-1.49 0-.21-.01-.42.06-.58.2-.16.13-.27.33-.29.54-4.1 20.93-16.26 34.31-34.88 38.15-.22.06-.41.2-.53.4-.12.19-.17.42-.13.65v.39c.01.18.08.36.2.5.11.15.28.24.46.28 19.71 4.06 32.22 18.93 35.49 42.12h.61.44c.2 0 .39-.08.54-.21.15-.14.23-.33.24-.53 3.54-23.15 16.4-37.8 36.5-41.51.19-.03.35-.12.47-.27.12-.14.19-.32.19-.51.02-.11.03-.23.01-.34-.02-.12-.06-.22-.12-.32s-.14-.18-.24-.25c-.09-.06-.2-.11-.31-.14-19.36-3.53-32.05-17.44-36.06-39.02z"/><path d="m3004.31 2403.98c0-1.2.48-2.34 1.32-3.19.85-.85 2-1.32 3.19-1.32 1.2 0 2.35.47 3.19 1.32.85.85 1.33 1.99 1.33 3.19s-.48 2.34-1.33 3.19c-.84.85-1.99 1.32-3.19 1.32-1.19 0-2.34-.47-3.19-1.32-.84-.85-1.32-1.99-1.32-3.19z" opacity=".62"/><path d="m2867.13 2318.84h.04v.04z" opacity=".53"/><path d="m2400.94 1472.73c0-1.33.39-2.63 1.13-3.73.74-1.11 1.79-1.97 3.01-2.48 1.23-.5 2.58-.64 3.88-.38 1.31.26 2.5.9 3.44 1.84s1.58 2.13 1.84 3.44c.26 1.3.13 2.65-.38 3.88-.51 1.22-1.37 2.27-2.48 3.01-1.1.74-2.4 1.13-3.73 1.13-1.78 0-3.49-.71-4.74-1.97-1.26-1.26-1.97-2.96-1.97-4.74z" opacity=".97"/><path d="m2291.18 1707.77c.06-.33.23-.62.48-.83s.57-.32.9-.32.64.11.89.32.42.5.48.83c.04.2.03.4-.02.6-.06.2-.15.38-.28.54-.13.15-.3.28-.48.37-.19.08-.39.13-.59.13-.21 0-.41-.05-.59-.13-.19-.09-.35-.22-.48-.37-.13-.16-.23-.34-.28-.54s-.06-.4-.03-.6z" opacity=".59"/><path d="m541.118 1784.67c-.193 0-.349.16-.349.35s.156.35.349.35.349-.16.349-.35-.156-.35-.349-.35z" opacity=".88"/><path d="m99.0005 1775.82c-.0086-1.32.3754-2.61 1.1035-3.72.728-1.1 1.767-1.96 2.985-2.47s2.561-.65 3.858-.4 2.49.89 3.427 1.82 1.577 2.12 1.838 3.41c.261 1.3.132 2.64-.372 3.86s-1.359 2.27-2.457 3c-1.098.74-2.389 1.13-3.711 1.13-1.762 0-3.452-.7-4.702-1.94-1.2499-1.24-1.9579-2.93-1.9695-4.69z" opacity=".6"/><path d="m227.464 1833.72c-1.541 0-2.79 1.25-2.79 2.79s1.249 2.79 2.79 2.79c1.542 0 2.791-1.25 2.791-2.79s-1.249-2.79-2.791-2.79z" opacity=".58"/><path d="m151.544 2957.02c-2.384 0-4.316 1.93-4.316 4.32 0 2.38 1.932 4.31 4.316 4.31 2.385 0 4.317-1.93 4.317-4.31 0-2.39-1.932-4.32-4.317-4.32z" opacity=".95"/><path d="m863.928 2878.02c-7.875 0-14.258 6.38-14.258 14.26 0 7.87 6.383 14.25 14.258 14.25s14.26-6.38 14.26-14.25c0-7.88-6.385-14.26-14.26-14.26z" opacity=".98"/><path d="m1298.55 3244.64c-7.88 0-14.26 6.38-14.26 14.25 0 7.88 6.38 14.26 14.26 14.26 7.87 0 14.25-6.38 14.25-14.26 0-7.87-6.38-14.25-14.25-14.25z" opacity=".98"/><path d="m827.65 2987.49c0-.71.214-1.41.613-2.01.4-.6.968-1.06 1.632-1.33.664-.28 1.394-.34 2.097-.2s1.348.49 1.852 1c.505.51.846 1.16.98 1.87.135.7.057 1.43-.223 2.09-.281.66-.752 1.22-1.353 1.61-.601.4-1.305.6-2.022.59-.473 0-.942-.09-1.379-.27-.436-.19-.832-.45-1.165-.79s-.595-.74-.772-1.17c-.177-.44-.266-.91-.26-1.39z" opacity=".5"/><path d="m808.507 3212.9c0-.69.275-1.36.766-1.85s1.156-.77 1.85-.77 1.359.28 1.85.77.766 1.16.766 1.85-.275 1.36-.766 1.85-1.156.77-1.85.77-1.359-.28-1.85-.77-.766-1.16-.766-1.85z" opacity=".53"/><path d="m667.922 2894.94c0-1.25.37-2.48 1.065-3.52s1.683-1.85 2.838-2.32c1.155-.48 2.426-.61 3.653-.36 1.226.24 2.353.84 3.237 1.73.885.88 1.487 2.01 1.731 3.23.244 1.23.119 2.5-.36 3.66-.478 1.15-1.289 2.14-2.329 2.83-1.04.7-2.262 1.07-3.513 1.07-1.677 0-3.285-.67-4.47-1.85-1.186-1.19-1.852-2.8-1.852-4.47z" opacity=".65"/><path d="m305.692 3220.92c0-.6.239-1.18.664-1.6.425-.43 1.002-.67 1.603-.67.338-.09.693-.11 1.038-.05.345.07.67.21.951.42.28.21.507.49.664.8.156.32.238.66.238 1.01s-.082.7-.238 1.01c-.157.32-.384.59-.664.8-.281.21-.606.36-.951.42-.345.07-.7.05-1.038-.05-.572 0-1.124-.21-1.544-.6-.421-.39-.679-.92-.723-1.49z" opacity=".91"/><path d="m1233.75 3192.54c-.12 0-.22.1-.22.22s.1.21.22.21.22-.09.22-.21-.1-.22-.22-.22z" opacity=".92"/><path d="m1408.74 3204.83c0-.52.2-1.02.57-1.38.37-.37.87-.58 1.39-.58s1.03.21 1.4.57c.38.37.59.87.61 1.39-.02.53-.23 1.03-.6 1.41-.38.37-.88.59-1.41.6-.53-.01-1.02-.23-1.39-.6-.37-.38-.57-.88-.57-1.41z" opacity=".64"/><path d="m2734.65 2705.81c0-1.73.52-3.43 1.49-4.87s2.34-2.55 3.95-3.21c1.6-.65 3.37-.81 5.07-.45 1.69.35 3.25 1.2 4.46 2.45 1.21 1.24 2.02 2.81 2.33 4.52.31 1.7.11 3.46-.58 5.05-.7 1.59-1.85 2.94-3.31 3.87s-3.17 1.4-4.91 1.36c-2.27-.06-4.43-1-6.02-2.63s-2.48-3.82-2.48-6.09z" opacity=".73"/><path d="m2578.15 2717.93c-2.19 0-3.97 1.78-3.97 3.97s1.78 3.97 3.97 3.97 3.97-1.78 3.97-3.97-1.78-3.97-3.97-3.97z" opacity=".91"/><path d="m3109.44 2923.67c-4.14 0-7.5 3.36-7.5 7.5s3.36 7.5 7.5 7.5c4.15 0 7.5-3.36 7.5-7.5s-3.35-7.5-7.5-7.5z" opacity=".7"/><path d="m2964.54 2886.52c-2.43 0-4.4 1.97-4.4 4.41 0 2.43 1.97 4.4 4.4 4.4s4.4-1.97 4.4-4.4c0-2.44-1.97-4.41-4.4-4.41z" opacity=".76"/><path d="m2109.52 3136.43c0-1.14.34-2.26.98-3.21.63-.94 1.53-1.68 2.59-2.11 1.05-.44 2.21-.55 3.33-.32 1.12.22 2.14.77 2.94 1.58.81.81 1.35 1.84 1.57 2.96s.1 2.28-.35 3.33c-.44 1.05-1.18 1.95-2.13 2.57-.96.63-2.07.96-3.21.95-1.52-.01-2.98-.62-4.05-1.7s-1.67-2.53-1.67-4.05z" opacity=".53"/><path d="m2438.74 2213.94c0-1.61.46-3.18 1.35-4.52s2.15-2.39 3.63-3.01 3.11-.78 4.69-.48c1.58.31 3.03 1.08 4.16 2.21 1.14 1.14 1.92 2.58 2.24 4.15.31 1.58.15 3.21-.46 4.7-.61 1.48-1.65 2.75-2.99 3.64-1.33.9-2.9 1.37-4.51 1.37-2.14 0-4.2-.85-5.72-2.36s-2.37-3.56-2.39-5.7z" opacity=".75"/><path d="m2819.73 1391.37c.01 2.1-.61 4.15-1.77 5.9s-2.81 3.11-4.74 3.92c-1.94.81-4.07 1.03-6.13.62-2.06-.4-3.95-1.41-5.44-2.89-1.48-1.48-2.5-3.36-2.91-5.42s-.2-4.19.6-6.13 2.16-3.59 3.9-4.76c1.74-1.16 3.79-1.79 5.89-1.79 2.8 0 5.49 1.11 7.48 3.09 1.98 1.98 3.1 4.66 3.12 7.46z" opacity=".88"/><path d="m3043.12 1343.15c-.01-1.9.55-3.77 1.6-5.36 1.06-1.59 2.56-2.83 4.32-3.57s3.7-.93 5.57-.57c1.87.37 3.59 1.28 4.94 2.63 1.36 1.35 2.28 3.06 2.65 4.93.38 1.87.19 3.81-.54 5.58-.72 1.76-1.96 3.27-3.55 4.33-1.58 1.06-3.45 1.62-5.35 1.62-2.55 0-5-1-6.8-2.8-1.81-1.8-2.83-4.24-2.84-6.79z" opacity=".79"/><path d="m1225.51 1351.83c-.01-.33.08-.65.25-.93.18-.28.44-.5.74-.63s.64-.17.96-.11.62.21.86.44.4.52.47.85c.06.32.03.65-.09.96-.13.31-.34.57-.61.75s-.6.28-.93.28c-.43 0-.84-.16-1.15-.47-.31-.3-.49-.71-.5-1.14z" opacity=".72"/><path d="m391.725 1587c0-.16.046-.31.132-.44.087-.13.209-.23.353-.29.143-.06.301-.07.453-.04s.292.1.402.21.184.25.215.4c.03.16.015.31-.045.46-.059.14-.16.26-.289.35s-.281.13-.436.13c-.103 0-.205-.02-.3-.06-.096-.04-.182-.1-.255-.17s-.131-.16-.17-.25c-.04-.1-.06-.2-.06-.3z" opacity=".84"/><path d="m139.117 1345.55c0-1.55.461-3.07 1.323-4.36.863-1.29 2.088-2.3 3.523-2.89 1.434-.59 3.012-.75 4.534-.45 1.523.31 2.922 1.05 4.019 2.15 1.098 1.1 1.846 2.5 2.149 4.02s.147 3.1-.447 4.53c-.594 1.44-1.6 2.66-2.891 3.53-1.291.86-2.808 1.32-4.361 1.32-1.032 0-2.055-.19-3.01-.59-.955-.39-1.823-.97-2.553-1.7s-1.308-1.59-1.7-2.55c-.392-.95-.591-1.98-.586-3.01z" opacity=".74"/><path d="m977.87 1309.32c0-1.25.371-2.47 1.066-3.51.694-1.04 1.682-1.85 2.837-2.33 1.156-.48 2.427-.6 3.653-.36 1.227.24 2.354.85 3.238 1.73.884.89 1.486 2.01 1.73 3.24.244 1.22.119 2.5-.36 3.65-.478 1.16-1.288 2.14-2.328 2.84-1.04.69-2.263 1.06-3.513 1.06-.83 0-1.653-.16-2.42-.48s-1.464-.78-2.051-1.37-1.053-1.28-1.37-2.05c-.318-.77-.482-1.59-.482-2.42z" opacity=".76"/><path d="m2346 2963.34c0-.35.07-.71.2-1.03.14-.33.34-.63.59-.88s.55-.45.88-.59c.32-.13.67-.2 1.03-.2.66.08 1.27.41 1.72.91.44.5.68 1.14.68 1.81s-.24 1.32-.68 1.82c-.45.5-1.06.82-1.72.91-.72-.01-1.41-.31-1.91-.82-.51-.52-.79-1.21-.79-1.93z" opacity=".63"/><path d="m3147.47 3128.36c-.01-.45.11-.89.36-1.27.24-.38.59-.68 1-.86.42-.17.88-.22 1.32-.14s.85.29 1.17.61c.32.31.54.72.63 1.16s.05.9-.12 1.31c-.17.42-.46.78-.83 1.03-.38.25-.82.38-1.27.38-.29.01-.59-.04-.86-.15-.28-.11-.53-.28-.74-.48-.21-.21-.38-.46-.49-.73-.12-.27-.17-.56-.17-.86z" opacity=".8"/><path d="m2383.28 2729.96c-.01-.33.08-.65.26-.93.17-.28.43-.5.73-.63s.64-.17.96-.11c.33.06.62.21.86.44s.4.53.47.85c.06.32.03.66-.09.96-.12.31-.34.57-.61.75-.27.19-.6.28-.92.28-.44 0-.85-.16-1.16-.47-.31-.3-.49-.71-.5-1.14z" opacity=".51"/><path d="m1644.3 1310.54c-1.55 0-2.8 1.25-2.8 2.79s1.25 2.79 2.8 2.79c1.54 0 2.79-1.25 2.79-2.79s-1.25-2.79-2.79-2.79z" opacity=".8"/><path d="m2023.6 4121.37c0-.16.04-.31.13-.44.08-.13.21-.23.35-.29.14-.05.3-.07.45-.04.16.03.3.1.41.21s.18.25.21.41c.03.15.02.31-.04.45s-.16.27-.29.35c-.13.09-.28.13-.44.13-.1 0-.2-.02-.3-.06-.09-.03-.18-.09-.25-.17-.08-.07-.13-.15-.17-.25s-.06-.2-.06-.3z" opacity=".84"/><path d="m2609.74 3843.69c0-1.25.37-2.47 1.07-3.51.69-1.04 1.68-1.85 2.84-2.33 1.15-.48 2.42-.6 3.65-.36 1.23.25 2.35.85 3.24 1.73.88.89 1.48 2.01 1.73 3.24.24 1.22.12 2.5-.36 3.65-.48 1.16-1.29 2.14-2.33 2.84-1.04.69-2.26 1.06-3.51 1.06-.83 0-1.66-.16-2.42-.48-.77-.32-1.47-.78-2.06-1.37-.58-.59-1.05-1.28-1.37-2.05-.31-.77-.48-1.59-.48-2.42z" opacity=".76"/></g></g></svg>