<svg fill="none" height="95" viewBox="0 0 218 188" width="109" xmlns="http://www.w3.org/2000/svg"><path d="m50.5754 32.5h138.7706v144h-138.7706z" fill="#4d8ef4"/><path d="m163.201 145.5h37.206v41h-37.206z" fill="#75a6f6"/><path d="m163.201 97.5h37.206v41h-37.206z" fill="#75a6f6"/><path d="m163.201 1.5h37.206v41h-37.206z" fill="#75a6f6"/><path d="m163.201 49.5h37.206v41h-37.206z" fill="#75a6f6"/><path d="m165.212 145.5h-126.7037v41h126.7037z" fill="#e9f1ff"/><path d="m125.7 156.148h-76.742v20.547h76.742z" fill="#4d8ef4"/><path d="m152.855 170.825h-9.638v2.935h9.638z" fill="#4d8ef4"/><path d="m152.855 159.083h-9.638v2.935h9.638z" fill="#4d8ef4"/><path d="m152.855 164.954h-9.638v2.935h9.638z" fill="#4d8ef4"/><path d="m139.469 159.083h-9.637v2.935h9.637z" fill="#4d8ef4"/><path d="m139.469 164.954h-9.637v2.935h9.637z" fill="#4d8ef4"/><path d="m139.469 170.824h-9.637v2.935h9.637z" fill="#4d8ef4"/><path d="m113.303 162.02h-59.6226v9.392h59.6226z" fill="#fdfeff"/><path d="m118.644 168.785c1.319 0 2.389-1.121 2.389-2.503 0-1.381-1.07-2.502-2.389-2.502s-2.389 1.121-2.389 2.502c0 1.382 1.07 2.503 2.389 2.503z" fill="#fdfeff"/><path d="m165.212 97.5h-126.7037v41h126.7037z" fill="#e9f1ff"/><path d="m125.7 108.241h-76.742v20.547h76.742z" fill="#4d8ef4"/><path d="m152.855 122.918h-9.638v2.935h9.638z" fill="#4d8ef4"/><path d="m152.855 111.178h-9.638v2.935h9.638z" fill="#4d8ef4"/><path d="m152.855 117.049h-9.638v2.935h9.638z" fill="#4d8ef4"/><path d="m139.469 111.178h-9.637v2.935h9.637z" fill="#4d8ef4"/><path d="m139.469 117.049h-9.637v2.935h9.637z" fill="#4d8ef4"/><path d="m139.469 122.918h-9.637v2.936h9.637z" fill="#4d8ef4"/><path d="m113.303 114.111h-59.6226v9.393h59.6226z" fill="#fdfeff"/><path d="m118.644 120.877c1.319 0 2.389-1.12 2.389-2.502s-1.07-2.502-2.389-2.502-2.389 1.12-2.389 2.502 1.07 2.502 2.389 2.502z" fill="#fdfeff"/><path d="m165.212 1.5h-126.7037v41h126.7037z" fill="#e9f1ff"/><path d="m78.0683 12.0674h-28.5202v20.5466h28.5202z" fill="#4d8ef4"/><path d="m115.462 12.0677h-28.5206v20.5466h28.5206z" fill="#4d8ef4"/><path d="m152.855 12.0674h-28.521v20.5466h28.521z" fill="#4d8ef4"/><g fill="#fdfeff"><path d="m100.934 19.4207c1.32 0 2.389-1.1202 2.389-2.5021s-1.069-2.5022-2.389-2.5022c-1.319 0-2.3886 1.1203-2.3886 2.5022s1.0696 2.5021 2.3886 2.5021z"/><path d="m138.715 19.4207c1.319 0 2.389-1.1202 2.389-2.5021s-1.07-2.5022-2.389-2.5022c-1.32 0-2.389 1.1203-2.389 2.5022s1.069 2.5021 2.389 2.5021z"/><path d="m63.1529 19.4207c1.3193 0 2.3889-1.1202 2.3889-2.5021s-1.0696-2.5022-2.3889-2.5022c-1.3194 0-2.389 1.1203-2.389 2.5022s1.0696 2.5021 2.389 2.5021z"/><path d="m53.0898 23.22h8.8549v5.8705h-8.8549z"/><path d="m55.4514 21.4591h4.1323v6.4575h-4.1323z"/><path d="m65.4866 23.22h8.8548v5.8705h-8.8548z"/><path d="m67.8481 21.4591h4.1323v6.4575h-4.1323z"/><path d="m90.2803 23.22h8.8548v5.8705h-8.8548z"/><path d="m92.6416 21.4591h4.1323v6.4575h-4.1323z"/><path d="m102.677 23.22h8.855v5.8705h-8.855z"/><path d="m105.038 21.4591h4.133v6.4575h-4.133z"/><path d="m128.062 23.22h8.855v5.8705h-8.855z"/><path d="m130.423 21.4591h4.133v6.4575h-4.133z"/><path d="m140.458 23.22h8.855v5.8705h-8.855z"/><path d="m142.82 21.4591h4.132v6.4575h-4.132z"/></g><path d="m165.212 49.5h-126.7037v41h126.7037z" fill="#e9f1ff"/><path d="m78.0683 60.1025h-28.5202v20.5466h28.5202z" fill="#4d8ef4"/><path d="m115.462 60.1025h-28.5206v20.5466h28.5206z" fill="#4d8ef4"/><path d="m152.855 60.1025h-28.521v20.5466h28.521z" fill="#4d8ef4"/><path d="m100.934 67.4559c1.319 0 2.389-1.1202 2.389-2.5021s-1.07-2.5022-2.389-2.5022c-1.3193 0-2.3888 1.1203-2.3888 2.5022s1.0695 2.5021 2.3888 2.5021z" fill="#fdfeff"/><path d="m138.715 67.4559c1.319 0 2.389-1.1202 2.389-2.5021s-1.07-2.5022-2.389-2.5022c-1.32 0-2.389 1.1203-2.389 2.5022s1.069 2.5021 2.389 2.5021z" fill="#fdfeff"/><path d="m63.1529 67.4559c1.3193 0 2.3889-1.1202 2.3889-2.5021s-1.0696-2.5022-2.3889-2.5022c-1.3194 0-2.389 1.1203-2.389 2.5022s1.0696 2.5021 2.389 2.5021z" fill="#fdfeff"/><path d="m53.0898 71.2563h8.8549v5.8704h-8.8549z" fill="#fdfeff"/><path d="m55.4517 69.4954h4.1322v6.4575h-4.1322z" fill="#fdfeff"/><path d="m65.4866 71.2564h8.8548v5.8704h-8.8548z" fill="#fdfeff"/><path d="m67.8481 69.4955h4.1323v6.4575h-4.1323z" fill="#fdfeff"/><path d="m90.2803 71.2563h8.8548v5.8704h-8.8548z" fill="#fdfeff"/><path d="m92.6416 69.4954h4.1323v6.4575h-4.1323z" fill="#fdfeff"/><path d="m102.677 71.2564h8.855v5.8704h-8.855z" fill="#fdfeff"/><path d="m105.038 69.4955h4.133v6.4575h-4.133z" fill="#fdfeff"/><path d="m128.062 71.2563h8.855v5.8704h-8.855z" fill="#fdfeff"/><path d="m130.423 69.4954h4.133v6.4575h-4.133z" fill="#fdfeff"/><path d="m140.458 71.2564h8.855v5.8704h-8.855z" fill="#fdfeff"/><path d="m142.82 69.4955h4.132v6.4575h-4.132z" fill="#fdfeff"/><path clip-rule="evenodd" d="m198.473 117.309c-6.884-3.159-15.381-3.284-21.129-2.358-1.448.234-2.812-.744-3.047-2.185-.235-1.44.749-2.796 2.197-3.03 6.382-1.028 16.042-.97 24.205 2.775 4.126 1.893 7.927 4.757 10.663 8.944 2.742 4.194 4.302 9.543 4.22 16.215-.082 6.664-1.743 11.995-4.528 16.171-2.78 4.168-6.573 7.027-10.675 8.92-8.118 3.747-17.627 3.808-23.894 2.776-1.447-.238-2.426-1.598-2.187-3.037.24-1.44 1.608-2.413 3.055-2.175 5.608.923 13.949.801 20.789-2.356 3.377-1.559 6.34-3.832 8.485-7.048 2.14-3.21 3.571-7.516 3.643-13.316.071-5.792-1.277-10.08-3.362-13.271-2.091-3.199-5.037-5.467-8.435-7.025z" fill="#3f80e6" fill-rule="evenodd"/><path clip-rule="evenodd" d="m37 1.5c0-.828427.6753-1.5 1.5084-1.5h161.8986c.833 0 1.509.671573 1.509 1.5v41c0 .8284-.676 1.5-1.509 1.5h-9.553v4h9.553c.833 0 1.509.6716 1.509 1.5v41c0 .8284-.676 1.5-1.509 1.5h-9.553v4h9.553c.833 0 1.509.6716 1.509 1.5v13.925c4.111 1.989 7.923 4.947 10.711 9.212 2.928 4.479 4.548 10.13 4.463 17.051-.085 6.909-1.811 12.532-4.779 16.982-2.752 4.128-6.43 7.033-10.395 9.018v22.812c0 .828-.676 1.5-1.509 1.5h-161.8986c-.8331 0-1.5084-.672-1.5084-1.5v-41c0-.828.6753-1.5 1.5084-1.5h10.5586v-4h-10.5586c-.8331 0-1.5084-.672-1.5084-1.5v-41c0-.8284.6753-1.5 1.5084-1.5h10.5586v-4h-10.5586c-.8331 0-1.5084-.6716-1.5084-1.5v-41c0-.8284.6753-1.5 1.5084-1.5h10.5586v-4h-10.5586c-.8331 0-1.5084-.6716-1.5084-1.5zm3.0168 1.5v38h10.5586c.833 0 1.5084.6716 1.5084 1.5v7c0 .8284-.6754 1.5-1.5084 1.5h-10.5586v38h10.5586c.833 0 1.5084.6716 1.5084 1.5v7c0 .8284-.6754 1.5-1.5084 1.5h-10.5586v38h10.5586c.833 0 1.5084.672 1.5084 1.5v7c0 .828-.6754 1.5-1.5084 1.5h-10.5586v38h158.8822v-22.252c0-.583.34-1.114.872-1.36 3.886-1.798 7.433-4.487 10.026-8.376 2.602-3.901 4.198-8.942 4.277-15.361.079-6.422-1.421-11.47-3.977-15.379-2.553-3.906-6.11-6.601-10.03-8.399-.092-.042-.185-.084-.277-.125-.542-.242-.891-.778-.891-1.369v-13.379h-9.553c-.833 0-1.508-.6716-1.508-1.5v-7c0-.8284.675-1.5 1.508-1.5h9.553v-38h-9.553c-.833 0-1.508-.6716-1.508-1.5v-7c0-.8284.675-1.5 1.508-1.5h9.553v-38zm158.8822 115.304c0-.537.288-1.032.755-1.3s1.042-.267 1.509.001c2.758 1.586 5.18 3.714 7.009 6.512 2.272 3.475 3.68 8.065 3.606 14.107-.074 6.045-1.571 10.642-3.894 14.126-1.787 2.68-4.093 4.744-6.697 6.308-.466.28-1.047.288-1.521.022s-.767-.765-.767-1.306v-9.774h-9.553c-.833 0-1.508-.672-1.508-1.5v-7c0-.828.675-1.5 1.508-1.5h9.553zm3.017 2.816v17.38c0 .828-.676 1.5-1.509 1.5h-9.553v4h9.553c.833 0 1.509.672 1.509 1.5v8.386c1.312-1.073 2.476-2.329 3.453-3.794 1.958-2.936 3.324-6.951 3.392-12.505.068-5.542-1.219-9.53-3.118-12.435-1.029-1.574-2.287-2.908-3.727-4.032z" fill="#3f80e6" fill-rule="evenodd"/></svg>