<svg fill="none" height="95" viewBox="0 0 217 189" width="109" xmlns="http://www.w3.org/2000/svg"><path d="m51.6943 32.5h138.6797v144h-138.6797z" fill="#4d8ef4"/><path clip-rule="evenodd" d="m30.608 123.159c6.8797-3.158 15.3709-3.283 21.1154-2.357 1.4472.233 2.8106-.745 3.0452-2.185s-.7485-2.797-2.1958-3.03c-6.3775-1.029-16.031-.971-24.189 2.775-4.1236 1.893-7.9216 4.757-10.6562 8.943-2.7398 4.194-4.2992 9.544-4.2172 16.215.0819 6.664 1.7424 11.996 4.5249 16.171 2.778 4.169 6.5692 7.028 10.6684 8.921 8.1125 3.747 17.6154 3.808 23.878 2.776 1.4465-.238 2.4249-1.598 2.1855-3.038-.2395-1.439-1.6063-2.413-3.0527-2.175-5.6042.924-13.9398.802-20.7756-2.356-3.375-1.558-6.3355-3.832-8.4788-7.048-2.1388-3.209-3.5694-7.516-3.6407-13.315-.0711-5.792 1.2756-10.081 3.3598-13.271 2.0895-3.199 5.0336-5.467 8.4288-7.026z" fill="#4d8ef4" fill-rule="evenodd"/><path d="m163.241 145.5h37.182v41h-37.182z" fill="#75a6f6"/><path d="m163.241 97.5h37.182v41h-37.182z" fill="#75a6f6"/><path d="m163.241 1.5h37.182v41h-37.182z" fill="#75a6f6"/><path d="m163.241 49.5h37.182v41h-37.182z" fill="#75a6f6"/><path d="m163.961 145.5h-125.9295v41h125.9295z" fill="#e9f1ff"/><path d="m124.69 155.999h-76.6917v20.415h76.6917z" fill="#4d8ef4"/><path d="m151.827 170.582h-9.631v2.916h9.631z" fill="#4d8ef4"/><path d="m151.827 158.917h-9.631v2.916h9.631z" fill="#4d8ef4"/><path d="m151.827 164.75h-9.631v2.917h9.631z" fill="#4d8ef4"/><path d="m138.45 158.917h-9.631v2.916h9.631z" fill="#4d8ef4"/><path d="m138.45 164.75h-9.631v2.917h9.631z" fill="#4d8ef4"/><path d="m138.45 170.582h-9.631v2.917h9.631z" fill="#4d8ef4"/><path d="m112.301 161.832h-59.5832v9.332h59.5832z" fill="#fdfeff"/><path d="m117.638 168.554c1.319 0 2.387-1.113 2.387-2.486s-1.068-2.486-2.387-2.486c-1.318 0-2.387 1.113-2.387 2.486s1.069 2.486 2.387 2.486z" fill="#fdfeff"/><path d="m164.246 49.5h-126.6208v41h126.6208z" fill="#e9f1ff"/><path d="m151.827 74.8032h-9.631v2.9353h9.631z" fill="#4d8ef4"/><path d="m151.828 63.0622h-9.631v2.9353h9.631z" fill="#4d8ef4"/><path d="m151.828 68.9331h-9.631v2.9352h9.631z" fill="#4d8ef4"/><path d="m138.451 63.0622h-9.631v2.9353h9.631z" fill="#4d8ef4"/><path d="m138.451 68.9331h-9.631v2.9352h9.631z" fill="#4d8ef4"/><path d="m138.451 74.8028h-9.631v2.9352h9.631z" fill="#4d8ef4"/><path d="m122.92 60.127h-10.619v20.5466h10.619z" fill="#4d8ef4"/><path d="m106.991 60.127h-10.6184v20.5466h10.6184z" fill="#4d8ef4"/><path d="m91.0637 60.127h-10.6189v20.5466h10.6189z" fill="#4d8ef4"/><path d="m75.135 60.127h-10.6189v20.5466h10.6189z" fill="#4d8ef4"/><path d="m59.207 60.127h-10.6189v20.5465h10.6189z" fill="#4d8ef4"/><path d="m117.638 68.0669c1.319 0 2.388-1.1202 2.388-2.5021s-1.069-2.5022-2.388-2.5022c-1.318 0-2.387 1.1203-2.387 2.5022s1.069 2.5021 2.387 2.5021z" fill="#fdfeff"/><path d="m117.638 76.2857c1.319 0 2.388-1.1202 2.388-2.5021s-1.069-2.5022-2.388-2.5022c-1.318 0-2.387 1.1203-2.387 2.5022s1.069 2.5021 2.387 2.5021z" fill="#fdfeff"/><path d="m101.71 68.0669c1.319 0 2.388-1.1202 2.388-2.5021s-1.069-2.5022-2.388-2.5022c-1.318 0-2.3872 1.1203-2.3872 2.5022s1.0692 2.5021 2.3872 2.5021z" fill="#fdfeff"/><path d="m69.8537 68.0669c1.3185 0 2.3874-1.1202 2.3874-2.5021s-1.0689-2.5022-2.3874-2.5022-2.3874 1.1203-2.3874 2.5022 1.0689 2.5021 2.3874 2.5021z" fill="#fdfeff"/><path d="m101.71 76.2857c1.319 0 2.388-1.1202 2.388-2.5021s-1.069-2.5022-2.388-2.5022c-1.318 0-2.3872 1.1203-2.3872 2.5022s1.0692 2.5021 2.3872 2.5021z" fill="#fdfeff"/><path d="m85.7817 76.2857c1.3185 0 2.3873-1.1202 2.3873-2.5021s-1.0688-2.5022-2.3873-2.5022-2.3874 1.1203-2.3874 2.5022 1.0689 2.5021 2.3874 2.5021z" fill="#fdfeff"/><path d="m69.8537 76.2857c1.3185 0 2.3874-1.1202 2.3874-2.5021s-1.0689-2.5022-2.3874-2.5022-2.3874 1.1203-2.3874 2.5022 1.0689 2.5021 2.3874 2.5021z" fill="#fdfeff"/><path d="m53.925 76.2857c1.3185 0 2.3873-1.1202 2.3873-2.5021s-1.0688-2.5022-2.3873-2.5022-2.3874 1.1203-2.3874 2.5022 1.0689 2.5021 2.3874 2.5021z" fill="#fdfeff"/><path d="m164.246 1.5h-126.6208v41h126.6208z" fill="#e9f1ff"/><path d="m152.028 12.1807h-103.8078v20.5094h103.8078z" fill="#4d8ef4"/><path d="m126.866 17.7888h-74.4378v9.4036h74.4378z" fill="#fdfeff"/><path d="m132.012 24.994c1.319 0 2.388-1.1202 2.388-2.5021s-1.069-2.5022-2.388-2.5022c-1.318 0-2.387 1.1203-2.387 2.5022s1.069 2.5021 2.387 2.5021z" fill="#fdfeff"/><path d="m138.914 24.994c1.318 0 2.387-1.1202 2.387-2.5021s-1.069-2.5022-2.387-2.5022c-1.319 0-2.388 1.1203-2.388 2.5022s1.069 2.5021 2.388 2.5021z" fill="#fdfeff"/><path d="m145.815 24.994c1.318 0 2.387-1.1202 2.387-2.5021s-1.069-2.5022-2.387-2.5022c-1.319 0-2.388 1.1203-2.388 2.5022s1.069 2.5021 2.388 2.5021z" fill="#fdfeff"/><path d="m164.246 97.5h-126.6208v41h126.6208z" fill="#e9f1ff"/><path d="m77.0896 108.066h-28.5015v20.547h28.5015z" fill="#4d8ef4"/><path d="m114.458 108.067h-28.5012v20.546h28.5012z" fill="#4d8ef4"/><path d="m151.826 108.067h-28.501v20.546h28.501z" fill="#4d8ef4"/><g fill="#fdfeff"><path d="m99.9399 115.419c1.3181 0 2.3871-1.12 2.3871-2.502s-1.069-2.502-2.3871-2.502c-1.3185 0-2.3874 1.12-2.3874 2.502s1.0689 2.502 2.3874 2.502z"/><path d="m137.696 115.419c1.318 0 2.387-1.12 2.387-2.502s-1.069-2.502-2.387-2.502c-1.319 0-2.388 1.12-2.388 2.502s1.069 2.502 2.388 2.502z"/><path d="m62.184 115.419c1.3185 0 2.3874-1.12 2.3874-2.502s-1.0689-2.502-2.3874-2.502-2.3874 1.12-2.3874 2.502 1.0689 2.502 2.3874 2.502z"/><path d="m52.127 119.221h8.849v5.87h-8.849z"/><path d="m54.4871 117.46h4.1295v6.458h-4.1295z"/><path d="m64.5159 119.221h8.849v5.87h-8.849z"/><path d="m66.8757 117.46h4.1296v6.458h-4.1296z"/><path d="m89.2927 119.221h8.8491v5.87h-8.8491z"/><path d="m91.6528 117.46h4.1296v6.458h-4.1296z"/><path d="m101.682 119.221h8.849v5.87h-8.849z"/><path d="m104.042 117.46h4.129v6.458h-4.129z"/><path d="m127.05 119.221h8.849v5.87h-8.849z"/><path d="m129.409 117.46h4.129v6.458h-4.129z"/><path d="m139.438 119.221h8.849v5.87h-8.849z"/><path d="m141.798 117.46h4.129v6.458h-4.129z"/></g><path clip-rule="evenodd" d="m197.485 76.6425c-6.879-3.1584-15.371-3.2835-21.115-2.357-1.447.2334-2.811-.7449-3.045-2.1851-.235-1.4402.748-2.7969 2.195-3.0303 6.378-1.0286 16.031-.9704 24.189 2.775 4.124 1.8931 7.922 4.7571 10.657 8.9434 2.739 4.1943 4.299 9.5434 4.217 16.2152-.082 6.6643-1.742 11.9953-4.525 16.1713-2.778 4.168-6.569 7.027-10.668 8.92-8.113 3.747-17.616 3.808-23.878 2.776-1.447-.238-2.425-1.598-2.186-3.037.24-1.44 1.606-2.413 3.053-2.175 5.604.923 13.94.801 20.775-2.356 3.375-1.559 6.336-3.832 8.479-7.048 2.139-3.21 3.57-7.516 3.641-13.3158.071-5.7917-1.276-10.0805-3.36-13.2712-2.089-3.1987-5.034-5.4667-8.429-7.0255z" fill="#3f80e6" fill-rule="evenodd"/><path clip-rule="evenodd" d="m36.118 1.5c0-.828427.6749-1.5 1.5074-1.5h162.7976c.833 0 1.507.671573 1.507 1.5v41c0 .8284-.674 1.5-1.507 1.5h-8.542v4h8.542c.833 0 1.507.6716 1.507 1.5v21.7681c3.722 1.9741 7.142 4.7884 9.7 8.7029 2.926 4.4793 4.545 10.1295 4.46 17.0511-.085 6.9089-1.81 12.5319-4.776 16.9819-2.516 3.775-5.806 6.529-9.384 8.491v16.005c0 .828-.674 1.5-1.507 1.5h-8.542v4h8.542c.833 0 1.507.672 1.507 1.5v41c0 .828-.674 1.5-1.507 1.5h-162.3913c-.8325 0-1.5074-.672-1.5074-1.5v-13.857c-2.8446-.549-5.7179-1.406-8.4551-2.671-4.3046-1.988-8.3318-5.012-11.2901-9.452-2.9653-4.449-4.691-10.072-4.7759-16.981-.0851-6.922 1.5347-12.572 4.4607-17.051 2.9178-4.467 6.9582-7.5 11.2885-9.488 2.7011-1.24 5.5433-2.089 8.3656-2.637v-16.863c0-.8284.6749-1.5 1.5074-1.5h12.5615v-4h-12.5615c-.8325 0-1.5074-.6716-1.5074-1.5v-41c0-.8284.6749-1.5 1.5074-1.5h12.5615v-4h-12.5615c-.8325 0-1.5074-.6716-1.5074-1.5zm3.0148 1.5v38h12.5615c.8325 0 1.5074.6716 1.5074 1.5v7c0 .8284-.6749 1.5-1.5074 1.5h-12.5615v38h12.5615c.8325 0 1.5074.6716 1.5074 1.5v7c0 .8284-.6749 1.5-1.5074 1.5h-12.5615v16.617c0 .734-.5343 1.361-1.2624 1.48-3.0181.495-6.0403 1.334-8.8551 2.627-3.9169 1.798-7.4724 4.493-10.0238 8.399-2.5536 3.909-4.0527 8.957-3.9738 15.379.0789 6.419 1.6742 11.459 4.2739 15.36 2.5978 3.898 6.1531 6.591 10.0468 8.389 2.8508 1.317 5.9017 2.164 8.9353 2.655.7295.118 1.2654.745 1.2654 1.48v13.614h159.3769v-38h-8.542c-.833 0-1.508-.672-1.508-1.5v-7c0-.828.675-1.5 1.508-1.5h8.542v-15.406c0-.563.316-1.079.82-1.335 3.507-1.787 6.687-4.344 9.066-7.913 2.6-3.901 4.195-8.942 4.274-15.3606.079-6.4221-1.421-11.4701-3.974-15.3794-2.404-3.68-5.699-6.2841-9.346-8.077-.515-.2528-.84-.7741-.84-1.3449v-21.1841h-8.542c-.833 0-1.508-.6716-1.508-1.5v-7c0-.8284.675-1.5 1.508-1.5h8.542v-38zm160.5732 73.9332c.486-.2621 1.078-.2377 1.542.0635 2.312 1.5036 4.345 3.4274 5.93 5.8538 2.27 3.4755 3.677 8.0652 3.603 14.107-.074 6.0455-1.57 10.6425-3.892 14.1265-1.534 2.303-3.453 4.153-5.617 5.621-.461.313-1.059.347-1.553.087s-.803-.77-.803-1.326v-16.466h-8.542c-.833 0-1.508-.6716-1.508-1.5v-7c0-.8284.675-1.5 1.508-1.5h8.542v-10.7475c0-.5507.303-1.0572.79-1.3193zm2.224 4.3676v9.1992c0 .8284-.674 1.5-1.507 1.5h-8.542v4h8.542c.833 0 1.507.6716 1.507 1.5v14.833c.907-.862 1.727-1.828 2.447-2.907 1.956-2.936 3.321-6.951 3.39-12.5052.068-5.5416-1.219-9.5294-3.117-12.4353-.781-1.1961-1.695-2.253-2.72-3.1847zm-163.343 38.5262c.3457.285.5458.709.5458 1.155v16.018h12.5615c.8325 0 1.5074.672 1.5074 1.5v7c0 .828-.6749 1.5-1.5074 1.5h-12.1552v19.023c0 .446-.1997.869-.5447 1.154s-.7997.402-1.2404.32c-2.5263-.471-5.0644-1.215-7.4496-2.317-3.5808-1.654-6.777-4.093-9.1004-7.58-2.3216-3.483-3.8175-8.081-3.8918-14.126-.0742-6.042 1.3329-10.631 3.6032-14.107 2.2726-3.479 5.459-5.916 9.0612-7.57 2.3517-1.08 4.8611-1.816 7.3683-2.288.441-.083.8964.033 1.2421.318zm-2.469 3.017c-1.6877.415-3.3319.967-4.8784 1.677-3.1883 1.464-5.8901 3.563-7.7965 6.481-1.8982 2.906-3.1844 6.894-3.1163 12.435.0682 5.554 1.4335 9.57 3.3897 12.505 1.9631 2.946 4.6878 5.053 7.857 6.517 1.5739.727 3.2429 1.287 4.9508 1.705v-18.664c0-.828.6749-1.5 1.5074-1.5h12.1552v-4h-12.5615c-.8325 0-1.5074-.672-1.5074-1.5z" fill="#3f80e6" fill-rule="evenodd"/></svg>