<svg fill="none" height="95" viewBox="0 0 217 188" width="109" xmlns="http://www.w3.org/2000/svg"><path d="m50.7117 32.5h138.5793v144h-138.5793z" fill="#4d8ef4"/><path clip-rule="evenodd" d="m18.5946 121.474c6.8746-3.159 15.3597-3.284 21.1-2.357 1.4462.233 2.8086-.745 3.043-2.186.2344-1.44-.7479-2.796-2.1942-3.03-6.3729-1.028-16.0193-.97-24.1715 2.775-4.1206 1.893-7.91579 4.757-10.64841 8.944-2.73783 4.194-4.29609 9.543-4.21418 16.215.08181 6.664 1.7411 11.995 4.52158 16.171 2.77608 4.168 6.56451 7.027 10.66071 8.92 8.1066 3.747 17.6026 3.808 23.8607 2.776 1.4454-.238 2.4232-1.598 2.1839-3.037-.2393-1.44-1.6051-2.413-3.0505-2.175-5.6001.923-13.9296.801-20.7605-2.356-3.3726-1.559-6.3309-3.832-8.4726-7.048-2.13735-3.21-3.56692-7.516-3.63812-13.316-.0711-5.791 1.27462-10.08 3.35742-13.271 2.0879-3.199 5.0299-5.467 8.4227-7.025z" fill="#4d8ef4" fill-rule="evenodd"/><path d="m163.182 145.5h37.155v41h-37.155z" fill="#75a6f6"/><path d="m163.182 97.5h37.155v41h-37.155z" fill="#75a6f6"/><path d="m163.182 1.5h37.155v41h-37.155z" fill="#75a6f6"/><path d="m163.182 49.5h37.155v41h-37.155z" fill="#75a6f6"/><path d="m164.186 145.5h-125.5246v41h125.5246z" fill="#e9f1ff"/><path d="m125.008 156.067h-76.6359v20.546h76.6359z" fill="#4d8ef4"/><path d="m152.125 170.744h-9.624v2.935h9.624z" fill="#4d8ef4"/><path d="m152.126 159.003h-9.624v2.936h9.624z" fill="#4d8ef4"/><path d="m152.126 164.874h-9.624v2.935h9.624z" fill="#4d8ef4"/><path d="m138.759 159.003h-9.624v2.936h9.624z" fill="#4d8ef4"/><path d="m138.759 164.874h-9.624v2.935h9.624z" fill="#4d8ef4"/><path d="m138.759 170.744h-9.624v2.935h9.624z" fill="#4d8ef4"/><path d="m112.628 161.938h-59.5399v9.392h59.5399z" fill="#fdfeff"/><path d="m117.962 168.703c1.318 0 2.386-1.121 2.386-2.502 0-1.382-1.068-2.503-2.386-2.503-1.317 0-2.386 1.121-2.386 2.503 0 1.381 1.069 2.502 2.386 2.502z" fill="#fdfeff"/><path d="m164.252 49.5h-125.8389v41h125.8389z" fill="#e9f1ff"/><g fill="#4d8ef4"><path d="m152.126 74.5797h-9.624v2.9164h9.624z"/><path d="m152.126 62.9141h-9.624v2.9163h9.624z"/><path d="m152.126 68.7472h-9.624v2.9164h9.624z"/><path d="m138.759 62.9141h-9.624v2.9163h9.624z"/><path d="m138.759 68.7472h-9.624v2.9164h9.624z"/><path d="m138.759 74.5792h-9.624v2.9164h9.624z"/><path d="m123.24 59.9977h-10.611v20.4146h10.611z"/><path d="m107.323 59.9977h-10.6113v20.4146h10.6113z"/><path d="m91.4066 59.9977h-10.6112v20.4146h10.6112z"/><path d="m75.4893 59.9977h-10.6111v20.4146h10.6111z"/><path d="m59.5731 59.9977h-10.6112v20.4146h10.6112z"/></g><path d="m117.962 67.8867c1.317 0 2.385-1.1131 2.385-2.4861 0-1.3731-1.068-2.4861-2.385-2.4861-1.318 0-2.386 1.113-2.386 2.4861 0 1.373 1.068 2.4861 2.386 2.4861z" fill="#fdfeff"/><path d="m117.962 76.0526c1.317 0 2.385-1.113 2.385-2.486 0-1.3731-1.068-2.4861-2.385-2.4861-1.318 0-2.386 1.113-2.386 2.4861 0 1.373 1.068 2.486 2.386 2.486z" fill="#fdfeff"/><path d="m102.045 67.8867c1.317 0 2.385-1.1131 2.385-2.4861 0-1.3731-1.068-2.4861-2.385-2.4861-1.318 0-2.3861 1.113-2.3861 2.4861 0 1.373 1.0681 2.4861 2.3861 2.4861z" fill="#fdfeff"/><path d="m70.2111 67.8867c1.3175 0 2.3856-1.1131 2.3856-2.4861 0-1.3731-1.0681-2.4861-2.3856-2.4861-1.3176 0-2.3857 1.113-2.3857 2.4861 0 1.373 1.0681 2.4861 2.3857 2.4861z" fill="#fdfeff"/><path d="m102.045 76.0526c1.317 0 2.385-1.113 2.385-2.486 0-1.3731-1.068-2.4861-2.385-2.4861-1.318 0-2.3861 1.113-2.3861 2.4861 0 1.373 1.0681 2.486 2.3861 2.486z" fill="#fdfeff"/><path d="m86.1281 76.0526c1.3175 0 2.3856-1.113 2.3856-2.486 0-1.3731-1.0681-2.4861-2.3856-2.4861-1.3176 0-2.3857 1.113-2.3857 2.4861 0 1.373 1.0681 2.486 2.3857 2.486z" fill="#fdfeff"/><path d="m70.2111 76.0526c1.3175 0 2.3856-1.113 2.3856-2.486 0-1.3731-1.0681-2.4861-2.3856-2.4861-1.3176 0-2.3857 1.113-2.3857 2.4861 0 1.373 1.0681 2.486 2.3857 2.486z" fill="#fdfeff"/><path d="m54.2946 76.0526c1.3175 0 2.3856-1.113 2.3856-2.486 0-1.3731-1.0681-2.4861-2.3856-2.4861-1.3176 0-2.3857 1.113-2.3857 2.4861 0 1.373 1.0681 2.486 2.3857 2.486z" fill="#fdfeff"/><path d="m38.4134 1.5h125.8386v41h-125.8386z" fill="#e9f1ff"/><path d="m50.5395 26.5804h9.6241v2.9164h-9.6241z" fill="#4d8ef4"/><path d="m50.5393 14.9152h9.624v2.9164h-9.624z" fill="#4d8ef4"/><path d="m50.5395 20.7484h9.6241v2.9164h-9.6241z" fill="#4d8ef4"/><path d="m63.9062 14.9153h9.6241v2.9163h-9.6241z" fill="#4d8ef4"/><path d="m63.906 20.7484h9.624v2.9164h-9.624z" fill="#4d8ef4"/><path d="m63.906 26.5804h9.624v2.9164h-9.624z" fill="#4d8ef4"/><path d="m79.425 11.999h10.6111v20.4146h-10.6111z" fill="#4d8ef4"/><path d="m95.342 11.999h10.611v20.4146h-10.611z" fill="#4d8ef4"/><path d="m111.259 11.999h10.611v20.4146h-10.611z" fill="#4d8ef4"/><path d="m127.176 11.999h10.611v20.4146h-10.611z" fill="#4d8ef4"/><path d="m143.092 11.999h10.611v20.4146h-10.611z" fill="#4d8ef4"/><path d="m84.7035 19.8878c-1.3176 0-2.3857-1.113-2.3857-2.486 0-1.3731 1.0681-2.4861 2.3857-2.4861 1.3175 0 2.3856 1.113 2.3856 2.4861 0 1.373-1.0681 2.486-2.3856 2.486z" fill="#fdfeff"/><path d="m84.7032 28.0538c-1.3175 0-2.3856-1.113-2.3856-2.486 0-1.3731 1.0681-2.4861 2.3856-2.4861 1.3176 0 2.3857 1.113 2.3857 2.4861 0 1.373-1.0681 2.486-2.3857 2.486z" fill="#fdfeff"/><path d="m100.62 19.8878c-1.3176 0-2.3857-1.113-2.3857-2.486 0-1.3731 1.0681-2.4861 2.3857-2.4861 1.318 0 2.386 1.113 2.386 2.4861 0 1.373-1.068 2.486-2.386 2.486z" fill="#fdfeff"/><path d="m132.453 19.8878c-1.317 0-2.385-1.113-2.385-2.486 0-1.3731 1.068-2.4861 2.385-2.4861 1.318 0 2.386 1.113 2.386 2.4861 0 1.373-1.068 2.486-2.386 2.486z" fill="#fdfeff"/><path d="m100.62 28.0538c-1.3176 0-2.3857-1.113-2.3857-2.486 0-1.3731 1.0681-2.4861 2.3857-2.4861 1.318 0 2.386 1.113 2.386 2.4861 0 1.373-1.068 2.486-2.386 2.486z" fill="#fdfeff"/><path d="m116.537 28.0538c-1.318 0-2.386-1.113-2.386-2.486 0-1.3731 1.068-2.4861 2.386-2.4861s2.386 1.113 2.386 2.4861c0 1.373-1.068 2.486-2.386 2.486z" fill="#fdfeff"/><path d="m132.453 28.0538c-1.317 0-2.385-1.113-2.385-2.486 0-1.3731 1.068-2.4861 2.385-2.4861 1.318 0 2.386 1.113 2.386 2.4861 0 1.373-1.068 2.486-2.386 2.486z" fill="#fdfeff"/><path d="m148.37 28.0538c-1.318 0-2.386-1.113-2.386-2.486 0-1.3731 1.068-2.4861 2.386-2.4861s2.386 1.113 2.386 2.4861c0 1.373-1.068 2.486-2.386 2.486z" fill="#fdfeff"/><path d="m164.189 97.5h-125.8387v41h125.8387z" fill="#e9f1ff"/><path d="m152.264 108.144h-103.7325v20.377h103.7325z" fill="#4d8ef4"/><path d="m127.12 113.717h-74.3839v9.343h74.3839z" fill="#fdfeff"/><path d="m132.262 120.876c1.318 0 2.386-1.113 2.386-2.486s-1.068-2.486-2.386-2.486c-1.317 0-2.386 1.113-2.386 2.486s1.069 2.486 2.386 2.486z" fill="#fdfeff"/><path d="m139.158 120.876c1.318 0 2.386-1.113 2.386-2.486s-1.068-2.486-2.386-2.486c-1.317 0-2.386 1.113-2.386 2.486s1.069 2.486 2.386 2.486z" fill="#fdfeff"/><path d="m146.055 120.876c1.317 0 2.385-1.113 2.385-2.486s-1.068-2.486-2.385-2.486c-1.318 0-2.386 1.113-2.386 2.486s1.068 2.486 2.386 2.486z" fill="#fdfeff"/><path clip-rule="evenodd" d="m198.405 74.6425c-6.874-3.1584-15.359-3.2835-21.1-2.357-1.446.2334-2.808-.7449-3.043-2.1851-.234-1.4402.748-2.7969 2.195-3.0303 6.372-1.0286 16.019-.9704 24.171 2.775 4.121 1.8931 7.916 4.7571 10.649 8.9434 2.737 4.1943 4.296 9.5434 4.214 16.2152-.082 6.6643-1.741 11.9953-4.522 16.1713-2.776 4.168-6.564 7.027-10.661 8.92-8.106 3.747-17.602 3.808-23.86 2.776-1.446-.238-2.423-1.598-2.184-3.037.239-1.44 1.605-2.413 3.05-2.175 5.6.923 13.93.801 20.761-2.356 3.372-1.559 6.331-3.832 8.472-7.048 2.138-3.21 3.567-7.516 3.639-13.3158.071-5.7917-1.275-10.0805-3.358-13.2712-2.088-3.1987-5.03-5.4667-8.423-7.0255z" fill="#3f80e6" fill-rule="evenodd"/><path clip-rule="evenodd" d="m36.9071 1.5c0-.828427.6744-1.5 1.5063-1.5h161.9236c.832 0 1.506.671573 1.506 1.5v41c0 .8284-.674 1.5-1.506 1.5h-9.54v4h9.54c.832 0 1.506.6716 1.506 1.5v19.2587c4.105 1.9891 7.912 4.9471 10.696 9.2123 2.924 4.4793 4.543 10.1295 4.458 17.0511-.085 6.9089-1.809 12.5319-4.773 16.9819-2.749 4.128-6.421 7.033-10.381 9.018v17.478c0 .828-.674 1.5-1.506 1.5h-9.54v4h9.54c.832 0 1.506.672 1.506 1.5v41c0 .828-.674 1.5-1.506 1.5h-161.6757c-.8319 0-1.5063-.672-1.5063-1.5v-14.878c-6.1629.49-14.0923-.097-21.0975-3.335-4.3015-1.988-8.32567-5.013-11.2819-9.452-2.96314-4.45-4.687592-10.073-4.77241466-16.982-.08497624-6.921 1.53356466-12.572 4.45743466-17.051 2.91572-4.467 6.95328-7.5 11.28028-9.488 6.9558-3.196 14.8807-3.804 21.1033-3.349v-14.465c0-.8284.6744-1.5 1.5063-1.5h10.8549v-4h-10.7922c-.8319 0-1.5063-.6716-1.5063-1.5v-41c0-.8284.6744-1.5 1.5063-1.5h10.7922v-4h-10.792c-.8319 0-1.5063-.6716-1.5063-1.5zm3.0126 1.5v38h10.792c.8319 0 1.5063.6716 1.5063 1.5v7c0 .8284-.6744 1.5-1.5063 1.5h-10.7922v38h10.7922c.8319 0 1.5063.6716 1.5063 1.5v7c0 .8284-.6744 1.5-1.5063 1.5h-10.8549v14.607c0 .426-.182.832-.5004 1.117-.3185.284-.7434.42-1.1687.374-6.0996-.66-14.251-.245-21.1847 2.94-3.9141 1.798-7.46701 4.493-10.01653 8.399-2.55178 3.909-4.04977 8.957-3.97092 15.379.0788 6.419 1.67292 11.46 4.27075 15.361 2.59591 3.898 6.1486 6.59 10.0395 8.389 6.9934 3.232 15.1517 3.612 21.1603 2.912.4271-.05.8552.084 1.1765.369.3212.284.505.692.505 1.12v15.033h158.6634v-38h-9.54c-.832 0-1.507-.672-1.507-1.5v-7c0-.828.675-1.5 1.507-1.5h9.54v-16.918c0-.583.339-1.114.87-1.36 3.881-1.798 7.423-4.487 10.013-8.376 2.598-3.901 4.192-8.942 4.27-15.3606.079-6.4221-1.419-11.4701-3.97-15.3794-2.55-3.9058-6.103-6.6006-10.017-8.3989-.092-.0423-.184-.0841-.277-.1254-.541-.2419-.889-.7777-.889-1.3686v-18.7131h-9.54c-.832 0-1.507-.6716-1.507-1.5v-7c0-.8284.675-1.5 1.507-1.5h9.54v-38zm158.9113 72.6376c0-.5361.287-1.0315.753-1.2994.467-.2678 1.041-.2675 1.507.0009 2.754 1.5864 5.174 3.7136 7 6.5114 2.269 3.4755 3.675 8.0652 3.601 14.107-.075 6.0455-1.569 10.6425-3.889 14.1265-1.785 2.68-4.088 4.744-6.688 6.308-.465.28-1.045.288-1.518.022-.474-.266-.766-.765-.766-1.306v-15.108h-9.54c-.832 0-1.507-.6716-1.507-1.5v-7c0-.8284.675-1.5 1.507-1.5h9.54zm3.012 2.8164v12.046c0 .8284-.674 1.5-1.506 1.5h-9.54v4h9.54c.832 0 1.506.6716 1.506 1.5v13.72c1.311-1.073 2.473-2.329 3.449-3.794 1.955-2.936 3.319-6.951 3.387-12.5052.068-5.5416-1.217-9.5294-3.114-12.4353-1.027-1.5734-2.284-2.9071-3.722-4.0315zm-164.9988 41.821c-5.3296-.472-12.073.013-17.6186 2.561-3.1859 1.463-5.8857 3.562-7.7908 6.481-1.89682 2.905-3.18211 6.893-3.11408 12.435.06818 5.554 1.43247 9.569 3.38728 12.505 1.9617 2.946 4.6844 5.053 7.8514 6.516 5.6027 2.59 12.3575 3.043 17.5956 2.534v-17.807c0-.828.6744-1.5 1.5063-1.5h10.5441v-4h-10.8549c-.8319 0-1.5063-.672-1.5063-1.5zm-18.8806-.163c6.6971-3.077 14.7385-3.395 20.5721-2.675.7545.093 1.3211.732 1.3211 1.489v18.074h10.8549c.8319 0 1.5063.672 1.5063 1.5v7c0 .828-.6744 1.5-1.5063 1.5h-10.5441v17.643c0 .751-.5578 1.386-1.3053 1.486-5.734.769-13.8002.495-20.5712-2.634-3.5782-1.654-6.7721-4.094-9.09381-7.58-2.31986-3.484-3.81472-8.081-3.88893-14.126-.07417-6.042 1.33197-10.632 3.60063-14.107 2.27091-3.479 5.45501-5.917 9.05461-7.57z" fill="#3f80e6" fill-rule="evenodd"/></svg>