<svg fill="none" height="25" viewBox="0 0 190 50" width="95" xmlns="http://www.w3.org/2000/svg"><path d="m185.389 1h-142.7776c-.8255.00078-1.6168.34884-2.2003.96768-.5834.61884-.9111 1.45783-.9111 2.33262v40.4023c0 .433.0805.8618.2368 1.2619.1564.4.3856.7635.6745 1.0697s.6319.5491 1.0094.7148.7821.251 1.1907.251h142.7776c.408 0 .813-.0853 1.19-.251.378-.1657.721-.4086 1.01-.7148s.518-.6697.674-1.0697c.157-.4001.237-.8289.237-1.2619v-40.3964c.001-.43365-.079-.86321-.235-1.26412-.156-.4009-.385-.76527-.674-1.07231-.289-.30705-.632-.55075-1.01-.71715s-.783-.25223-1.192-.25262z" fill="#75a6f6"/><path d="m144.266 1.0002c-25.678.03202-115.7025.1572-138.55219.1834-.55067-.00422-1.09672.1022-1.60685.31314s-.97428.52222-1.3658.91604c-.39152.39381-.7027.8624-.91569 1.37882-.21299.51643-.3236 1.07052-.32547 1.63053v37.96647c.00187.5597.11238 1.1136.32519 1.6299.21282.5162.52374.9846.91495 1.3784.39122.3938.85503.7052 1.36483.9163s1.05554.3178 1.60598.314c22.96415.0494 111.95005.291 138.55205.3725.553.0062 1.101-.0988 1.614-.309.512-.2101.978-.5212 1.372-.9154s.707-.8637.922-1.3815.326-1.0736.329-1.6355v-38.51666c-.003-.56154-.115-1.11692-.33-1.63433-.214-.5174-.527-.98662-.921-1.3807-.393-.39409-.859-.7053-1.371-.91576s-1.06-.316029-1.612-.31065z" fill="#cfe1fc"/><path d="m20.8037 15.6987c0 2.8944-2.3463 5.2408-5.2407 5.2408s-5.2407-2.3464-5.2407-5.2408c0-2.8943 2.3463-5.2407 5.2407-5.2407s5.2407 2.3464 5.2407 5.2407z" fill="#89ff40"/><path d="m36.7754 15.6987c0 2.8944-2.3464 5.2408-5.2407 5.2408-2.8944 0-5.2408-2.3464-5.2408-5.2408 0-2.8943 2.3464-5.2407 5.2408-5.2407 2.8943 0 5.2407 2.3464 5.2407 5.2407z" fill="#89ff40"/><path d="m52.7471 15.6987c0 2.8944-2.3464 5.2408-5.2408 5.2408-2.8943 0-5.2407-2.3464-5.2407-5.2408 0-2.8943 2.3464-5.2407 5.2407-5.2407 2.8944 0 5.2408 2.3464 5.2408 5.2407z" fill="#e4ff40"/><path d="m68.7188 15.6987c0 2.8944-2.3464 5.2408-5.2408 5.2408-2.8943 0-5.2407-2.3464-5.2407-5.2408 0-2.8943 2.3464-5.2407 5.2407-5.2407 2.8944 0 5.2408 2.3464 5.2408 5.2407z" fill="#ffa740"/><path d="m84.6904 15.6987c0 2.8944-2.3463 5.2408-5.2407 5.2408s-5.2407-2.3464-5.2407-5.2408c0-2.8943 2.3463-5.2407 5.2407-5.2407s5.2407 2.3464 5.2407 5.2407z" fill="#e4ff40"/><path clip-rule="evenodd" d="m0 5.5c0-3.03757 2.46243-5.5 5.5-5.5h179c3.038 0 5.5 2.46243 5.5 5.5v39c0 3.0376-2.462 5.5-5.5 5.5h-179c-3.03756 0-5.5-2.4624-5.5-5.5zm5.5-2.5c-1.38071 0-2.5 1.11929-2.5 2.5v39c0 1.3807 1.11929 2.5 2.5 2.5h179c1.381 0 2.5-1.1193 2.5-2.5v-39c0-1.38071-1.119-2.5-2.5-2.5z" fill="#3f80e6" fill-rule="evenodd"/></svg>