<svg fill="none" height="95" viewBox="0 0 218 188" width="109" xmlns="http://www.w3.org/2000/svg"><path d="m50.5754 32.5h138.7706v144h-138.7706z" fill="#4d8ef4"/><path d="m163.201 145.5h37.206v41h-37.206z" fill="#75a6f6"/><path d="m163.201 97.5h37.206v41h-37.206z" fill="#75a6f6"/><path d="m163.201 1.5h37.206v41h-37.206z" fill="#75a6f6"/><path d="m163.201 49.5h37.206v41h-37.206z" fill="#75a6f6"/><path d="m165.212 145.5h-126.7037v41h126.7037z" fill="#e9f1ff"/><path d="m125.7 156.149h-76.7422v20.546h76.7422z" fill="#4d8ef4"/><path d="m152.855 170.825h-9.638v2.935h9.638z" fill="#4d8ef4"/><path d="m152.855 159.083h-9.638v2.936h9.638z" fill="#4d8ef4"/><path d="m152.855 164.954h-9.638v2.935h9.638z" fill="#4d8ef4"/><path d="m139.469 159.083h-9.637v2.936h9.637z" fill="#4d8ef4"/><path d="m139.469 164.954h-9.637v2.935h9.637z" fill="#4d8ef4"/><path d="m139.469 170.824h-9.637v2.935h9.637z" fill="#4d8ef4"/><path d="m113.303 162.019h-59.6228v9.393h59.6228z" fill="#89ff40"/><path d="m118.644 168.785c1.319 0 2.389-1.121 2.389-2.503 0-1.381-1.07-2.502-2.389-2.502s-2.389 1.121-2.389 2.502c0 1.382 1.07 2.503 2.389 2.503z" fill="#e4ff40"/><path d="m165.212 97.5h-126.7037v41h126.7037z" fill="#e9f1ff"/><path d="m125.7 108.241h-76.7422v20.546h76.7422z" fill="#4d8ef4"/><path d="m152.855 122.918h-9.638v2.935h9.638z" fill="#4d8ef4"/><path d="m152.855 111.178h-9.638v2.935h9.638z" fill="#4d8ef4"/><path d="m152.855 117.049h-9.638v2.935h9.638z" fill="#4d8ef4"/><path d="m139.469 111.178h-9.637v2.935h9.637z" fill="#4d8ef4"/><path d="m139.469 117.049h-9.637v2.935h9.637z" fill="#4d8ef4"/><path d="m139.469 122.918h-9.637v2.936h9.637z" fill="#4d8ef4"/><path d="m113.303 114.112h-59.6228v9.393h59.6228z" fill="#89ff40"/><path d="m118.644 120.877c1.319 0 2.389-1.12 2.389-2.502s-1.07-2.502-2.389-2.502-2.389 1.12-2.389 2.502 1.07 2.502 2.389 2.502z" fill="#ffa740"/><path d="m165.212 1.5h-126.7037v41h126.7037z" fill="#e9f1ff"/><path d="m78.0681 12.0671h-28.5202v20.5466h28.5202z" fill="#4d8ef4"/><path d="m115.461 12.0675h-28.5198v20.5466h28.5198z" fill="#4d8ef4"/><path d="m152.854 12.0671h-28.52v20.5466h28.52z" fill="#4d8ef4"/><path d="m100.934 19.4205c1.319 0 2.389-1.1202 2.389-2.5021s-1.07-2.5022-2.389-2.5022c-1.3193 0-2.3888 1.1203-2.3888 2.5022s1.0695 2.5021 2.3888 2.5021z" fill="#89ff40"/><path d="m138.715 19.4205c1.319 0 2.389-1.1202 2.389-2.5021s-1.07-2.5022-2.389-2.5022c-1.32 0-2.389 1.1203-2.389 2.5022s1.069 2.5021 2.389 2.5021z" fill="#e4ff40"/><path d="m63.1526 19.4205c1.3194 0 2.389-1.1202 2.389-2.5021s-1.0696-2.5022-2.389-2.5022-2.3889 1.1203-2.3889 2.5022 1.0695 2.5021 2.3889 2.5021z" fill="#ffa740"/><g fill="#bed8ff"><path d="m53.0896 23.2198h8.8548v5.8705h-8.8548z"/><path d="m55.4512 21.4589h4.1322v6.4575h-4.1322z"/><path d="m65.4863 23.2198h8.8549v5.8705h-8.8549z"/><path d="m67.8479 21.4589h4.1323v6.4575h-4.1323z"/><path d="m90.28 23.2198h8.8549v5.8705h-8.8549z"/><path d="m92.6414 21.4589h4.1322v6.4575h-4.1322z"/><path d="m102.677 23.2198h8.855v5.8705h-8.855z"/><path d="m105.038 21.4589h4.132v6.4575h-4.132z"/><path d="m128.062 23.2198h8.854v5.8705h-8.854z"/><path d="m130.423 21.4589h4.132v6.4575h-4.132z"/><path d="m140.458 23.2198h8.855v5.8705h-8.855z"/><path d="m142.819 21.4589h4.133v6.4575h-4.133z"/></g><path d="m165.212 49.5h-126.7037v41h126.7037z" fill="#e9f1ff"/><path d="m78.0683 60.1023h-28.5202v20.5466h28.5202z" fill="#4d8ef4"/><path d="m115.462 60.1023h-28.5206v20.5466h28.5206z" fill="#4d8ef4"/><path d="m152.855 60.1023h-28.521v20.5466h28.521z" fill="#4d8ef4"/><path d="m100.934 67.4556c1.319 0 2.389-1.1202 2.389-2.5021 0-1.382-1.07-2.5022-2.389-2.5022-1.3193 0-2.3888 1.1202-2.3888 2.5022 0 1.3819 1.0695 2.5021 2.3888 2.5021z" fill="#e4ff40"/><path d="m138.715 67.4556c1.319 0 2.389-1.1202 2.389-2.5021 0-1.382-1.07-2.5022-2.389-2.5022-1.32 0-2.389 1.1202-2.389 2.5022 0 1.3819 1.069 2.5021 2.389 2.5021z" fill="#ffa740"/><path d="m63.1529 67.4556c1.3193 0 2.3889-1.1202 2.3889-2.5021 0-1.382-1.0696-2.5022-2.3889-2.5022-1.3194 0-2.389 1.1202-2.389 2.5022 0 1.3819 1.0696 2.5021 2.389 2.5021z" fill="#ffa740"/><path d="m53.0898 71.256h8.8549v5.8704h-8.8549z" fill="#bed8ff"/><path d="m55.4517 69.4951h4.1322v6.4575h-4.1322z" fill="#bed8ff"/><path d="m65.4866 71.2561h8.8548v5.8705h-8.8548z" fill="#bed8ff"/><path d="m67.8481 69.4952h4.1323v6.4575h-4.1323z" fill="#bed8ff"/><path d="m90.2803 71.256h8.8548v5.8704h-8.8548z" fill="#bed8ff"/><path d="m92.6416 69.4951h4.1323v6.4575h-4.1323z" fill="#bed8ff"/><path d="m102.677 71.2561h8.855v5.8705h-8.855z" fill="#bed8ff"/><path d="m105.038 69.4952h4.133v6.4575h-4.133z" fill="#bed8ff"/><path d="m128.062 71.256h8.855v5.8704h-8.855z" fill="#bed8ff"/><path d="m130.423 69.4951h4.133v6.4575h-4.133z" fill="#bed8ff"/><path d="m140.458 71.2561h8.855v5.8705h-8.855z" fill="#bed8ff"/><path d="m142.82 69.4952h4.132v6.4575h-4.132z" fill="#bed8ff"/><path clip-rule="evenodd" d="m198.473 117.308c-6.884-3.158-15.381-3.283-21.129-2.357-1.448.234-2.812-.745-3.047-2.185s.749-2.797 2.197-3.03c6.382-1.029 16.042-.97 24.205 2.775 4.126 1.893 7.927 4.757 10.663 8.943 2.742 4.195 4.302 9.544 4.22 16.216-.082 6.664-1.743 11.995-4.528 16.171-2.78 4.168-6.573 7.027-10.675 8.92-8.118 3.747-17.627 3.808-23.894 2.776-1.447-.238-2.426-1.598-2.187-3.037.24-1.44 1.608-2.414 3.055-2.175 5.608.923 13.949.801 20.789-2.356 3.377-1.559 6.34-3.832 8.485-7.048 2.14-3.21 3.571-7.516 3.643-13.316.071-5.792-1.277-10.08-3.362-13.271-2.091-3.199-5.037-5.467-8.435-7.026z" fill="#3f80e6" fill-rule="evenodd"/><path clip-rule="evenodd" d="m37 1.5c0-.828427.6753-1.5 1.5084-1.5h161.8986c.833 0 1.509.671573 1.509 1.5v41c0 .8284-.676 1.5-1.509 1.5h-9.553v4h9.553c.833 0 1.509.6716 1.509 1.5v41c0 .8284-.676 1.5-1.509 1.5h-9.553v4h9.553c.833 0 1.509.6716 1.509 1.5v13.925c4.111 1.989 7.923 4.947 10.711 9.212 2.928 4.479 4.548 10.129 4.463 17.051-.085 6.909-1.811 12.532-4.779 16.981-2.752 4.128-6.43 7.033-10.395 9.019v22.812c0 .828-.676 1.5-1.509 1.5h-161.8986c-.8331 0-1.5084-.672-1.5084-1.5v-41c0-.828.6753-1.5 1.5084-1.5h10.5586v-4h-10.5586c-.8331 0-1.5084-.672-1.5084-1.5v-41c0-.8284.6753-1.5 1.5084-1.5h10.5586v-4h-10.5586c-.8331 0-1.5084-.6716-1.5084-1.5v-41c0-.8284.6753-1.5 1.5084-1.5h10.5586v-4h-10.5586c-.8331 0-1.5084-.6716-1.5084-1.5zm3.0168 1.5v38h10.5586c.833 0 1.5084.6716 1.5084 1.5v7c0 .8284-.6754 1.5-1.5084 1.5h-10.5586v38h10.5586c.833 0 1.5084.6716 1.5084 1.5v7c0 .8284-.6754 1.5-1.5084 1.5h-10.5586v38h10.5586c.833 0 1.5084.672 1.5084 1.5v7c0 .828-.6754 1.5-1.5084 1.5h-10.5586v38h158.8822v-22.252c0-.583.34-1.114.872-1.36 3.886-1.798 7.433-4.487 10.026-8.377 2.602-3.901 4.198-8.941 4.277-15.36.079-6.422-1.421-11.47-3.977-15.379-2.553-3.906-6.11-6.601-10.03-8.399-.092-.042-.185-.084-.277-.125-.542-.242-.891-.778-.891-1.369v-13.379h-9.553c-.833 0-1.508-.6716-1.508-1.5v-7c0-.8284.675-1.5 1.508-1.5h9.553v-38h-9.553c-.833 0-1.508-.6716-1.508-1.5v-7c0-.8284.675-1.5 1.508-1.5h9.553v-38zm158.8822 115.303c0-.536.288-1.031.755-1.299s1.042-.267 1.509.001c2.758 1.586 5.18 3.714 7.009 6.511 2.272 3.476 3.68 8.066 3.606 14.107-.074 6.045-1.571 10.643-3.894 14.127-1.787 2.679-4.093 4.744-6.697 6.308-.466.279-1.047.288-1.521.022s-.767-.765-.767-1.306v-9.774h-9.553c-.833 0-1.508-.672-1.508-1.5v-7c0-.828.675-1.5 1.508-1.5h9.553zm3.017 2.817v17.38c0 .828-.676 1.5-1.509 1.5h-9.553v4h9.553c.833 0 1.509.672 1.509 1.5v8.385c1.312-1.072 2.476-2.328 3.453-3.793 1.958-2.936 3.324-6.951 3.392-12.505.068-5.542-1.219-9.53-3.118-12.436-1.029-1.573-2.287-2.907-3.727-4.031z" fill="#3f80e6" fill-rule="evenodd"/></svg>