<svg fill="none" height="2907" viewBox="0 0 3161 5813" width="1581" xmlns="http://www.w3.org/2000/svg" xmlns:xlink="http://www.w3.org/1999/xlink"><linearGradient id="a" gradientUnits="userSpaceOnUse" x1="1576" x2="1576" y1="683" y2="11941"><stop offset=".249609" stop-color="#4179d0"/><stop offset="1" stop-color="#d6e6ff"/></linearGradient><linearGradient id="b" gradientUnits="userSpaceOnUse" x1="1576" x2="1576" y1="0" y2="1706"><stop offset="0" stop-color="#8fbbfe"/><stop offset="1" stop-color="#4179d0"/></linearGradient><linearGradient id="c"><stop offset=".01" stop-color="#fff"/><stop offset=".99" stop-color="#fff" stop-opacity="0"/></linearGradient><linearGradient id="d" gradientUnits="userSpaceOnUse" x1="1810.9" x2="494.115" xlink:href="#c" y1="5565.2" y2="4011.57"/><linearGradient id="e" gradientUnits="userSpaceOnUse" x1="2291.15" x2="1959.31" xlink:href="#c" y1="1201.7" y2="1712.46"/><linearGradient id="f"><stop offset=".01" stop-color="#2996f9"/><stop offset=".99" stop-color="#81aefa"/></linearGradient><linearGradient id="g" gradientUnits="userSpaceOnUse" x1="2070.39" x2="2038.72" xlink:href="#f" y1="1476.14" y2="1526.53"/><linearGradient id="h" gradientUnits="userSpaceOnUse" x1="2045.16" x2="2044.43" xlink:href="#f" y1="1615.27" y2="1418.43"/><linearGradient id="i"><stop offset=".01" stop-color="#ddeffd"/><stop offset=".99" stop-color="#81aefa"/></linearGradient><linearGradient id="j" gradientUnits="userSpaceOnUse" x1="2014.44" x2="2149.14" xlink:href="#i" y1="1413.69" y2="1492.02"/><linearGradient id="k" gradientUnits="userSpaceOnUse" x1="2046.57" x2="2082.14" xlink:href="#f" y1="1515.77" y2="1448.96"/><linearGradient id="l" gradientUnits="userSpaceOnUse" x1="1971.54" x2="1981.35" xlink:href="#c" y1="1464.03" y2="1434.94"/><linearGradient id="m" gradientUnits="userSpaceOnUse" x1="1996.49" x2="2007.76" xlink:href="#c" y1="1472.93" y2="1453.55"/><linearGradient id="n" gradientUnits="userSpaceOnUse" x1="2018.31" x2="2034.7" xlink:href="#c" y1="1488.63" y2="1471.64"/><linearGradient id="o" gradientUnits="userSpaceOnUse" x1="2049.97" x2="2058.99" xlink:href="#c" y1="1506.06" y2="1486.54"/><linearGradient id="p" gradientUnits="userSpaceOnUse" x1="2077.55" x2="2084.33" xlink:href="#c" y1="1518.74" y2="1504.97"/><linearGradient id="q" gradientUnits="userSpaceOnUse" x1="2102.36" x2="2111.83" xlink:href="#c" y1="1535.64" y2="1519.35"/><linearGradient id="r" gradientUnits="userSpaceOnUse" x1="2127.65" x2="2140.23" xlink:href="#c" y1="1562.12" y2="1529.34"/><linearGradient id="s" gradientUnits="userSpaceOnUse" x1="2196.59" x2="1936.89" xlink:href="#c" y1="1252.71" y2="1702.14"/><linearGradient id="t"><stop offset=".01" stop-color="#918fd0"/><stop offset=".99" stop-color="#61a3e9"/></linearGradient><linearGradient id="u" gradientUnits="userSpaceOnUse" x1="297.727" x2="827.873" xlink:href="#t" y1="2471.14" y2="2754.82"/><linearGradient id="v" gradientUnits="userSpaceOnUse" x1="745.296" x2="739.771" xlink:href="#t" y1="2902.49" y2="2822.5"/><linearGradient id="w" gradientUnits="userSpaceOnUse" x1="775.856" x2="787.516" y1="2780.52" y2="2814.52"><stop offset=".01" stop-color="#918fd0"/><stop offset=".99" stop-color="#fff" stop-opacity=".15"/></linearGradient><linearGradient id="x"><stop offset=".01" stop-color="#fff"/><stop offset=".99" stop-color="#bcebfc"/></linearGradient><linearGradient id="y" gradientUnits="userSpaceOnUse" x1="377.676" x2="1081.77" xlink:href="#x" y1="2767.84" y2="2616.94"/><linearGradient id="z" gradientUnits="userSpaceOnUse" x1="566.9" x2="864.759" xlink:href="#x" y1="2588.09" y2="2524.26"/><linearGradient id="A" gradientUnits="userSpaceOnUse" x1="940.38" x2="870.567" xlink:href="#t" y1="2513.23" y2="2651.59"/><linearGradient id="B" gradientUnits="userSpaceOnUse" x1="767.576" x2="778.891" xlink:href="#x" y1="2662.81" y2="2660.39"/><linearGradient id="C" gradientUnits="userSpaceOnUse" x1="871.091" x2="882.861" xlink:href="#x" y1="2577.05" y2="2574.53"/><linearGradient id="D" gradientUnits="userSpaceOnUse" x1="845.913" x2="857.227" xlink:href="#x" y1="2793.3" y2="2790.87"/><linearGradient id="E" gradientUnits="userSpaceOnUse" x1="681.466" x2="696.137" xlink:href="#x" y1="2739.16" y2="2736.02"/><linearGradient id="F" gradientUnits="userSpaceOnUse" x1="589.042" x2="603.216" xlink:href="#x" y1="2617.98" y2="2614.94"/><linearGradient id="G" gradientUnits="userSpaceOnUse" x1="547.431" x2="683.044" xlink:href="#t" y1="2541.34" y2="2821.96"/><linearGradient id="H" gradientUnits="userSpaceOnUse" x1="805.073" x2="817.972" xlink:href="#t" y1="2798.32" y2="2876.13"/><linearGradient id="I"><stop offset=".01" stop-color="#2996f9"/><stop offset=".2" stop-color="#4aa0f9"/><stop offset=".41" stop-color="#62a6fa"/><stop offset=".61" stop-color="#73aafa"/><stop offset=".81" stop-color="#7eadfa"/><stop offset=".99" stop-color="#81aefa"/></linearGradient><linearGradient id="J" gradientUnits="userSpaceOnUse" x1="2805.6" x2="2646.5" xlink:href="#I" y1="3604.94" y2="3303.1"/><linearGradient id="K"><stop offset=".01" stop-color="#81aefa"/><stop offset=".99" stop-color="#fff"/></linearGradient><linearGradient id="L" gradientUnits="userSpaceOnUse" x1="2857.1" x2="2609.56" xlink:href="#K" y1="3365.27" y2="3181.76"/><linearGradient id="M" gradientUnits="userSpaceOnUse" x1="2582.64" x2="2585.26" xlink:href="#I" y1="3235.2" y2="3250.38"/><linearGradient id="N" gradientUnits="userSpaceOnUse" x1="2702.4" x2="2710.35" xlink:href="#I" y1="3245.18" y2="3307.46"/><linearGradient id="O" gradientUnits="userSpaceOnUse" x1="2666.24" x2="2666.24" xlink:href="#I" y1="3477.44" y2="3515.75"/><linearGradient id="P"><stop offset=".01" stop-color="#2c41e2"/><stop offset=".15" stop-color="#6372ea"/><stop offset=".3" stop-color="#939ef0"/><stop offset=".45" stop-color="#bac1f6"/><stop offset=".59" stop-color="#d8dcfa"/><stop offset=".73" stop-color="#eef1fd"/><stop offset=".86" stop-color="#fbfcfe"/><stop offset=".99" stop-color="#fff"/></linearGradient><linearGradient id="Q" gradientUnits="userSpaceOnUse" x1="2653.43" x2="2593" xlink:href="#P" y1="3382.18" y2="3372.66"/><linearGradient id="R" gradientUnits="userSpaceOnUse" x1="2628.48" x2="2614.61" xlink:href="#I" y1="3336.56" y2="3417.74"/><linearGradient id="S" gradientUnits="userSpaceOnUse" x1="2639.73" x2="2648.27" xlink:href="#I" y1="3226.03" y2="3294.02"/><linearGradient id="T" gradientUnits="userSpaceOnUse" x1="2660.46" x2="2627.36" xlink:href="#c" y1="3242.56" y2="3275.66"/><linearGradient id="U" gradientUnits="userSpaceOnUse" x1="2703.25" x2="2697.33" xlink:href="#P" y1="3236.01" y2="3539.73"/><linearGradient id="V" gradientUnits="userSpaceOnUse" x1="2713.66" x2="2687.62" xlink:href="#c" y1="3358.35" y2="3384.4"/><linearGradient id="W" gradientUnits="userSpaceOnUse" x1="2714.71" x2="2714.03" xlink:href="#P" y1="3211.44" y2="3251.69"/><linearGradient id="X" gradientUnits="userSpaceOnUse" x1="2716.86" x2="2711.81" xlink:href="#c" y1="3231.02" y2="3236.07"/><linearGradient id="Y" gradientUnits="userSpaceOnUse" x1="2578.83" x2="2578.15" xlink:href="#P" y1="3334.65" y2="3374.91"/><linearGradient id="Z" gradientUnits="userSpaceOnUse" x1="2581.01" x2="2575.95" xlink:href="#c" y1="3354.23" y2="3359.28"/><linearGradient id="aa" gradientUnits="userSpaceOnUse" x1="2666.5" x2="2673.31" xlink:href="#K" y1="3218.12" y2="3218.12"/><linearGradient id="ab" gradientUnits="userSpaceOnUse" x1="2666.5" x2="2673.31" xlink:href="#K" y1="3176.14" y2="3176.14"/><linearGradient id="ac" gradientUnits="userSpaceOnUse" x1="2778.65" x2="2770.2" xlink:href="#K" y1="3273.89" y2="3242.31"/><linearGradient id="ad" gradientUnits="userSpaceOnUse" x1="2579.84" x2="2577.6" xlink:href="#I" y1="3257.44" y2="3342.01"/><linearGradient id="ae" gradientUnits="userSpaceOnUse" x1="2579.84" x2="2577.6" xlink:href="#I" y1="3257.45" y2="3342.01"/><linearGradient id="af" gradientUnits="userSpaceOnUse" x1="2723.29" x2="2737.67" xlink:href="#I" y1="3380.06" y2="3413.77"/><linearGradient id="ag" gradientUnits="userSpaceOnUse" x1="2723.29" x2="2737.67" xlink:href="#I" y1="3380.07" y2="3413.77"/><linearGradient id="ah" gradientUnits="userSpaceOnUse" x1="2742.59" x2="2771.63" xlink:href="#I" y1="3241.64" y2="3392.12"/><linearGradient id="ai" gradientUnits="userSpaceOnUse" x1="2784.56" x2="2732" xlink:href="#c" y1="3295" y2="3347.57"/><linearGradient id="aj" gradientUnits="userSpaceOnUse" x1="2837.27" x2="2770.45" xlink:href="#I" y1="3396.43" y2="3399.86"/><linearGradient id="ak"><stop offset=".01" stop-color="#2b74e2"/><stop offset=".99" stop-color="#fff"/></linearGradient><linearGradient id="al" gradientUnits="userSpaceOnUse" x1="1970.21" x2="1723.13" xlink:href="#ak" y1="5151.81" y2="4663.4"/><linearGradient id="am" gradientUnits="userSpaceOnUse" x1="1705.09" x2="1934.89" xlink:href="#ak" y1="4841.75" y2="4841.75"/><linearGradient id="an"><stop offset=".01" stop-color="#81d0fa"/><stop offset=".99" stop-color="#fff"/></linearGradient><linearGradient id="ao" gradientUnits="userSpaceOnUse" x1="1760.15" x2="1977.86" xlink:href="#an" y1="4827.8" y2="4827.8"/><linearGradient id="ap" gradientUnits="userSpaceOnUse" x1="1840.08" x2="1844.26" xlink:href="#ak" y1="4791.22" y2="5029.61"/><linearGradient id="aq"><stop offset=".01" stop-color="#2c75e2"/><stop offset=".15" stop-color="#6399ea"/><stop offset=".3" stop-color="#93b8f0"/><stop offset=".45" stop-color="#bad2f6"/><stop offset=".59" stop-color="#d8e6fa"/><stop offset=".73" stop-color="#eef5fd"/><stop offset=".86" stop-color="#fbfcfe"/><stop offset=".99" stop-color="#fff"/></linearGradient><linearGradient id="ar" gradientUnits="userSpaceOnUse" x1="1838.6" x2="1808.46" xlink:href="#aq" y1="5028.26" y2="4607.03"/><linearGradient id="as" gradientUnits="userSpaceOnUse" x1="1870.78" x2="1886.34" xlink:href="#aq" y1="4804.07" y2="4854.64"/><linearGradient id="at" gradientUnits="userSpaceOnUse" x1="1884.55" x2="1871.6" xlink:href="#c" y1="4821.25" y2="4834.19"/><linearGradient id="au" gradientUnits="userSpaceOnUse" x1="1820.2" x2="1892.72" xlink:href="#aq" y1="4880.86" y2="4962.81"/><linearGradient id="av" gradientUnits="userSpaceOnUse" x1="1940.9" x2="1933.2" xlink:href="#an" y1="4832.27" y2="4803.65"/><linearGradient id="aw" gradientUnits="userSpaceOnUse" x1="1769.41" x2="1836.21" xlink:href="#aq" y1="4893.04" y2="5055.2"/><linearGradient id="ax" gradientUnits="userSpaceOnUse" x1="1769.41" x2="1836.21" xlink:href="#aq" y1="4935.02" y2="5097.19"/><linearGradient id="ay" gradientUnits="userSpaceOnUse" x1="1898.78" x2="1905.08" xlink:href="#aq" y1="4908.85" y2="4934.05"/><linearGradient id="az" gradientUnits="userSpaceOnUse" x1="1774.91" x2="1774.91" xlink:href="#aq" y1="4823.39" y2="4881.74"/><linearGradient id="aA" gradientUnits="userSpaceOnUse" x1="1781.35" x2="1768.43" xlink:href="#c" y1="4840.95" y2="4853.87"/><linearGradient id="aB" gradientUnits="userSpaceOnUse" x1="1974.77" x2="1944.59" xlink:href="#aq" y1="5018.53" y2="4597.3"/><linearGradient id="aC" gradientUnits="userSpaceOnUse" x1="1758.88" x2="1979.38" xlink:href="#ak" y1="4947.11" y2="4947.11"/><linearGradient id="aD" gradientUnits="userSpaceOnUse" x1="2840.37" x2="2587.46" xlink:href="#f" y1="4779.45" y2="4299.67"/><linearGradient id="aE" gradientUnits="userSpaceOnUse" x1="2480.51" x2="2862.69" xlink:href="#i" y1="4245.39" y2="4245.39"/><linearGradient id="aF" gradientUnits="userSpaceOnUse" x1="2620.79" x2="2628.23" xlink:href="#f" y1="4181.2" y2="4599.63"/><linearGradient id="aG" gradientUnits="userSpaceOnUse" x1="2470.49" x2="2512.1" xlink:href="#f" y1="4225.98" y2="4186.82"/><linearGradient id="aH" gradientUnits="userSpaceOnUse" x1="2605.9" x2="2682.65" xlink:href="#f" y1="4566.48" y2="4494.25"/><linearGradient id="aI" gradientUnits="userSpaceOnUse" x1="2658.43" x2="2711.84" xlink:href="#f" y1="4275.15" y2="4224.87"/><linearGradient id="aJ" gradientUnits="userSpaceOnUse" x1="2661.56" x2="2607.74" xlink:href="#f" y1="4699.21" y2="4581.7"/><linearGradient id="aK" gradientUnits="userSpaceOnUse" x1="2592.67" x2="2496.54" xlink:href="#I" y1="4463.31" y2="4448.17"/><linearGradient id="aL" gradientUnits="userSpaceOnUse" x1="2567.09" x2="2516.86" xlink:href="#c" y1="4432.57" y2="4482.81"/><linearGradient id="aM" gradientUnits="userSpaceOnUse" x1="2634.24" x2="2538.11" xlink:href="#I" y1="4237.76" y2="4222.58"/><linearGradient id="aN" gradientUnits="userSpaceOnUse" x1="2611.07" x2="2558.45" xlink:href="#c" y1="4204.66" y2="4257.29"/><linearGradient id="aO" gradientUnits="userSpaceOnUse" x1="2664.39" x2="2622.91" xlink:href="#I" y1="4352.02" y2="4345.47"/><linearGradient id="aP" gradientUnits="userSpaceOnUse" x1="2653.84" x2="2631.14" xlink:href="#c" y1="4337.16" y2="4359.86"/><linearGradient id="aQ" gradientUnits="userSpaceOnUse" x1="2703.26" x2="2688.58" xlink:href="#I" y1="4190.42" y2="4188.13"/><linearGradient id="aR" gradientUnits="userSpaceOnUse" x1="2699.53" x2="2691.52" xlink:href="#c" y1="4185.16" y2="4193.17"/><linearGradient id="aS" gradientUnits="userSpaceOnUse" x1="2604.17" x2="2615" xlink:href="#i" y1="4156.84" y2="4156.84"/><linearGradient id="aT" gradientUnits="userSpaceOnUse" x1="2797.78" x2="2784.33" xlink:href="#i" y1="4253.21" y2="4203.06"/><linearGradient id="aU" gradientUnits="userSpaceOnUse" x1="2636.36" x2="2521.35" xlink:href="#i" y1="4439.3" y2="4312"/><linearGradient id="aV" gradientUnits="userSpaceOnUse" x1="2636.36" x2="2521.35" xlink:href="#i" y1="4439.29" y2="4312"/><linearGradient id="aW" gradientUnits="userSpaceOnUse" x1="2512.99" x2="2471.51" xlink:href="#I" y1="4305.76" y2="4299.25"/><linearGradient id="aX" gradientUnits="userSpaceOnUse" x1="2502.43" x2="2479.74" xlink:href="#c" y1="4290.91" y2="4313.61"/><linearGradient id="aY" gradientUnits="userSpaceOnUse" x1="2764.95" x2="2691.63" xlink:href="#I" y1="4487.16" y2="4446.27"/><linearGradient id="aZ" gradientUnits="userSpaceOnUse" x1="2737.48" x2="2747.47" xlink:href="#c" y1="4414.44" y2="4485.06"/><linearGradient id="a0" gradientUnits="userSpaceOnUse" x1="2845.9" x2="2693.24" xlink:href="#I" y1="4341.33" y2="4317.26"/><linearGradient id="a1" gradientUnits="userSpaceOnUse" x1="2807.15" x2="2723.56" xlink:href="#c" y1="4286.79" y2="4370.4"/><clipPath id="a2"><path d="m0 0h3161v5813h-3161z"/></clipPath><g clip-path="url(#a2)"><path d="m0 0h3161v5813h-3161z" fill="#fff"/><path d="m-10 683h3172v11258h-3172z" fill="url(#a)"/><path d="m-10 0h3172v1706h-3172z" fill="url(#b)"/><path d="m1486.83 3735.01c-37.34-40.42-104.96-15.69-149.33 16.91-86.57 63.64-159.69 150.19-260.76 186.77-91.602 33.11-193.733 19.87-287.576-7.15s-183.33-67.27-278.399-88.79c-175.463-39.37-364.924-8.46-520.765 80.76v942.28c48.4649 10.78 97.2682 20.47 145.649 24.31 85.237 6.25 170.836-5.45 251.27-34.34 80.435-28.88 153.917-74.31 215.701-133.35 83.355-80.64 141.589-183.3 215.936-272.31 81-96.75 180.363-176.51 292.354-234.67 120.7-62.66 261.57-104.78 341.62-214.71 42.46-58.75 62.59-130.71 56.76-202.96-1.99-22.41-7.07-46.09-22.46-62.75z" fill="url(#d)" opacity=".49"/><path d="m1936.48 1496.41-289.48 311.59 370.68 185.41 110.92-389.13z" fill="url(#e)"/><path d="m2083.18 1586.77c-5.96 10.28-38.48 2.45-72.61-17.42s-56.92-44.27-50.96-54.54c1.86-3.22 6.34-4.66 12.69-4.53 13.87.34 36.54 8.46 59.97 21.95 23.42 13.48 41.61 29.59 48.67 41.35 3.17 5.41 4.1 9.98 2.24 13.19z" fill="#aec7eb"/><path d="m2197.96 1608.25c-11.63 19.96-91.52-4.86-178.42-55.47-86.91-50.62-148.02-107.83-136.31-127.83 2.67-4.52 8.88-6.76 17.93-6.85 30.58-.42 93.47 23.3 160.5 62.37 72.53 42.28 126.87 89.09 136.34 115.05.94 2 1.42 4.17 1.41 6.37s-.5 4.37-1.45 6.36z" fill="url(#g)"/><path d="m2197.96 1608.25c-11.63 19.96-91.52-4.86-178.42-55.47-86.91-50.62-148.02-107.83-136.31-127.83 2.67-4.52 8.88-6.76 17.93-6.85-1.43 2.76-1.88 5.92-1.26 8.97-.3 3.04 5.41 16.91 33.19 42.28 30.59 26.61 63.76 50.11 99.01 70.15 34.84 20.8 71.67 38.07 109.95 51.54 22.97 7.57 37.13 9.39 44.96 9.22 3.68-.21 7.16-1.71 9.85-4.23l.93-.68c.99 2 1.53 4.2 1.55 6.43.03 2.24-.44 4.45-1.38 6.47z" fill="url(#h)"/><path d="m2134.48 1510.7-136.22-77c3.89-5.96 9.43-6.68 16.07-9.93 19.97-9.85 50.16-7.19 77.65 8.79 27.49 15.99 44.45 40.98 45.84 63.17.41 5.22-.75 10.43-3.34 14.97z" fill="url(#j)"/><path d="m2150.51 1566.35c-.71 1.37-1.9 2.42-3.35 2.96-1.45.53-3.05.5-4.47-.09l-27.24-15.85-145.52-84.91-24.91-14.54c-.64-.55-1.17-1.23-1.53-1.99-.37-.77-.57-1.6-.59-2.45-.01-.84.14-1.68.47-2.47.33-.78.82-1.48 1.44-2.06l4.23-4.9c1-1.25 2.38-2.15 3.93-2.54l41.91-9.34c4.48-1.13 9.22-.45 13.2 1.9l127.42 74.25c3.51 2.16 4.23 9.01 5.2 13.36l11.12 43.13c.17.96.14 1.95-.09 2.9-.22.96-.64 1.85-1.22 2.64z" fill="url(#k)"/><path d="m1978.68 1444.28c-.78 1.15-2 1.94-3.37 2.2s-2.79-.03-3.94-.81c-.57-.41-1.04-.92-1.4-1.52s-.6-1.26-.7-1.95-.06-1.4.12-2.07.49-1.31.92-1.86c.4-.55.89-1.02 1.47-1.39.58-.36 1.22-.6 1.89-.72.67-.11 1.36-.09 2.03.06.66.15 1.29.43 1.84.83.56.39 1.03.89 1.39 1.47.36.57.61 1.22.72 1.89.12.67.1 1.36-.05 2.02-.16.66-.44 1.29-.83 1.85z" fill="url(#l)"/><path d="m2004.18 1461.95c-.6.81-1.42 1.43-2.37 1.77-.95.35-1.98.41-2.96.18-.99-.24-1.88-.76-2.57-1.49-.69-.74-1.15-1.66-1.32-2.66-.17-.99-.05-2.02.35-2.94.41-.93 1.08-1.71 1.92-2.26.85-.55 1.84-.84 2.85-.83s2 .31 2.84.87c1.14.81 1.91 2.04 2.15 3.42s-.08 2.8-.89 3.94z" fill="url(#m)"/><path d="m2030.11 1478.82c-.36.6-.83 1.12-1.39 1.54-.56.41-1.2.71-1.88.88-.67.16-1.38.19-2.06.08-.69-.11-1.35-.35-1.95-.72-.58-.38-1.08-.87-1.46-1.44-.39-.57-.66-1.22-.8-1.89-.13-.68-.13-1.38.02-2.06.14-.67.41-1.32.81-1.88.34-.62.8-1.16 1.35-1.59.56-.43 1.2-.74 1.88-.92.68-.17 1.39-.2 2.08-.1.7.11 1.36.36 1.96.74.59.37 1.1.87 1.5 1.45.4.57.67 1.23.81 1.92.13.69.12 1.4-.03 2.08-.14.69-.43 1.34-.84 1.91z" fill="url(#n)"/><path d="m2056.46 1495.01c-.35.58-.81 1.09-1.36 1.49-.54.41-1.16.7-1.82.86s-1.34.19-2.01.09-1.32-.33-1.9-.68-1.08-.81-1.49-1.36c-.4-.54-.69-1.16-.85-1.82s-.2-1.34-.1-2.01c.11-.67.34-1.31.69-1.89s.81-1.09 1.35-1.49c.55-.4 1.17-.69 1.83-.86.65-.16 1.34-.19 2.01-.09s1.31.33 1.89.68 1.09.81 1.49 1.36c.4.54.69 1.16.86 1.82.16.66.19 1.34.09 2.01s-.33 1.31-.68 1.89z" fill="url(#o)"/><path d="m2083.31 1510.41c-.53.86-1.3 1.54-2.22 1.97-.91.42-1.93.57-2.93.42s-1.93-.59-2.68-1.26-1.29-1.55-1.55-2.53-.22-2.01.1-2.96c.33-.96.92-1.8 1.72-2.42.79-.62 1.75-.99 2.76-1.07s2.01.13 2.9.62c.6.34 1.13.81 1.55 1.36.43.55.74 1.18.91 1.85.18.68.22 1.38.13 2.07-.1.69-.33 1.35-.69 1.95z" fill="url(#p)"/><path d="m2110.76 1524.61c-.61 1.27-1.69 2.25-3.01 2.73-1.32.49-2.78.43-4.06-.15-.61-.33-1.16-.77-1.6-1.31s-.77-1.16-.97-1.83-.27-1.37-.2-2.07c.08-.69.28-1.36.62-1.98.28-.63.69-1.21 1.2-1.68.51-.48 1.11-.85 1.77-1.08.66-.24 1.35-.34 2.05-.3s1.38.23 2 .54c.63.31 1.18.75 1.63 1.28s.79 1.15 1 1.82c.2.66.27 1.36.2 2.06-.08.69-.29 1.36-.63 1.97z" fill="url(#q)"/><path d="m2138.84 1537.64c-.26.64-.64 1.23-1.12 1.72-.49.49-1.06.89-1.7 1.15-.64.27-1.33.41-2.02.41s-1.37-.14-2.01-.41c-1.28-.59-2.27-1.67-2.75-3-.48-1.32-.42-2.78.17-4.06.53-1.28 1.55-2.3 2.84-2.83 1.28-.53 2.72-.53 4.01 0 1.26.6 2.24 1.67 2.73 2.98.48 1.31.43 2.76-.15 4.04z" fill="url(#r)"/><path d="m1959.61 1514.8-150.47 196.16 182.7 107.95 91.34-232.14z" fill="url(#s)"/><path d="m821.427 2877.56c98.893-50.53 138.09-171.65 87.549-270.53-50.541-98.87-171.681-138.07-270.574-87.53-98.893 50.53-138.091 171.65-87.55 270.52 50.541 98.88 171.682 138.07 270.575 87.54z" fill="url(#u)"/><path d="m771.149 2895.07c30.658-6.4 59.393-19.88 83.911-39.37 24.518-19.48 44.139-44.43 57.297-72.84-21.526 8.45-42.29 19.87-63.436 29.26-52.651 23.34-112.323 35.17-168.316 21.64-29.603-7.14-56.796-21.14-83.228-35.77-20.764-11.63-41.444-24.18-57.726-41.56-1.1-1.23-2.199-2.5-3.256-3.76 13.772 49.07 45.68 91.08 89.266 117.52 43.585 26.44 95.591 35.34 145.488 24.88z" fill="url(#v)" opacity=".15"/><path d="m628.122 2870.51c50.361-11.32 99.966-25.76 148.525-43.26 48.339-17.14 95.57-37.27 141.419-60.25 4.728-12.68 8.17-25.79 10.277-39.16-52.052 27.8-106.142 51.61-161.804 71.21-48.041 17.35-97.141 31.61-147.002 42.7-7.612 1.65-14.928 3.17-22.075 4.57l-2.072.38c10.088 9.01 21.054 16.98 32.732 23.81z" fill="url(#w)"/><path d="m1060.04 2584.08c-15.57-42.66-121.167-28.41-177.329-17.5 7.06 7.89 13.427 16.38 19.031 25.37 28.096-5.22 56.598-7.94 85.173-8.12 33.835.5 43.985 7.57 44.875 9.98 4.48 12.3-19.71 46.97-102.347 94.16-4.652 2.66-9.474 5.33-14.464 8.08-55.278 29.42-112.788 54.44-171.995 74.84-48.127 17.06-97.246 31.18-147.087 42.28-7.612 1.65-14.928 3.17-22.033 4.53-113.254 22.03-163.707 9.76-168.739-4.23-3.764-10.32 30.364-51.38 123.403-103.93-.841-11.02-.685-22.08.466-33.07-43.052 23.34-81.071 48.16-107.841 70.49-37.216 31.07-51.679 56.02-44.278 76.4 19.622 53.62 153.599 32.6 217.965 19.11l4.229-.88 2.876-.64c51.086-11.33 101.434-25.76 150.765-43.21 59.637-20.64 117.603-45.81 173.392-75.31l2.96-1.61c56.585-30.35 148.398-88.75 130.978-136.74z" fill="url(#y)" opacity=".3"/><path d="m688.598 2501.5c-27.567 5.76-53.612 17.25-76.441 33.74-22.828 16.49-41.928 37.59-56.055 61.95 4.567-1.44 9.219-2.79 13.913-3.97 35.736-9.01 74.135-9.86 108.983 2.07 7.105 2.41 14.083 5.2 21.145 7.91-6.724 18.47 6.471 44.31 31.634 39.02 6.163-1.04 11.747-4.26 15.736-9.07s6.119-10.89 6.001-17.14c2.495 0 5.032 0 7.57-.43 26.428-2.7 51.19-14.18 70.329-32.6 11.672-11.79 16.578-27.61 23.514-42.28-23.129-18.37-50.03-31.41-78.782-38.19-28.753-6.77-58.647-7.12-87.547-1.01z" fill="url(#z)" opacity=".3"/><path d="m853.616 2653.59c-25.375 5.33-17.17 44.82 8.246 39.45 25.417-5.37 17.17-44.77-8.246-39.45z" fill="url(#A)"/><path d="m761.803 2672.28c-1.442.44-2.671 1.39-3.442 2.69-.77 1.29-1.027 2.82-.718 4.3.309 1.47 1.16 2.78 2.385 3.65 1.224.88 2.734 1.26 4.228 1.08 1.443-.43 2.672-1.39 3.442-2.68.771-1.3 1.027-2.83.719-4.31-.309-1.47-1.16-2.77-2.385-3.65s-2.734-1.26-4.229-1.08z" fill="url(#B)" opacity=".3"/><path d="m871.674 2588.99c-.417-.65-.969-1.2-1.619-1.62-.649-.41-1.381-.68-2.144-.79-.774-.23-1.595-.23-2.369 0l-1.48.51c-.928.48-1.716 1.19-2.283 2.07l-.677 1.39c-.275 1.01-.275 2.08 0 3.09l.254 1.23c.129.79.464 1.53.972 2.15.379.67.935 1.23 1.607 1.61 1.335.83 2.936 1.14 4.483.84l1.523-.5c.921-.49 1.705-1.21 2.283-2.07.2-.47.426-.92.677-1.36.275-1.02.275-2.1 0-3.13l-.254-1.22c-.122-.81-.458-1.57-.973-2.2z" fill="url(#C)" opacity=".3"/><path d="m839.364 2802.82c-1.455.42-2.695 1.38-3.472 2.68s-1.033 2.85-.717 4.33c.315 1.48 1.18 2.79 2.419 3.66 1.24.87 2.764 1.24 4.265 1.04 1.455-.43 2.695-1.39 3.472-2.69s1.033-2.84.717-4.33c-.315-1.48-1.18-2.79-2.42-3.66-1.239-.87-2.763-1.24-4.264-1.03z" fill="url(#D)" opacity=".3"/><path d="m684.327 2748.14c-.497-.83-1.195-1.53-2.03-2.03-.775-.58-1.699-.93-2.665-1.01-.967-.28-1.992-.28-2.96 0l-1.903.67c-1.148.59-2.125 1.46-2.833 2.54l-.846 1.73c-.337 1.28-.337 2.62 0 3.9l.507 2.41c.161.99.584 1.92 1.227 2.7.524.81 1.213 1.5 2.022 2.02.809.53 1.719.88 2.672 1.03.968.27 1.993.27 2.96 0l1.861-.68c1.156-.58 2.136-1.45 2.834-2.54.296-.59.592-1.14.845-1.73.421-1.25.509-2.59.254-3.89l-.507-2.41c-.25-1.01-.744-1.94-1.438-2.71z" fill="url(#E)" opacity=".3"/><path d="m584.987 2625.01c-1.863.49-3.468 1.67-4.481 3.31-1.013 1.63-1.356 3.6-.959 5.48s1.505 3.54 3.093 4.63 3.534 1.52 5.434 1.21c1.863-.48 3.468-1.67 4.481-3.3 1.013-1.64 1.357-3.6.959-5.49-.397-1.88-1.505-3.54-3.093-4.62-1.588-1.09-3.534-1.53-5.434-1.22z" fill="url(#F)" opacity=".3"/><path d="m679.548 2848.61c-1.863.48-3.467 1.66-4.48 3.3s-1.357 3.6-.959 5.48c.397 1.89 1.505 3.55 3.093 4.63 1.588 1.09 3.534 1.53 5.434 1.22 1.863-.49 3.467-1.67 4.481-3.31 1.013-1.64 1.356-3.6.959-5.48-.398-1.89-1.505-3.54-3.093-4.63s-3.535-1.52-5.435-1.21z" fill="url(#G)"/><path d="m776.267 2893.85c20.307-4.77 39.741-12.69 57.6-23.47-3.788-4.39-8.728-7.64-14.265-9.39-5.537-1.74-11.449-1.9-17.072-.46-7.716 1.34-14.665 5.48-19.513 11.63-4.847 6.15-7.251 13.88-6.75 21.69z" fill="url(#H)"/><path d="m2817.67 3382.26c18.95-81.54-31.81-163.01-113.37-181.95-81.56-18.95-163.04 31.8-181.99 113.34-18.95 81.55 31.81 163.01 113.37 181.96s163.04-31.8 181.99-113.35z" fill="url(#J)"/><path d="m2819.5 3323.24c-4.22-25.71-15-49.9-31.3-70.23s-37.56-36.11-61.74-45.83-50.45-13.05-76.29-9.66-50.36 13.39-71.21 29.01l1.6.26c7.76 1.42 15.36 3.57 22.71 6.43 7.37 2.82 14.45 6.35 21.15 10.52l4.61 3.09c37.81 26.3 60.94 73.11 104.08 89.3 12.63 4.52 26.09 6.24 39.45 5.04 13.37-1.19 26.31-5.28 37.94-11.97 3.13-1.78 6.14-3.77 9-5.96z" fill="url(#L)" opacity=".3"/><path d="m2613.89 3216.3c2.65 0 5.19-1.05 7.07-2.92s2.94-4.41 2.95-7.06c-.02-.93-.18-1.86-.46-2.75-6.3 2.03-12.46 4.46-18.44 7.28.82 1.64 2.09 3.02 3.66 3.99 1.57.96 3.38 1.47 5.22 1.46z" fill="#ddeffd"/><path d="m2584.45 3239.51c-1.64 0-3.23.66-4.39 1.82-1.17 1.17-1.82 2.75-1.82 4.4s.65 3.23 1.82 4.39c1.16 1.17 2.75 1.83 4.39 1.83 1.65 0 3.23-.66 4.4-1.83 1.17-1.16 1.82-2.74 1.82-4.39s-.65-3.23-1.82-4.4c-1.17-1.16-2.75-1.82-4.4-1.82z" fill="url(#M)"/><path d="m2795.95 3391.61c-22.16 24.27-48.93 45.83-80.69 54.38-12.01 3.17-24.42 4.6-36.84 4.22-.46-1.86-1.49-3.54-2.95-4.79s-3.28-2.01-5.19-2.18c-1.92-.17-3.84.27-5.5 1.25-1.65.97-2.96 2.44-3.74 4.2-6.93-.99-13.79-2.4-20.55-4.23 5.16-11.29-.38-27.82-16.58-27.82-4.37-.16-8.65 1.31-12 4.13-3.35 2.81-5.54 6.76-6.14 11.09-15.86-6.95-30.23-16.92-42.29-29.34-19.75-21.4-29.18-50.74-30.41-80-.53-15.85.75-31.71 3.81-47.27-10.81 19.75-17.08 41.66-18.36 64.14s2.47 44.96 10.97 65.81 21.53 39.55 38.16 54.73 36.43 26.47 57.97 33.04c21.54 6.58 44.27 8.27 66.54 4.96 22.28-3.3 43.54-11.53 62.23-24.08 18.7-12.55 34.37-29.11 45.86-48.47 11.5-19.36 18.54-41.03 20.61-63.45-8.04 9.93-16.2 20.12-24.91 29.68z" fill="#5389d7" opacity=".3"/><path d="m2705.83 3265.56c-2.01.15-3.9 1.05-5.27 2.53-1.38 1.48-2.14 3.42-2.14 5.44s.76 3.96 2.14 5.44c1.37 1.48 3.26 2.38 5.27 2.53 2.01-.15 3.9-1.05 5.27-2.53 1.38-1.48 2.14-3.42 2.14-5.44s-.76-3.96-2.14-5.44c-1.37-1.48-3.26-2.38-5.27-2.53z" fill="url(#N)"/><path d="m2666.24 3482.81c-1.99-.03-3.97.36-5.8 1.15-1.84.78-3.48 1.95-4.83 3.42s-2.37 3.22-2.99 5.11c-.62 1.9-.84 3.9-.63 5.89 5.95.73 11.94 1.09 17.93 1.09 3.56 0 7.07 0 10.53-.42.3-2.03.16-4.1-.42-6.07s-1.58-3.79-2.93-5.33-3.02-2.78-4.9-3.61c-1.87-.84-3.9-1.25-5.96-1.23z" fill="url(#O)"/><path d="m2643.87 3377.15c0 4.41-1.31 8.73-3.76 12.4s-5.94 6.53-10.02 8.22-8.57 2.13-12.9 1.27-8.31-2.99-11.44-6.11c-3.12-3.12-5.25-7.1-6.11-11.43s-.42-8.82 1.27-12.9 4.56-7.56 8.23-10.02c3.67-2.45 7.99-3.76 12.4-3.76 5.93 0 11.6 2.35 15.79 6.54s6.54 9.86 6.54 15.79z" fill="url(#Q)"/><path d="m2605.73 3393c-3.13-3.12-5.26-7.11-6.13-11.45-.86-4.34-.42-8.84 1.27-12.92 1.7-4.09 4.56-7.59 8.24-10.04 3.68-2.46 8.01-3.77 12.43-3.77 4.43 0 8.75 1.31 12.43 3.77 3.68 2.45 6.55 5.95 8.24 10.04 1.69 4.08 2.14 8.58 1.27 12.92-.86 4.34-2.99 8.33-6.12 11.45-4.2 4.19-9.89 6.53-15.82 6.53s-11.61-2.34-15.81-6.53z" fill="url(#R)"/><path d="m2666.24 3259.13c.01 4.43-1.29 8.76-3.75 12.44-2.45 3.69-5.94 6.56-10.03 8.26-4.08 1.7-8.58 2.15-12.93 1.29-4.34-.86-8.33-2.99-11.46-6.11-3.14-3.13-5.27-7.11-6.14-11.45-.86-4.34-.42-8.84 1.27-12.93s4.56-7.59 8.24-10.05 8-3.77 12.43-3.77c5.93 0 11.61 2.35 15.81 6.54 4.19 4.18 6.55 9.86 6.56 15.78z" fill="url(#S)"/><path d="m2628.1 3274.95c-3.12-3.12-5.25-7.1-6.11-11.43s-.41-8.82 1.28-12.9 4.55-7.56 8.22-10.01c3.67-2.46 7.99-3.77 12.4-3.77 4.42 0 8.74 1.31 12.41 3.77 3.67 2.45 6.53 5.93 8.22 10.01s2.14 8.57 1.28 12.9-2.99 8.31-6.11 11.43c-2.07 2.08-4.53 3.73-7.24 4.86-2.71 1.12-5.62 1.7-8.56 1.7-2.93 0-5.84-.58-8.55-1.7-2.71-1.13-5.17-2.78-7.24-4.86z" opacity=".3" stroke="url(#T)" stroke-miterlimit="10" stroke-width=".51"/><path d="m2700.63 3389.03c9.71 0 17.59-7.88 17.59-17.59 0-9.72-7.88-17.59-17.59-17.59-9.72 0-17.6 7.87-17.6 17.59 0 9.71 7.88 17.59 17.6 17.59z" fill="url(#U)"/><path d="m2688.19 3383.83c-2.46-2.46-4.14-5.59-4.82-9.01-.68-3.41-.33-6.95 1-10.16 1.33-3.22 3.59-5.97 6.48-7.9s6.3-2.96 9.78-2.96 6.88 1.03 9.77 2.96c2.9 1.93 5.15 4.68 6.48 7.9 1.33 3.21 1.68 6.75 1 10.16-.68 3.42-2.36 6.55-4.82 9.01-1.63 1.64-3.57 2.93-5.7 3.82-2.14.89-4.42 1.34-6.73 1.34s-4.6-.45-6.74-1.34c-2.13-.89-4.07-2.18-5.7-3.82z" opacity=".3" stroke="url(#V)" stroke-miterlimit="10" stroke-width=".4"/><path d="m2717.75 3233.6c0 .91-.36 1.78-1 2.42s-1.51 1-2.42 1-1.78-.36-2.42-1c-.65-.64-1.01-1.51-1.01-2.42s.36-1.78 1.01-2.42c.64-.65 1.51-1.01 2.42-1.01s1.78.36 2.42 1.01c.64.64 1 1.51 1 2.42z" fill="url(#W)"/><path d="m2714.33 3237.02c1.89 0 3.42-1.53 3.42-3.42s-1.53-3.43-3.42-3.43-3.43 1.54-3.43 3.43 1.54 3.42 3.43 3.42z" opacity=".3" stroke="url(#X)" stroke-miterlimit="10" stroke-width=".08"/><path d="m2581.87 3356.81c.06.48.01.96-.14 1.42-.14.46-.39.89-.71 1.24-.32.36-.71.65-1.15.85-.44.19-.92.3-1.4.3s-.96-.11-1.4-.3c-.44-.2-.83-.49-1.15-.85-.32-.35-.57-.78-.71-1.24-.15-.46-.2-.94-.14-1.42-.06-.48-.01-.96.14-1.42.14-.46.39-.88.71-1.24s.71-.65 1.15-.85c.44-.19.92-.29 1.4-.29s.96.1 1.4.29c.44.2.83.49 1.15.85s.57.78.71 1.24c.15.46.2.94.14 1.42z" fill="url(#Y)"/><path d="m2578.45 3360.23c1.89 0 3.42-1.53 3.42-3.42s-1.53-3.43-3.42-3.43-3.43 1.54-3.43 3.43 1.54 3.42 3.43 3.42z" opacity=".3" stroke="url(#Z)" stroke-miterlimit="10" stroke-width=".08"/><g opacity=".2"><path d="m2673.31 3218.12c0 .68-.21 1.35-.58 1.91-.38.56-.92 1-1.55 1.26s-1.32.32-1.98.19c-.67-.14-1.28-.47-1.76-.95-.47-.48-.8-1.1-.92-1.77-.13-.66-.06-1.35.21-1.98.26-.62.71-1.15 1.28-1.53.57-.37 1.23-.56 1.91-.55.45 0 .89.09 1.31.26.41.17.79.42 1.1.74s.56.7.73 1.12c.17.41.25.86.25 1.3z" fill="url(#aa)"/><path d="m2669.92 3221.55c1.89 0 3.43-1.54 3.43-3.43s-1.54-3.42-3.43-3.42-3.42 1.53-3.42 3.42 1.53 3.43 3.42 3.43z" fill="url(#ab)" opacity=".3"/></g><path d="m2785.54 3255.97c.16-.18.3-.36.43-.55.18-.23.35-.47.51-.72.15-.22.29-.44.42-.68.16-.21.31-.43.42-.68 0-.21.21-.46.34-.71-6.32-7.86-13.4-15.07-21.15-21.53h-.29l-.72.38c-.22.12-.43.24-.64.38-.25.12-.49.26-.71.43l-.68.51c-.21.11-.41.25-.59.42l-1.19 1.05c-.37.38-.73.77-1.05 1.19-.15.2-.3.4-.47.59l-.51.72-.42.68-.38.67c-.14.23-.25.47-.34.72-.13.23-.24.47-.34.72l-.25.72-.3.76v.72c0 .21 0 .55-.21.8v.89c-.02.23-.02.45 0 .68v1.6 1.61c-.02.23-.02.45 0 .68v.89c0 .25 0 .5.21.8.21.29 0 .46 0 .72l.3.76.25.72c.1.24.21.48.34.72.09.25.2.49.34.71l.38.68.42.68.51.72.47.55c.31.42.67.82 1.05 1.18.38.39.77.76 1.19 1.1l.59.42.68.51c.22.16.46.31.71.42l.64.38.72.38.72.3.72.3.76.25h.76l.8.21h.85.72 3.17.72.84l.81-.21h.72l.8-.25.72-.3.67-.3.77-.38.63-.38.72-.42.68-.51.59-.42 1.18-1.1c.35-.38.67-.77.97-1.18z" fill="url(#ac)" opacity=".3"/><path d="m2655.08 3323.02c0 1.61-.48 3.18-1.37 4.52-.9 1.34-2.17 2.38-3.65 2.99-1.49.61-3.12.77-4.7.45-1.58-.31-3.02-1.09-4.16-2.23-1.13-1.14-1.9-2.59-2.21-4.17-.31-1.57-.14-3.21.48-4.69s1.67-2.75 3.01-3.64c1.34-.88 2.91-1.35 4.52-1.34 2.15.01 4.2.87 5.72 2.39 1.51 1.52 2.36 3.58 2.36 5.72z" fill="#6ba4f4"/><path d="m2646.83 3331.1c4.46 0 8.08-3.61 8.08-8.07s-3.62-8.08-8.08-8.08-8.07 3.62-8.07 8.08 3.61 8.07 8.07 8.07z" fill="#6ba4f4" opacity=".3"/><path d="m2578.45 3328.14c10.28 0 18.61-8.33 18.61-18.6 0-10.28-8.33-18.61-18.61-18.61s-18.61 8.33-18.61 18.61c0 10.27 8.33 18.6 18.61 18.6z" fill="url(#ad)"/><path d="m2565.3 3322.69c-2.61-2.6-4.38-5.92-5.1-9.53s-.35-7.35 1.06-10.75c1.4-3.4 3.79-6.3 6.85-8.35 3.06-2.04 6.66-3.14 10.34-3.14s7.28 1.1 10.34 3.14c3.06 2.05 5.44 4.95 6.85 8.35s1.78 7.14 1.06 10.75-2.5 6.93-5.1 9.53c-3.49 3.47-8.22 5.43-13.15 5.43s-9.66-1.96-13.15-5.43z" fill="url(#ae)" opacity=".3"/><path d="m2739.36 3396.55c1.02.74 1.89 1.67 2.54 2.74.66 1.07 1.09 2.26 1.27 3.5.19 1.25.12 2.51-.19 3.73-.31 1.21-.87 2.36-1.63 3.35-1.56 2.03-3.86 3.36-6.4 3.72-2.53.35-5.11-.3-7.17-1.81-1.02-.73-1.88-1.66-2.54-2.73-.65-1.06-1.08-2.25-1.27-3.49s-.12-2.5.19-3.72c.32-1.21.87-2.35 1.63-3.34 1.55-2.04 3.85-3.39 6.39-3.75 2.54-.37 5.12.28 7.18 1.8z" fill="url(#af)"/><path d="m2734.97 3413.6c-2.53.39-5.1-.24-7.16-1.75-2.06-1.5-3.44-3.76-3.84-6.29-.18-1.25-.11-2.52.21-3.74.32-1.23.87-2.37 1.64-3.38.76-1.01 1.71-1.85 2.8-2.49 1.1-.63 2.3-1.04 3.56-1.21 2.52-.38 5.1.26 7.16 1.77 2.06 1.52 3.43 3.78 3.83 6.3.18 1.25.11 2.52-.21 3.74s-.87 2.37-1.64 3.37c-.76 1-1.71 1.85-2.81 2.48-1.09.63-2.29 1.04-3.54 1.2z" fill="url(#ag)" opacity=".3"/><path d="m2792.66 3329.26c4.49-19.07-7.34-38.17-26.42-42.65s-38.17 7.34-42.66 26.41c-4.48 19.08 7.34 38.17 26.42 42.66 19.08 4.48 38.18-7.34 42.66-26.42z" fill="url(#ah)"/><path d="m2733.15 3346.49c-4.96-4.96-8.34-11.28-9.71-18.16-1.36-6.88-.66-14.01 2.03-20.5 2.68-6.48 7.23-12.01 13.07-15.91 5.83-3.9 12.69-5.98 19.71-5.98 7.01 0 13.87 2.08 19.71 5.98 5.83 3.9 10.38 9.43 13.06 15.91 2.69 6.49 3.4 13.62 2.03 20.5s-4.74 13.2-9.7 18.16c-6.67 6.64-15.7 10.37-25.1 10.37-9.41 0-18.44-3.73-25.1-10.37z" opacity=".3" stroke="url(#ai)" stroke-miterlimit="10" stroke-width=".8"/><path d="m2801.87 3401.04c0 4.64 1.65 9.14 4.65 12.68 4.9-10.19 8.64-20.9 11.17-31.92-4.45.89-8.46 3.3-11.34 6.8-2.88 3.51-4.46 7.9-4.48 12.44z" fill="url(#aj)"/><path d="m1842.4 5036.59c75.84 0 137.32-61.47 137.32-137.3 0-75.82-61.48-137.29-137.32-137.29-75.83 0-137.31 61.47-137.31 137.29 0 75.83 61.48 137.3 137.31 137.3z" fill="url(#al)"/><path d="m1896.24 4772.95c-8.51 2.15-16.73 5.32-24.49 9.43-16.57 9.22-28.97 24.36-44.11 35.81-6.85 5.6-14.87 9.6-23.47 11.72-10.95 2.24-22.2-.26-33.24-1.86-15.31-2.54-30.96-2.38-46.22.46-12.86 21.35-19.65 45.81-19.62 70.74 0 3.81 0 7.61.46 11.33 8.8-3.5 17.29-7.75 25.38-12.68 19.41-11.63 39.03-25.08 61.57-26.77 24.15-1.77 49.74 10.19 71.9.34 7.79-3.91 14.72-9.35 20.38-15.98 13.24-14.08 24.32-30.11 37.22-44.53 4.09-4.59 8.42-8.97 12.98-13.1-11.41-10.45-24.51-18.87-38.74-24.91z" fill="url(#am)" opacity=".15"/><path d="m1977.82 4876.97c-3.83-23.26-13.59-45.14-28.34-63.54-14.74-18.39-33.98-32.68-55.85-41.48s-45.64-11.83-69.02-8.78-45.58 12.07-64.46 26.19c.46 0 .93 0 1.4.25 7.03 1.31 13.93 3.3 20.59 5.92 6.67 2.51 13.07 5.67 19.12 9.43 1.43.9 2.84 1.83 4.22 2.79 34.22 23.85 55.15 66.22 94.23 80.81 11.43 4.1 23.62 5.66 35.73 4.58 12.1-1.08 23.82-4.78 34.34-10.84 2.81-1.58 5.49-3.36 8.04-5.33z" fill="url(#ao)" opacity=".3"/><path d="m1791.74 4780.14c1.19 0 2.38-.24 3.48-.69 1.1-.46 2.11-1.13 2.95-1.97.84-.85 1.51-1.85 1.97-2.95.46-1.11.69-2.29.69-3.48-.01-.84-.15-1.66-.42-2.45-5.78 1.8-11.44 4.01-16.92 6.59.78 1.51 1.96 2.78 3.42 3.65 1.46.88 3.13 1.33 4.83 1.3z" fill="#ddf8fd"/><path d="m1979.09 4911.85c-7.28 9.22-14.64 18.35-22.54 27.02-20.09 21.99-44.32 41.52-73.08 49.22-30.32 8.16-63.01 2.32-91.98-9.77-17.1-6.5-32.6-16.59-45.47-29.6-17.72-19.45-26.17-46.17-27.53-72.55-.47-14.28.68-28.57 3.43-42.58-9.82 17.9-15.52 37.76-16.69 58.14-1.18 20.38 2.21 40.77 9.92 59.67 7.7 18.91 19.52 35.86 34.6 49.62 15.09 13.76 33.05 23.99 52.58 29.93s40.15 7.46 60.34 4.43c20.19-3.02 39.46-10.51 56.39-21.92s31.1-26.45 41.49-44.03c10.38-17.57 16.72-37.24 18.54-57.58z" fill="url(#ap)" opacity=".15"/><path d="m1839.06 5021.45c-1.79-.01-3.57.36-5.21 1.08-1.64.73-3.11 1.79-4.31 3.13-1.2 1.33-2.1 2.91-2.64 4.62-.55 1.7-.73 3.51-.52 5.29 5.35.62 10.72.95 16.11.97 3.21 0 6.39 0 9.56-.38.3-1.85.19-3.74-.33-5.55-.53-1.8-1.44-3.47-2.68-4.88-1.24-1.4-2.78-2.52-4.51-3.26-1.72-.74-3.59-1.09-5.47-1.02z" fill="url(#ar)" opacity=".15"/><g opacity=".2"><path d="m1886.81 4827.79c0 1.73-.52 3.43-1.48 4.87s-2.33 2.56-3.93 3.22c-1.61.66-3.37.83-5.07.49s-3.26-1.18-4.48-2.4c-1.22-1.23-2.05-2.8-2.39-4.5-.33-1.7-.15-3.46.52-5.06s1.8-2.96 3.24-3.92c1.45-.95 3.14-1.46 4.88-1.45 1.14 0 2.28.23 3.34.67s2.02 1.08 2.83 1.9c.81.81 1.45 1.77 1.89 2.84.43 1.06.65 2.19.65 3.34z" fill="url(#as)"/><path d="m1872.09 4833.96c-1.21-1.22-2.04-2.77-2.37-4.46-.33-1.68-.16-3.43.5-5.02s1.78-2.95 3.21-3.91c1.43-.95 3.12-1.46 4.84-1.46s3.4.51 4.83 1.46c1.43.96 2.55 2.32 3.21 3.91s.84 3.34.5 5.02c-.33 1.69-1.15 3.24-2.37 4.46-.81.82-1.77 1.46-2.83 1.9s-2.2.67-3.34.67c-1.15 0-2.29-.23-3.35-.67s-2.02-1.08-2.83-1.9z" opacity=".3" stroke="url(#at)" stroke-miterlimit="10" stroke-width=".2"/></g><path d="m1847.65 4904.75c-.01 1.25-.39 2.47-1.09 3.51s-1.7 1.84-2.86 2.32c-1.16.47-2.43.59-3.66.34s-2.35-.86-3.24-1.75c-.88-.88-1.48-2.02-1.72-3.24-.24-1.23-.11-2.51.37-3.66.48-1.16 1.29-2.15 2.33-2.84 1.05-.7 2.27-1.07 3.52-1.07.84 0 1.67.17 2.44.49s1.48.79 2.06 1.38c.59.6 1.06 1.3 1.38 2.08.31.77.47 1.6.47 2.44z" fill="url(#au)"/><path d="m1841.3 4911.09c3.51 0 6.35-2.84 6.35-6.34 0-3.51-2.84-6.35-6.35-6.35-3.5 0-6.34 2.84-6.34 6.35 0 3.5 2.84 6.34 6.34 6.34z" fill="url(#au)" opacity=".3"/><path d="m1947.12 4816.04.38-.51.46-.63c.14-.21.27-.42.38-.64l.38-.59c.12-.22.22-.44.3-.68-5.77-7.12-12.23-13.65-19.29-19.49h-.25l-.68.3-.59.33-.63.43-.64.42-.5.42c-.39.3-.76.63-1.1.98l-.98 1.05-.38.51-.46.63-.38.64-.3.55s-.21.46-.34.67l-.29.64v.68l-.26.67c-.02.23-.02.45 0 .68-.02.24-.02.48 0 .72-.02.26-.02.53 0 .8-.02.2-.02.4 0 .59v1.48 1.44c-.02.21-.02.42 0 .63-.02.26-.02.51 0 .77-.02.23-.02.48 0 .71-.02.23-.02.46 0 .68l.26.72v.63l.29.64c0 .21 0 .46.34.67.1.21.21.41.34.6l.38.63.46.63.39.51.97 1.1 1.1.93.51.42.63.47.63.38.6.34.67.34.64.29.63.21.72.26h.68.72.76.63 1.44 1.48.59.81.71.68l.68-.26.67-.21.64-.29.68-.34.59-.34.63-.38.64-.47.5-.42 1.06-.93c.38-.38.72-.63 1.02-1.01z" fill="url(#av)" opacity=".32"/><path d="m1783.62 4950.33c12.59 0 22.8-10.2 22.8-22.79s-10.21-22.79-22.8-22.79-22.79 10.2-22.79 22.79 10.2 22.79 22.79 22.79z" fill="url(#aw)"/><path d="m1767.51 4943.52c-3.19-3.19-5.35-7.25-6.23-11.67-.87-4.42-.42-9 1.31-13.16 1.72-4.16 4.65-7.72 8.39-10.22 3.75-2.5 8.16-3.84 12.66-3.84 4.51 0 8.91 1.34 12.66 3.84s6.67 6.06 8.4 10.22c1.72 4.16 2.18 8.74 1.3 13.16-.87 4.42-3.04 8.48-6.22 11.67-2.12 2.13-4.63 3.81-7.4 4.97-2.77 1.15-5.74 1.74-8.74 1.74s-5.97-.59-8.73-1.74c-2.77-1.16-5.29-2.84-7.4-4.97z" fill="url(#ax)" opacity=".3"/><path d="m1910.45 4925.3c0 1.5-.44 2.96-1.28 4.2-.83 1.25-2.01 2.22-3.39 2.79-1.39.57-2.91.72-4.38.43s-2.81-1.01-3.87-2.07-1.78-2.41-2.07-3.87c-.3-1.47-.15-2.99.43-4.38.57-1.38 1.54-2.56 2.78-3.39 1.25-.84 2.71-1.28 4.21-1.28 2.01 0 3.93.8 5.35 2.22s2.22 3.34 2.22 5.35z" fill="url(#ay)"/><path d="m1897.47 4930.84c-1.06-1.06-1.77-2.41-2.06-3.88-.29-1.46-.14-2.98.44-4.36.57-1.38 1.54-2.56 2.79-3.39 1.24-.83 2.7-1.27 4.2-1.27 1.49 0 2.95.44 4.2 1.27 1.24.83 2.21 2.01 2.79 3.39.57 1.38.72 2.9.44 4.36-.29 1.47-1.01 2.82-2.06 3.88-.71.71-1.54 1.27-2.46 1.65-.93.39-1.91.58-2.91.58s-1.99-.19-2.91-.58c-.92-.38-1.76-.94-2.46-1.65z" fill="url(#ay)" opacity=".3"/><path d="m1774.91 4856.2c4.81 0 8.71-3.9 8.71-8.71s-3.9-8.71-8.71-8.71-8.71 3.9-8.71 8.71 3.9 8.71 8.71 8.71z" fill="url(#az)"/><path d="m1774.91 4856.2c4.81 0 8.71-3.9 8.71-8.71s-3.9-8.71-8.71-8.71-8.71 3.9-8.71 8.71 3.9 8.71 8.71 8.71z" opacity=".3" stroke="url(#aA)" stroke-miterlimit="10" stroke-width=".2"/><path d="m1961.92 4947.37c0 4.21 1.5 8.29 4.23 11.5 4.43-9.24 7.82-18.94 10.1-28.92-4.03.79-7.67 2.96-10.29 6.14-2.61 3.18-4.04 7.16-4.04 11.28z" fill="url(#aB)" opacity=".15"/><path d="m1974.31 4861.07c-3.51 1.01-6.98 2.15-10.4 3.51-16.11 5.9-30.03 16.58-39.88 30.61-6.39 9.64-10.32 21.14-18.27 29.6-9.18 9.72-22.42 14.33-35.27 17.88-24.32 6.77-49.61 11.38-71.9 23.22-6.96 3.71-13.44 8.24-19.33 13.49-9.05 7.87-16.04 17.82-20.38 29 15.64 12.04 33.7 20.54 52.95 24.91 3.98-9.12 9.75-17.35 16.97-24.2s15.75-12.18 25.07-15.68c12.26-4.22 25.37-5.49 38.06-9.89 3.79-1.18 7.32-3.08 10.4-5.58 3.86-3.86 6.93-8.42 9.05-13.45 14.25-28.41 31.59-58.18 60.65-71.07 2.46-1.1 4.99-2.06 7.57-2.88-.68-9.99-2.45-19.87-5.29-29.47z" fill="url(#aC)" opacity=".15"/><path d="m2717.13 4593.47c122.98-50.93 181.38-191.89 130.44-314.84-50.94-122.96-191.93-181.34-314.9-130.41-122.98 50.93-181.38 191.89-130.44 314.84 50.94 122.96 191.93 181.34 314.9 130.41z" fill="url(#aD)"/><path d="m2862.69 4331.73c-6.74-40.83-23.88-79.24-49.77-111.53-25.9-32.28-59.67-57.36-98.07-72.81-38.39-15.45-80.12-20.76-121.17-15.4-41.04 5.35-80.02 21.17-113.17 45.96l2.5.38c12.34 2.28 24.45 5.71 36.16 10.23 11.7 4.53 22.93 10.19 33.53 16.91 2.5 1.57 4.95 3.17 7.36 4.86 60.1 41.7 96.89 116.28 165.44 141.65 20.08 7.21 41.48 9.95 62.73 8.06 21.24-1.9 41.82-8.4 60.3-19.05 4.92-2.76 9.66-5.86 14.16-9.26z" fill="url(#aE)" opacity=".3"/><path d="m2864.85 4392.95c-12.69 16.2-25.71 32.18-39.58 47.4-35.23 38.61-77.78 72.9-128.27 86.43-53.24 14.29-110.59 4.23-161.47-16.91-29.6-12.31-58.02-28.63-79.76-52.14-31.46-33.82-46.52-80.93-48.38-127.23-.82-25.18 1.21-50.37 6.05-75.09-17.23 31.4-27.24 66.26-29.31 102.02-2.06 35.77 3.87 71.54 17.37 104.72 13.51 33.18 34.24 62.94 60.69 87.1 26.45 24.17 57.96 42.13 92.22 52.59 34.27 10.46 70.44 13.15 105.88 7.87s69.26-18.39 98.99-38.37c29.74-19.99 54.64-46.35 72.9-77.17 18.26-30.83 29.42-65.33 32.67-101z" fill="url(#aF)" opacity=".15"/><path d="m2489.1 4198.62c-12.69 0-12.69 19.75 0 19.75s12.73-19.75 0-19.75z" fill="url(#aG)"/><path d="m2640.24 4516c-23.42 0-23.47 36.4 0 36.4 23.48 0 23.48-36.4 0-36.4z" fill="url(#aH)"/><path d="m2682.33 4239.97c-16.33 0-16.37 25.37 0 25.37 16.36 0 16.32-25.37 0-25.37z" fill="url(#aI)"/><path d="m2619.06 4585.34c-15.65 0-23.18 12.69-22.63 24.74 9.45 1.13 18.95 1.71 28.46 1.73 5.67 0 11.25-.25 16.92-.63.93-12.48-6.6-25.84-22.75-25.84z" fill="url(#aJ)"/><path d="m2541.96 4490.84c19.62 0 35.53-15.9 35.53-35.52s-15.91-35.52-35.53-35.52-35.52 15.9-35.52 35.52 15.9 35.52 35.52 35.52z" fill="url(#aK)"/><path d="m2516.84 4480.44c-4.96-4.97-8.35-11.3-9.72-18.19s-.66-14.03 2.02-20.52c2.69-6.49 7.25-12.03 13.09-15.94 5.84-3.9 12.71-5.98 19.73-5.98 7.03 0 13.9 2.08 19.74 5.98 5.84 3.91 10.39 9.45 13.08 15.94s3.4 13.63 2.03 20.52c-1.38 6.89-4.76 13.22-9.73 18.19-3.29 3.3-7.21 5.91-11.52 7.7-4.31 1.78-8.93 2.7-13.6 2.7-4.66 0-9.28-.92-13.59-2.7-4.31-1.79-8.23-4.4-11.53-7.7z" opacity=".3" stroke="url(#aL)" stroke-miterlimit="10" stroke-width=".8"/><path d="m2618.13 4237.93c4.5-19.09-7.32-38.22-26.42-42.72-19.09-4.51-38.22 7.31-42.73 26.41-4.51 19.09 7.32 38.22 26.41 42.72 19.1 4.51 38.23-7.32 42.74-26.41z" fill="url(#aM)"/><path d="m2583.53 4265.34c19.62 0 35.53-15.9 35.53-35.51 0-19.62-15.91-35.52-35.53-35.52s-35.52 15.9-35.52 35.52c0 19.61 15.9 35.51 35.52 35.51z" opacity=".3" stroke="url(#aN)" stroke-miterlimit="10" stroke-width=".8"/><path d="m2642.49 4363.86c8.45 0 15.31-6.85 15.31-15.31 0-8.45-6.86-15.3-15.31-15.3-8.46 0-15.31 6.85-15.31 15.3 0 8.46 6.85 15.31 15.31 15.31z" fill="url(#aO)"/><path d="m2642.49 4363.86c8.45 0 15.31-6.85 15.31-15.31 0-8.45-6.86-15.3-15.31-15.3-8.46 0-15.31 6.85-15.31 15.3 0 8.46 6.85 15.31 15.31 15.31z" opacity=".3" stroke="url(#aP)" stroke-miterlimit="10" stroke-width=".35"/><path d="m2695.52 4194.65c2.99 0 5.41-2.43 5.41-5.42s-2.42-5.41-5.41-5.41-5.41 2.42-5.41 5.41 2.42 5.42 5.41 5.42z" fill="url(#aQ)"/><path d="m2691.67 4193.04c-.75-.76-1.26-1.73-1.46-2.77-.21-1.05-.1-2.14.31-3.12.42-.99 1.11-1.83 2-2.42.89-.6 1.93-.91 3-.91s2.11.31 3 .91c.89.59 1.58 1.43 2 2.42.41.98.52 2.07.31 3.12-.2 1.04-.71 2.01-1.46 2.77-.51.51-1.1.91-1.77 1.19-.66.27-1.36.41-2.08.41s-1.42-.14-2.09-.41c-.66-.28-1.26-.68-1.76-1.19z" opacity=".3" stroke="url(#aR)" stroke-miterlimit="10" stroke-width=".12"/><path d="m2615 4156.84c0 1.07-.32 2.12-.91 3.01-.6.89-1.44 1.58-2.43 1.99s-2.08.52-3.13.31-2.02-.72-2.77-1.48c-.76-.76-1.28-1.72-1.48-2.77-.21-1.05-.11-2.14.3-3.13s1.11-1.83 2-2.43c.89-.59 1.93-.91 3.01-.91 1.43 0 2.81.57 3.82 1.59 1.02 1.01 1.59 2.39 1.59 3.82z" fill="url(#aS)"/><path d="m2609.59 4162.26c2.98 0 5.41-2.43 5.41-5.42 0-2.98-2.43-5.41-5.41-5.41-2.99 0-5.42 2.43-5.42 5.41 0 2.99 2.43 5.42 5.42 5.42z" fill="url(#aS)" opacity=".3"/><path d="m2808.73 4224.75c.25-.28.48-.57.68-.89.29-.38.59-.71.84-1.1.2-.38.43-.74.68-1.09l.59-1.06c.21-.38.38-.81.55-1.19-10.11-12.49-21.44-23.95-33.83-34.2l-.47.21c-.39.16-.77.34-1.14.55-.36.17-.72.37-1.06.59l-1.14.68-1.05.8-.93.72c-1.34 1.05-2.55 2.26-3.6 3.59l-.68.89-.84 1.1c0 .38-.42.76-.68 1.14-.25.38-.42.68-.59 1.02s-.38.8-.55 1.18-.38.72-.55 1.1-.25.8-.42 1.18-.3.81-.43 1.23c-.07.39-.17.77-.29 1.14 0 .42-.21.85-.3 1.27-.08.42 0 .93 0 1.4v1.1 2.53 2.54 1.1 1.39c0 .47 0 .85.3 1.27.12.39.22.79.29 1.19l.43 1.18c0 .42.29.8.42 1.18s.34.72.55 1.1.34.81.55 1.19.42.67.59 1.01.47.76.68 1.14.55.72.84 1.1l.68.89c1.05 1.34 2.26 2.54 3.6 3.6l.93.71 1.05.81 1.14.67c.34.23.7.42 1.06.6l1.14.59 1.1.51 1.19.42 1.22.42 1.15.3 1.26.29 1.4.21h1.1 2.54 2.53 1.1l1.4-.21 1.27-.29 1.18-.3 1.23-.42 1.14-.42 1.1-.51 1.18-.59 1.02-.6 1.14-.67 1.1-.85c.31-.2.61-.43.89-.67 1.33-1.06 2.54-2.26 3.59-3.6z" fill="url(#aT)" opacity=".3"/><path d="m2569.96 4345.72c0 3.6-1.07 7.11-3.06 10.1-2 2.99-4.84 5.32-8.17 6.7-3.32 1.38-6.98 1.74-10.5 1.04-3.53-.71-6.77-2.44-9.31-4.98-2.55-2.54-4.28-5.78-4.98-9.31s-.34-7.18 1.03-10.5c1.38-3.33 3.71-6.17 6.7-8.16 2.99-2 6.51-3.07 10.1-3.07 4.82.01 9.44 1.93 12.85 5.34s5.33 8.02 5.34 12.84z" fill="url(#aU)"/><path d="m2538.92 4358.58c-2.55-2.55-4.28-5.79-4.98-9.31-.7-3.53-.34-7.19 1.03-10.51 1.38-3.32 3.71-6.16 6.7-8.16s6.51-3.06 10.1-3.06c3.6 0 7.12 1.06 10.11 3.06s5.32 4.84 6.7 8.16c1.37 3.32 1.73 6.98 1.03 10.51-.7 3.52-2.44 6.76-4.98 9.31-3.41 3.4-8.03 5.32-12.86 5.32-4.82 0-9.44-1.92-12.85-5.32z" fill="url(#aV)" opacity=".3"/><path d="m2506.44 4302.34c0 3.04-.9 6.01-2.59 8.53-1.69 2.53-4.09 4.49-6.9 5.65-2.8 1.16-5.89 1.47-8.87.87s-5.72-2.06-7.86-4.21c-2.15-2.15-3.61-4.89-4.19-7.87-.59-2.98-.28-6.07.89-8.87 1.17-2.81 3.14-5.2 5.67-6.88s5.5-2.58 8.54-2.57c2.01 0 4.01.4 5.87 1.17s3.55 1.9 4.97 3.33c1.42 1.42 2.55 3.12 3.32 4.98.76 1.86 1.15 3.86 1.15 5.87z" fill="url(#aW)"/><path d="m2491.13 4317.65c8.45 0 15.31-6.86 15.31-15.31s-6.86-15.31-15.31-15.31c-8.46 0-15.31 6.86-15.31 15.31s6.85 15.31 15.31 15.31z" opacity=".3" stroke="url(#aX)" stroke-miterlimit="10" stroke-width=".35"/><path d="m2750.79 4440.44c5.4 4.03 9.48 9.56 11.73 15.91 2.25 6.34 2.56 13.21.91 19.73-1.66 6.53-5.21 12.42-10.21 16.92-5 4.51-11.23 7.43-17.89 8.4s-13.46-.06-19.54-2.95c-6.08-2.9-11.16-7.53-14.61-13.31-3.44-5.78-5.1-12.46-4.75-19.18s2.68-13.19 6.7-18.59c2.66-3.6 6-6.65 9.85-8.96 3.84-2.3 8.1-3.82 12.53-4.47 4.44-.64 8.96-.4 13.3.72 4.34 1.11 8.41 3.08 11.98 5.78z" fill="url(#aY)"/><path d="m2735.36 4501.41c-6.66.96-13.46-.07-19.54-2.96-6.08-2.9-11.16-7.53-14.6-13.32-3.45-5.78-5.1-12.45-4.75-19.18.35-6.72 2.69-13.18 6.71-18.58 4.03-5.39 9.56-9.48 15.91-11.73 6.34-2.25 13.21-2.57 19.73-.92 6.53 1.66 12.42 5.21 16.93 10.2 4.51 5 7.43 11.22 8.41 17.88.67 4.43.46 8.95-.62 13.3-1.09 4.35-3.03 8.43-5.71 12.03-2.68 3.59-6.05 6.61-9.9 8.89-3.86 2.28-8.13 3.77-12.57 4.39z" opacity=".3" stroke="url(#aZ)" stroke-miterlimit="10" stroke-width=".77"/><path d="m2821.76 4328.64c0 11.16-3.31 22.06-9.51 31.34-6.2 9.27-15.01 16.5-25.32 20.77s-21.65 5.39-32.59 3.21c-10.95-2.17-21-7.55-28.89-15.43-7.89-7.89-13.26-17.94-15.44-28.89-2.18-10.94-1.06-22.28 3.21-32.59 4.27-10.3 11.5-19.11 20.78-25.31s20.18-9.51 31.34-9.51c14.96 0 29.31 5.95 39.89 16.53 10.58 10.57 16.53 24.92 16.53 39.88z" fill="url(#a0)"/><path d="m2765.34 4385.05c31.16 0 56.42-25.26 56.42-56.41s-25.26-56.41-56.42-56.41-56.41 25.26-56.41 56.41 25.25 56.41 56.41 56.41z" opacity=".3" stroke="url(#a1)" stroke-miterlimit="10" stroke-width="1.28"/><g fill="#fff"><path d="m2655.81 4091.72h-.04v-.04z" opacity=".53"/><path d="m2669.98 5119.5c.6-.05 1.2-.05 1.79 0 .26.02.52-.05.72-.22.21-.16.34-.4.37-.65 4.93-25.29 19.67-41.51 42.13-46.09.27-.08.5-.26.64-.5.15-.24.2-.53.14-.81 0 0 0-.3 0-.47-.01-.23-.1-.45-.25-.61-.15-.17-.35-.28-.58-.31-23.76-4.93-38.94-22.85-42.86-50.88h-.79-.52c-.24.02-.46.12-.63.29-.16.17-.27.39-.29.63-4.36 27.99-19.79 45.69-44.08 50.09-.22.05-.42.18-.57.35s-.24.38-.26.61c-.04.28.02.56.17.79.16.23.39.4.66.47 23.41 4.36 38.72 20.89 43.6 47.13z"/><path d="m637.44 5775.69c.61-.04 1.222-.04 1.832 0 .129.02.261.01.387-.02.126-.04.244-.1.346-.18s.186-.18.248-.3c.061-.11.098-.24.109-.37 5.102-26.16 20.32-42.81 43.605-47.52.277-.09.512-.28.664-.53.152-.24.21-.54.165-.82 0 0 0-.31 0-.48-.012-.24-.099-.46-.248-.64-.15-.18-.353-.31-.581-.37-24.549-5.05-40.16-23.54-44.216-52.31h-.784-.567c-.248.02-.481.12-.657.3-.175.18-.283.41-.303.66-4.36 28.86-20.407 47.08-45.437 51.66-.229.06-.435.19-.591.37-.155.17-.253.4-.281.63-.052.29.01.59.173.83.162.25.413.42.699.48 24.114 4.36 39.899 21.58 44.914 48.61z" opacity=".78"/><path d="m246.69 5761.17c0 1.2-.475 2.35-1.321 3.2-.847.84-1.995 1.32-3.192 1.32s-2.345-.48-3.191-1.32c-.846-.85-1.322-2-1.322-3.2 0-1.19.476-2.34 1.322-3.19.846-.84 1.994-1.32 3.191-1.32s2.345.48 3.192 1.32c.846.85 1.321 2 1.321 3.19z" opacity=".62"/><path d="m3099.46 5208.13c2.38 0 4.31-1.93 4.31-4.31 0-2.39-1.93-4.32-4.31-4.32-2.39 0-4.32 1.93-4.32 4.32 0 2.38 1.93 4.31 4.32 4.31z" opacity=".95"/><path d="m2387.07 5287.13c7.88 0 14.26-6.38 14.26-14.25 0-7.88-6.38-14.26-14.26-14.26-7.87 0-14.26 6.38-14.26 14.26 0 7.87 6.39 14.25 14.26 14.25z" opacity=".98"/><path d="m1952.45 4920.52c7.88 0 14.26-6.39 14.26-14.26s-6.38-14.26-14.26-14.26c-7.87 0-14.25 6.39-14.25 14.26s6.38 14.26 14.25 14.26z" opacity=".98"/><path d="m2423.35 5177.66c0 .72-.21 1.42-.61 2.02-.4.59-.97 1.05-1.63 1.33-.67.27-1.4.34-2.1.2-.7-.15-1.35-.5-1.85-1.01-.51-.51-.85-1.16-.98-1.86-.14-.71-.06-1.43.22-2.1.28-.66.75-1.22 1.35-1.61s1.31-.6 2.02-.59c.48 0 .95.1 1.38.28.44.18.84.45 1.17.78.33.34.59.74.77 1.18s.27.91.26 1.38z" opacity=".5"/><path d="m2442.49 4952.25c0 .7-.27 1.36-.76 1.85s-1.16.77-1.85.77c-.7 0-1.36-.28-1.85-.77s-.77-1.15-.77-1.85c0-.69.28-1.35.77-1.85.49-.49 1.15-.76 1.85-.76.69 0 1.36.27 1.85.76.49.5.76 1.16.76 1.85z" opacity=".53"/><path d="m2583.08 5270.22c0 1.25-.37 2.47-1.07 3.51-.69 1.04-1.68 1.85-2.83 2.33-1.16.48-2.43.6-3.66.36-1.22-.25-2.35-.85-3.24-1.73-.88-.89-1.48-2.01-1.73-3.24-.24-1.22-.11-2.5.36-3.65.48-1.16 1.29-2.14 2.33-2.84 1.04-.69 2.27-1.06 3.52-1.06 1.67 0 3.28.66 4.47 1.85 1.18 1.18 1.85 2.79 1.85 4.47z" opacity=".65"/><path d="m2945.31 4944.23c0 .61-.24 1.18-.67 1.61-.42.42-1 .66-1.6.66-.34.1-.69.11-1.04.05-.34-.06-.67-.21-.95-.42s-.51-.48-.66-.8c-.16-.31-.24-.66-.24-1.01s.08-.7.24-1.01c.15-.31.38-.59.66-.8s.61-.35.95-.42c.35-.06.7-.04 1.04.05.57 0 1.12.21 1.55.6.42.39.67.92.72 1.49z" opacity=".91"/><path d="m2017.25 4972.62c.12 0 .22-.1.22-.22s-.1-.22-.22-.22-.22.1-.22.22.1.22.22.22z" opacity=".92"/><path d="m1842.26 4960.32c0 .52-.2 1.02-.57 1.39s-.87.57-1.39.57-1.03-.2-1.4-.57c-.38-.36-.59-.86-.61-1.39.02-.53.23-1.03.6-1.4.38-.38.88-.59 1.41-.6.53.01 1.02.22 1.39.6.37.37.57.88.57 1.4z" opacity=".64"/><path d="m516.349 5459.34c0 1.74-.518 3.43-1.486 4.87s-2.343 2.56-3.95 3.21c-1.606.65-3.37.81-5.068.46-1.697-.36-3.25-1.21-4.461-2.45s-2.023-2.82-2.335-4.52c-.311-1.71-.107-3.47.586-5.06.694-1.58 1.846-2.93 3.308-3.86 1.463-.93 3.17-1.41 4.903-1.36 2.275.05 4.438 1 6.027 2.62 1.588 1.63 2.477 3.82 2.476 6.09z" opacity=".73"/><path d="m672.848 5447.22c2.192 0 3.968-1.77 3.968-3.96 0-2.2-1.776-3.97-3.968-3.97s-3.968 1.77-3.968 3.97c0 2.19 1.776 3.96 3.968 3.96z" opacity=".91"/><path d="m141.558 5241.49c4.142 0 7.5-3.36 7.5-7.5s-3.358-7.5-7.5-7.5-7.5 3.36-7.5 7.5 3.358 7.5 7.5 7.5z" opacity=".7"/><path d="m286.46 5278.63c2.432 0 4.404-1.97 4.404-4.4s-1.972-4.41-4.404-4.41c-2.433 0-4.404 1.98-4.404 4.41s1.971 4.4 4.404 4.4z" opacity=".76"/><path d="m1141.48 5028.73c0 1.14-.34 2.25-.98 3.2-.63.95-1.53 1.68-2.59 2.12-1.05.43-2.21.54-3.33.32-1.11-.23-2.14-.78-2.94-1.59-.81-.81-1.35-1.84-1.57-2.96s-.1-2.27.35-3.32c.44-1.06 1.18-1.95 2.14-2.58.95-.63 2.07-.96 3.21-.95 1.51.01 2.97.63 4.04 1.7 1.07 1.08 1.67 2.54 1.67 4.06z" opacity=".53"/><path d="m905.005 5201.81c0 .36-.07.71-.206 1.04s-.335.62-.586.87c-.251.26-.549.45-.877.59s-.68.21-1.035.21c-.663-.09-1.273-.41-1.716-.91-.442-.5-.686-1.15-.686-1.82s.244-1.31.686-1.81c.443-.51 1.053-.83 1.716-.91.721.01 1.409.3 1.915.82.505.51.789 1.2.789 1.92z" opacity=".63"/><path d="m103.535 5036.79c.008.45-.117.9-.361 1.28-.244.37-.595.67-1.009.85-.413.18-.87.23-1.313.15-.443-.09-.851-.3-1.1722-.61-.3215-.32-.5418-.72-.6329-1.16s-.0488-.9.1214-1.32c.1703-.42.4608-.77.8347-1.02.374-.26.814-.39 1.264-.39.296-.01.59.05.865.16.274.11.525.27.736.48.211.2.379.45.493.72.115.28.174.57.174.86z" opacity=".8"/><path d="m867.722 5435.19c.008.33-.081.66-.258.94-.177.27-.433.49-.734.62-.302.14-.637.18-.961.12s-.624-.22-.86-.45-.398-.52-.466-.84c-.067-.33-.037-.66.087-.97.124-.3.336-.56.61-.75.273-.18.595-.28.925-.28.432 0 .847.17 1.156.47.31.3.489.71.501 1.14z" opacity=".51"/><path d="m1227.4 4043.78c0 .16-.04.31-.13.44s-.21.23-.35.29c-.15.06-.3.07-.46.04-.15-.03-.29-.1-.4-.21s-.18-.25-.21-.4-.02-.31.04-.46c.06-.14.16-.26.29-.35.13-.08.28-.13.44-.13.1 0 .2.02.3.06.09.04.18.1.25.17.08.07.13.16.17.25.04.1.06.2.06.3z" opacity=".84"/><path d="m641.257 4321.46c0 1.25-.371 2.48-1.066 3.51-.695 1.04-1.682 1.85-2.837 2.33-1.156.48-2.427.61-3.654.36-1.226-.24-2.353-.84-3.237-1.73-.884-.88-1.486-2.01-1.73-3.23-.244-1.23-.119-2.5.36-3.66.478-1.15 1.288-2.14 2.328-2.83 1.04-.7 2.263-1.07 3.513-1.07.83 0 1.652.16 2.42.48.767.32 1.464.79 2.051 1.37.587.59 1.053 1.29 1.37 2.05.318.77.482 1.59.482 2.42z" opacity=".76"/><path d="m581.016 3251.66c-.595.04-1.193.04-1.788 0-.259-.03-.518.05-.722.21-.203.16-.335.4-.368.66-4.927 25.29-19.666 41.5-42.123 46.08-.27.08-.5.26-.645.5-.145.25-.195.53-.14.81v.48c.008.22.096.44.248.61.151.17.357.27.581.3 23.765 4.93 38.939 22.85 42.864 50.88h.785.523c.236-.02.458-.12.625-.29.168-.16.271-.39.291-.62 4.36-27.99 19.797-45.69 44.085-50.1.221-.05.419-.17.568-.34.149-.18.24-.39.261-.62.041-.27-.02-.55-.173-.79-.153-.23-.387-.4-.656-.47-23.416-4.36-38.722-20.88-43.606-47.13z"/><path d="m230.602 2396.87c-.609.07-1.222.07-1.831 0-.523 0-.96.31-1.09.92-5.102 26.16-20.321 42.77-43.606 47.52-.27.08-.5.26-.645.5s-.195.53-.14.81v.52c.021.23.112.44.261.61.148.18.347.3.568.35 24.55 5.06 40.16 23.59 44.216 52.32h.785.697c.248-.02.481-.13.656-.31.176-.17.284-.4.303-.65 4.361-28.82 20.408-47.09 45.481-51.66.224-.05.427-.17.576-.34.15-.18.239-.4.253-.62.043-.29-.017-.57-.169-.81s-.387-.42-.66-.5c-24.157-4.36-39.942-21.54-44.957-48.61z" opacity=".2"/><path d="m2613.56 2595.46c-.61.05-1.22.05-1.83 0-.13-.02-.26-.01-.39.03-.13.03-.24.09-.35.17-.1.08-.18.19-.24.3-.06.12-.1.24-.11.37-5.1 26.16-20.32 42.82-43.61 47.53-.27.09-.51.27-.66.52s-.21.54-.17.83v.48c.02.23.1.46.25.64s.35.3.58.36c24.55 5.06 40.16 23.54 44.22 52.32h.78.57c.25-.02.48-.13.66-.31.17-.17.28-.4.3-.65 4.36-28.86 20.41-47.09 45.44-51.67.23-.05.43-.18.59-.36.15-.18.25-.4.28-.64.05-.29-.01-.58-.17-.83-.17-.24-.42-.41-.7-.48-24.12-4.36-39.9-21.58-44.92-48.61z" opacity=".78"/><path d="m2909.47 1706.15c-.5.04-.99.04-1.49 0-.21-.01-.42.06-.58.2-.16.13-.27.33-.29.54-4.1 20.93-16.26 34.31-34.88 38.15-.22.06-.41.2-.53.4-.12.19-.17.42-.13.65v.39c.01.18.08.36.2.5.11.15.28.24.46.28 19.71 4.06 32.22 18.93 35.49 42.12h.61.44c.2 0 .39-.08.54-.21.15-.14.23-.33.24-.53 3.54-23.15 16.4-37.8 36.5-41.51.19-.03.35-.12.47-.27.12-.14.19-.32.19-.51.02-.11.03-.23.01-.34-.02-.12-.06-.22-.12-.32s-.14-.18-.24-.25c-.09-.06-.2-.11-.31-.14-19.36-3.53-32.05-17.44-36.06-39.02z"/><path d="m3004.31 2609.98c0-1.2.48-2.34 1.32-3.19.85-.85 2-1.32 3.19-1.32 1.2 0 2.35.47 3.19 1.32.85.85 1.33 1.99 1.33 3.19s-.48 2.34-1.33 3.19c-.84.85-1.99 1.32-3.19 1.32-1.19 0-2.34-.47-3.19-1.32-.84-.85-1.32-1.99-1.32-3.19z" opacity=".62"/><path d="m2867.13 2524.84h.04v.04z" opacity=".53"/><path d="m2400.94 1678.73c0-1.33.39-2.63 1.13-3.73.74-1.11 1.79-1.97 3.02-2.48 1.22-.51 2.57-.64 3.87-.38 1.31.26 2.5.9 3.44 1.84s1.58 2.13 1.84 3.44c.26 1.3.13 2.65-.38 3.88-.51 1.22-1.37 2.27-2.47 3.01-1.11.74-2.41 1.13-3.74 1.13-1.78 0-3.48-.71-4.74-1.97s-1.97-2.96-1.97-4.74z" opacity=".97"/><path d="m2291.18 1913.77c.06-.33.23-.62.48-.83s.57-.32.9-.32c.32 0 .64.11.89.32s.42.5.48.83c.04.2.03.4-.02.6-.06.2-.15.38-.28.54-.13.15-.3.28-.48.37-.19.08-.39.13-.59.13-.21 0-.41-.05-.59-.13-.19-.09-.35-.22-.48-.37-.13-.16-.23-.34-.28-.54s-.06-.4-.03-.6z" opacity=".59"/><path d="m541.118 1990.67c-.193 0-.349.16-.349.35s.156.35.349.35.349-.16.349-.35-.156-.35-.349-.35z" opacity=".88"/><path d="m99.0005 1981.82c-.0086-1.32.3754-2.61 1.1035-3.72.728-1.1 1.767-1.96 2.985-2.47s2.561-.65 3.858-.4 2.49.89 3.427 1.82 1.577 2.12 1.838 3.41c.261 1.3.132 2.64-.372 3.86s-1.359 2.27-2.457 3c-1.098.74-2.389 1.13-3.711 1.13-1.762 0-3.452-.7-4.702-1.94-1.2499-1.24-1.9579-2.93-1.9695-4.69z" opacity=".6"/><path d="m227.464 2039.72c-1.541 0-2.79 1.25-2.79 2.79s1.249 2.79 2.79 2.79c1.542 0 2.791-1.25 2.791-2.79s-1.249-2.79-2.791-2.79z" opacity=".58"/><path d="m151.544 3163.02c-2.384 0-4.316 1.93-4.316 4.32 0 2.38 1.932 4.31 4.316 4.31 2.385 0 4.317-1.93 4.317-4.31 0-2.39-1.932-4.32-4.317-4.32z" opacity=".95"/><path d="m863.928 3084.02c-7.875 0-14.258 6.38-14.258 14.26 0 7.87 6.383 14.25 14.258 14.25s14.26-6.38 14.26-14.25c0-7.88-6.385-14.26-14.26-14.26z" opacity=".98"/><path d="m1298.55 3450.64c-7.88 0-14.26 6.38-14.26 14.25 0 7.88 6.38 14.26 14.26 14.26 7.87 0 14.25-6.38 14.25-14.26 0-7.87-6.38-14.25-14.25-14.25z" opacity=".98"/><path d="m827.65 3193.49c0-.71.214-1.41.613-2.01.4-.6.968-1.06 1.632-1.33.664-.28 1.394-.34 2.097-.2s1.348.49 1.852 1c.505.51.846 1.16.98 1.87.135.7.057 1.43-.223 2.09-.281.66-.752 1.22-1.353 1.61-.601.4-1.305.6-2.022.59-.473 0-.942-.09-1.379-.27-.436-.19-.832-.45-1.165-.79s-.595-.74-.772-1.17c-.177-.44-.266-.91-.26-1.39z" opacity=".5"/><path d="m808.507 3418.9c0-.69.275-1.36.766-1.85s1.156-.77 1.85-.77 1.359.28 1.85.77.766 1.16.766 1.85-.275 1.36-.766 1.85-1.156.77-1.85.77-1.359-.28-1.85-.77-.766-1.16-.766-1.85z" opacity=".53"/><path d="m667.922 3100.94c0-1.25.37-2.48 1.065-3.52s1.683-1.85 2.838-2.32c1.155-.48 2.426-.61 3.653-.36 1.226.24 2.353.84 3.237 1.73.885.88 1.487 2.01 1.731 3.23.244 1.23.119 2.5-.36 3.66-.478 1.15-1.289 2.14-2.329 2.83-1.04.7-2.262 1.07-3.513 1.07-1.677 0-3.285-.67-4.47-1.85-1.186-1.19-1.852-2.8-1.852-4.47z" opacity=".65"/><path d="m305.692 3426.92c0-.6.239-1.18.664-1.6.425-.43 1.002-.67 1.603-.67.338-.09.693-.11 1.038-.05.345.07.67.21.951.42.28.21.507.49.664.8.156.32.238.66.238 1.01s-.082.7-.238 1.01c-.157.32-.384.59-.664.8-.281.21-.606.36-.951.42-.345.07-.7.05-1.038-.05-.572 0-1.124-.21-1.544-.6-.421-.39-.679-.92-.723-1.49z" opacity=".91"/><path d="m1233.75 3398.54c-.12 0-.22.1-.22.22s.1.21.22.21.22-.09.22-.21-.1-.22-.22-.22z" opacity=".92"/><path d="m1408.74 3410.83c0-.52.2-1.02.57-1.38.37-.37.87-.58 1.39-.58s1.03.21 1.4.57c.38.37.59.87.61 1.39-.02.53-.23 1.03-.6 1.41-.38.37-.88.59-1.41.6-.53-.01-1.02-.23-1.39-.6-.37-.38-.57-.88-.57-1.41z" opacity=".64"/><path d="m2734.65 2911.81c0-1.73.52-3.43 1.49-4.87s2.34-2.55 3.95-3.21c1.6-.65 3.37-.81 5.06-.45 1.7.35 3.26 1.2 4.47 2.44 1.21 1.25 2.02 2.82 2.33 4.53.31 1.7.11 3.46-.59 5.05-.69 1.59-1.84 2.94-3.3 3.87-1.47.93-3.17 1.4-4.91 1.36-2.27-.06-4.43-1-6.02-2.63s-2.48-3.82-2.48-6.09z" opacity=".73"/><path d="m2578.15 2923.93c-2.19 0-3.97 1.78-3.97 3.97s1.78 3.97 3.97 3.97 3.97-1.78 3.97-3.97-1.78-3.97-3.97-3.97z" opacity=".91"/><path d="m3109.44 3129.67c-4.14 0-7.5 3.36-7.5 7.5s3.36 7.5 7.5 7.5 7.5-3.36 7.5-7.5-3.36-7.5-7.5-7.5z" opacity=".7"/><path d="m2964.54 3092.52c-2.43 0-4.4 1.97-4.4 4.41 0 2.43 1.97 4.4 4.4 4.4s4.4-1.97 4.4-4.4c0-2.44-1.97-4.41-4.4-4.41z" opacity=".76"/><path d="m2109.52 3342.43c0-1.14.34-2.26.98-3.21.63-.94 1.53-1.68 2.59-2.11 1.05-.44 2.21-.55 3.33-.32 1.11.22 2.14.77 2.94 1.58.81.81 1.35 1.84 1.57 2.96s.1 2.28-.35 3.33c-.44 1.05-1.18 1.95-2.14 2.57-.95.63-2.07.96-3.21.95-1.51-.01-2.97-.62-4.04-1.7s-1.67-2.53-1.67-4.05z" opacity=".53"/><path d="m2438.74 2419.94c0-1.61.46-3.18 1.35-4.52s2.15-2.39 3.63-3.01 3.11-.78 4.69-.48c1.58.31 3.03 1.08 4.16 2.21 1.14 1.14 1.92 2.58 2.24 4.15.31 1.58.15 3.21-.46 4.7-.61 1.48-1.65 2.75-2.99 3.64-1.33.9-2.9 1.37-4.51 1.37-2.14 0-4.2-.85-5.72-2.36s-2.37-3.56-2.39-5.7z" opacity=".75"/><path d="m2819.73 1597.37c.01 2.1-.61 4.15-1.77 5.9s-2.81 3.11-4.74 3.92c-1.94.81-4.07 1.03-6.13.62-2.06-.4-3.95-1.41-5.44-2.89-1.48-1.48-2.5-3.36-2.91-5.42s-.2-4.19.6-6.13 2.16-3.59 3.9-4.76c1.74-1.16 3.79-1.79 5.89-1.79 2.8 0 5.49 1.11 7.48 3.09 1.98 1.98 3.1 4.66 3.12 7.46z" opacity=".88"/><path d="m3043.12 1549.15c-.01-1.9.55-3.77 1.6-5.36 1.06-1.59 2.56-2.83 4.32-3.57s3.7-.93 5.57-.57c1.87.37 3.59 1.28 4.94 2.63 1.36 1.35 2.28 3.06 2.65 4.93.38 1.87.19 3.81-.54 5.58-.72 1.76-1.96 3.27-3.55 4.33-1.58 1.06-3.45 1.62-5.35 1.62-2.55 0-5-1-6.8-2.8-1.81-1.8-2.83-4.24-2.84-6.79z" opacity=".79"/><path d="m1225.51 1557.83c-.01-.33.08-.65.25-.93.18-.28.44-.5.74-.63s.63-.17.96-.11c.32.06.62.21.86.44.23.23.4.52.46.85.07.32.04.65-.08.96-.13.31-.34.57-.61.75-.28.18-.6.28-.93.28-.43 0-.84-.17-1.15-.47s-.49-.71-.5-1.14z" opacity=".72"/><path d="m391.725 1793c0-.16.046-.31.132-.44.087-.13.209-.23.353-.29.143-.06.301-.07.453-.04s.292.1.402.21.184.25.215.4c.03.16.015.31-.045.46-.059.14-.16.26-.289.35s-.281.13-.436.13c-.103 0-.205-.02-.3-.06-.096-.04-.182-.1-.255-.17s-.131-.16-.17-.25c-.04-.1-.06-.2-.06-.3z" opacity=".84"/><path d="m139.117 1551.55c0-1.55.461-3.07 1.323-4.36.863-1.29 2.088-2.3 3.523-2.89 1.434-.59 3.012-.75 4.534-.45 1.523.31 2.922 1.05 4.019 2.15 1.098 1.1 1.846 2.5 2.149 4.02s.147 3.1-.447 4.53c-.594 1.44-1.6 2.66-2.891 3.53-1.291.86-2.808 1.32-4.361 1.32-1.032 0-2.055-.19-3.01-.59-.955-.39-1.823-.97-2.553-1.7s-1.308-1.59-1.7-2.55c-.392-.95-.591-1.98-.586-3.01z" opacity=".74"/><path d="m977.87 1515.32c0-1.25.371-2.47 1.066-3.51.694-1.04 1.682-1.85 2.837-2.33 1.156-.48 2.427-.6 3.653-.36 1.227.24 2.354.85 3.238 1.73.884.89 1.486 2.01 1.73 3.24.244 1.22.119 2.5-.36 3.65-.478 1.16-1.288 2.14-2.328 2.84-1.04.69-2.263 1.06-3.513 1.06-.83 0-1.653-.16-2.42-.48s-1.464-.78-2.051-1.37-1.053-1.28-1.37-2.05c-.318-.77-.482-1.59-.482-2.42z" opacity=".76"/><path d="m2346 3169.34c0-.35.07-.71.2-1.03.14-.33.34-.63.59-.88s.55-.45.87-.59c.33-.13.68-.2 1.04-.2.66.08 1.27.41 1.71.91.45.5.69 1.14.69 1.81s-.24 1.32-.69 1.82c-.44.5-1.05.82-1.71.91-.72-.01-1.41-.31-1.92-.82-.5-.52-.78-1.21-.78-1.93z" opacity=".63"/><path d="m3147.47 3334.36c-.01-.45.11-.89.36-1.27.24-.38.59-.68 1-.86.42-.17.88-.22 1.32-.14s.85.29 1.17.61c.32.31.54.72.63 1.16s.05.9-.12 1.31c-.17.42-.46.78-.83 1.03-.38.25-.82.38-1.27.38-.29.01-.59-.04-.86-.15-.28-.11-.53-.28-.74-.48-.21-.21-.38-.46-.49-.73-.12-.27-.17-.56-.17-.86z" opacity=".8"/><path d="m2383.28 2935.96c-.01-.33.08-.65.26-.93.17-.28.43-.5.73-.63s.64-.17.96-.11c.33.06.62.21.86.44s.4.53.47.85c.06.32.03.66-.09.96-.12.31-.34.57-.61.75-.27.19-.6.28-.92.28-.44 0-.85-.16-1.16-.47-.31-.3-.49-.71-.5-1.14z" opacity=".51"/><path d="m1644.3 1516.54c-1.55 0-2.8 1.25-2.8 2.79s1.25 2.79 2.8 2.79c1.54 0 2.79-1.25 2.79-2.79s-1.25-2.79-2.79-2.79z" opacity=".8"/><path d="m2023.6 4327.37c0-.16.04-.31.13-.44s.21-.23.35-.29c.15-.05.3-.07.46-.04.15.03.29.1.4.21s.18.25.21.41c.03.15.02.31-.04.45s-.16.27-.29.35c-.13.09-.28.13-.44.13-.1 0-.2-.02-.3-.06-.09-.03-.18-.09-.25-.17-.08-.07-.13-.15-.17-.25s-.06-.2-.06-.3z" opacity=".84"/><path d="m2609.74 4049.69c0-1.25.37-2.47 1.07-3.51.69-1.04 1.68-1.85 2.84-2.33 1.15-.48 2.42-.6 3.65-.36 1.23.25 2.35.85 3.24 1.73.88.89 1.48 2.01 1.73 3.24.24 1.22.12 2.5-.36 3.65-.48 1.16-1.29 2.14-2.33 2.84-1.04.69-2.26 1.06-3.51 1.06-.83 0-1.66-.16-2.42-.48-.77-.32-1.47-.78-2.06-1.37-.58-.59-1.05-1.28-1.37-2.05-.31-.77-.48-1.59-.48-2.42z" opacity=".76"/></g></g></svg>