<svg fill="none" height="163" viewBox="0 0 375 326" width="188" xmlns="http://www.w3.org/2000/svg" xmlns:xlink="http://www.w3.org/1999/xlink"><mask id="a" fill="#fff"><path clip-rule="evenodd" d="m354.772 136.285c.101 1.974-2.192 10.412-5.42 20.903 1.72.685 15.96 6.481 20.041 12.14.631.875 1.019 1.746 1.081 2.595.065.906-.241 1.786-1.021 2.617-.255.27-.549.517-.879.741-3.049 3.274-10.723 4.629-18.766 3.357-2.071-.328-4.409-.923-6.833-1.691-4.176 12.425-8.443 24.2-10.903 29.585-.557 1.353-1.379 3.165-2.241 4.86-.863 1.722-1.643 3.067-2.312 3.946-.16.213-.311.395-.453.541l-.034.036-.023.023c-.019.02-.037.039-.056.057-.018.018-.036.035-.055.053-.269.275-.711.588-1.296.93-2.647 1.586-8.137 3.765-15.613 6.249l-.14.047c-3.325 1.121-6.533 2.128-8.996 2.846l-.33.1-.42.127c-8.682 2.608-18.915 5.393-29.913 8.087 5.03 4.271 10.138 8.788 15.074 13.318 1.258 1.155 2.505 2.31 3.736 3.463 18.19 17.021 33.025 33.383 31.112 36.634l.002.001c-2.525 7.898-6.876 10.662-24.69 7.608-17.814-3.055-36.583-11.301-59.326-23.857-11.729-6.475-25.27-16.207-35.634-24.114-7.265.825-14.157 1.368-20.439 1.547-50.401 1.438-106.7672-10.381-111.2212-12.84-1.58-.872-3.2604-3.148-4.7382-6.056-1.8136-3.5-3.3478-7.953-3.9625-12.122-.2051-1.289-.3223-2.53-.3333-3.677-.0089-.591.0169-1.183.0773-1.771.0776-.587.1908-1.167.3386-1.739.1065-.451.2371-.882.3936-1.292 2.7868-7.964 35.0345-15.192 60.3827-20.873h.001c11.814-2.648 22.129-4.96 27.265-6.854-.355-1.848-.024-3.67 1.322-4.644.636-.46 2.715-.715 5.66-.803 6.454-6.509 16.797-14.844 51.768-13.748 27.21.852 59.256 4.122 79.862 6.377 2.288.243 5.171.565 8.041.886h.001c4.322.483 8.613.962 10.798 1.166 1.114.106 1.864.166 2.202.167.553-.002 1.39-.668 2.41-1.843 1.925-2.174 4.539-6.038 7.302-10.312-1.392-3.261-3.407-9.152-1.624-12.644 1.662-3.253 7.087-2.423 10.698-1.436 2.32-3.438 4.224-5.938 5.237-6.372 3.808-1.634 22.012-5.282 22.867-2.319z" fill="#fff" fill-rule="evenodd"/></mask><mask id="b" height="167" maskUnits="userSpaceOnUse" width="163" x="33" y="32"><ellipse cx="114.673" cy="115.337" fill="#f5f5f5" rx="91.9956" ry="70.4101" transform="matrix(.67964105 .73354484 -.73354484 .67964105 121.341383 -47.168548)"/></mask><path d="m318.628 161.406s-5.286-9.975-2.722-14.994 14.083-.32 14.083-.32z" fill="#abc7d4"/><path d="m354.708 136.284c.272 5.292-16.662 57.028-22.701 70.247-1.222 2.974-3.73 8.167-5.118 9.458-2.231 2.462-19.124 8.144-26.851 10.347-31.844 9.555-84.972 21.659-120.078 22.687-50.401 1.437-106.7675-10.381-111.2215-12.84-4.7593-2.749-11.2191-18.815-8.2233-26.647 4.4632-12.756 84.4998-23.621 90.7238-29.271 7.008-6.301 13.032-18.987 55.675-17.651 27.21.852 59.256 4.122 79.861 6.377 5.734.61 15.205 1.713 18.841 2.052 1.114.107 1.864.166 2.201.167.553-.002 1.391-.668 2.411-1.843 5.922-6.688 18.362-29.369 21.613-30.764 3.808-1.634 22.012-5.282 22.867-2.319z" fill="#c7dced"/><path d="m332.001 206.533c-.525 1.221-1.032 2.347-1.518 3.38-1.42 3.004-2.65 5.146-3.594 6.081-1.612 1.597-7.795 4.186-16.964 7.233-2.994.997-6.309 2.039-9.886 3.12-32.09 9.639-85.386 21.695-120.078 22.686-50.401 1.438-106.7675-10.381-111.2214-12.84-4.1358-2.284-8.9604-14.184-9.0341-21.855-.0089-.591.017-1.183.0773-1.771.1365-1.03.3823-2.042.7334-3.02 11.9102 4.052 54.7698 17.123 112.6448 17.383 67.618.297 130.629-11.23 158.84-20.397z" fill="#5fa0cc"/><path d="m330.489 209.906c-1.42 3.004-2.65 5.146-3.594 6.082-3.836 3.781-33.465 13.196-67.665 21.016-27.068 6.187-56.997 11.383-79.264 12.018-41.998 1.198-88.1357-6.809-104.9317-10.933-3.3625-.827-5.5488-1.498-6.2901-1.908-3.4804-1.921-7.4769-10.72-8.6795-18.03-.2147-1.264-.334-2.542-.357-3.824 0 0 29.5953 10.878 78.1833 15.54 28.884 2.738 57.96 2.766 86.848.084 64.734-5.953 93.609-14.758 105.75-20.045z" fill="#a8c8e3"/><path d="m163.99 215.921c4.636-1.338 7.31-6.181 5.972-10.817-1.337-4.636-6.18-7.31-10.816-5.972-4.637 1.337-7.311 6.18-5.973 10.816s6.181 7.31 10.817 5.973z" fill="#6bbbf0"/><path d="m169.962 205.103c.608 2.101.405 4.353-.567 6.312-.972 1.958-2.643 3.482-4.683 4.268-2.041.787-4.302.78-6.337-.02-2.035-.799-3.697-2.333-4.657-4.298 1.376 1.358 3.162 2.222 5.081 2.456 1.918.234 3.86-.174 5.521-1.161 1.662-.988 2.949-2.498 3.66-4.295.712-1.797.808-3.779.273-5.636-.142-.49-.325-.966-.548-1.425 1.066 1.051 1.844 2.36 2.257 3.799z" fill="#80bee8" opacity=".44"/><path d="m204.953 216.597c4.636-1.338 7.31-6.181 5.972-10.817s-6.18-7.31-10.817-5.972c-4.636 1.337-7.31 6.18-5.972 10.816s6.181 7.31 10.817 5.973z" fill="#6bbbf0"/><path d="m210.926 205.78c.607 2.101.405 4.353-.567 6.312-.972 1.958-2.643 3.482-4.683 4.268-2.041.787-4.302.78-6.337-.02-2.036-.799-3.697-2.333-4.657-4.298 1.375 1.358 3.162 2.222 5.08 2.456 1.919.234 3.861-.174 5.522-1.161 1.662-.988 2.949-2.498 3.66-4.295.712-1.797.808-3.779.272-5.636-.141-.49-.325-.966-.547-1.425 1.066 1.051 1.844 2.36 2.257 3.799z" fill="#80bee8" opacity=".44"/><path d="m248.692 214.833c4.636-1.337 7.31-6.18 5.972-10.816-1.337-4.636-6.18-7.31-10.816-5.973-4.637 1.338-7.31 6.181-5.973 10.817 1.338 4.636 6.181 7.31 10.817 5.972z" fill="#6bbbf0"/><path d="m254.665 204.018c.608 2.1.406 4.353-.566 6.311-.972 1.959-2.644 3.482-4.684 4.269s-4.302.779-6.337-.02-3.697-2.333-4.657-4.298c1.376 1.358 3.162 2.222 5.081 2.456 1.918.234 3.86-.174 5.521-1.162 1.662-.987 2.949-2.497 3.661-4.294.711-1.797.807-3.779.272-5.636-.142-.49-.325-.967-.548-1.425 1.067 1.051 1.844 2.359 2.257 3.799z" fill="#80bee8" opacity=".44"/><path d="m182.51 226.437 1.229 7.811s29.552 24.797 52.295 37.353c22.743 12.555 41.512 20.801 59.326 23.856s22.165.291 24.69-7.608l-110.728-57.704z" fill="#a9c5d1"/><path d="m320.047 287.849c-3.1 5.254-10.09 12.368-50.26-4.161-1.722-.709-3.505-1.462-5.351-2.26-44.914-19.402-81.928-54.991-81.928-54.991 17.882-6.618 38.339-7.955 52.207-7.926 9.805.019 16.322.722 16.322.722 27.797 20.33 72.243 63.136 69.01 68.616z" fill="#d2e7fa"/><path d="m320.046 287.849c-3.1 5.254-10.09 12.369-50.26-4.161 7.574-1.42 16.826-4.911 17.469-13.481.984-13.154-30.994-42.2-52.544-51.703 9.806.019 16.323.722 16.323.722 27.799 20.337 72.245 63.143 69.012 68.623z" fill="#e6edf0" opacity=".38"/><g fill="#e6f4ff"><path d="m152.458 187.399c-3.723-1.065-6.114-7.961-2.972-10.234s41.543.461 45.437 3.659-2.534 6.974-12.722 8.327c-10.187 1.354-23.315.108-29.743-1.752z"/><path d="m211.056 184.34c1.054 2.614-4.549 4.386-7.17 4.476-1.035.031-2.098-.047-2.961-.483-1.72-.862-2.168-3.044-1.167-4.656 1-1.613 3.18-2.584 5.225-2.578 1.965.032 3.846.8 5.272 2.151.342.302.616.674.801 1.09z"/><path d="m220.45 248.04c-6.101-2.382-16.688-12.527-19.714-16.944-3.027-4.417 7.446-5.208 12.846-1.118 5.401 4.091 16.173 13.521 15.838 17.739-.334 4.218-4.273 2.161-8.97.323z"/><path d="m236.715 258.772c-3.246-.935-4.675-3.606-3.283-5.658 1.393-2.052 7.582-1.198 8.029 2.639.446 3.837-1.866 3.841-4.746 3.019z"/></g><path d="m319.124 160.692s.62 2.012 2.359 5.203c1.74 3.192 18.173 11.146 28.261 12.742 10.089 1.596 19.598-.942 20.125-6.216s-50.745-11.729-50.745-11.729z" fill="#98b1bd"/><path d="m369.388 174.539c-2.865 3.046-10.759 3.104-19.646 1.199-11.467-2.462-24.566-8.204-30.618-15.046l19.933-2.373 10.06-1.2s26.819 10.449 20.271 17.42z" fill="#abc7d4"/><path d="m369.388 174.539c-2.865 3.047-10.759 3.105-19.646 1.2 3.965-.377 8.646-1.551 8.359-5.049-.393-4.701-12.203-9.852-19.044-12.371l10.06-1.199s26.819 10.449 20.271 17.419z" fill="#e6edf0" opacity=".38"/><path d="m349.352 157.188-2.867-.883-.814 2.645 2.571 1.024zm5.42-20.903 2.996-.154-.018-.345-.096-.333zm14.621 33.043 2.433-1.755zm1.081 2.595-2.993.217zm-1.021 2.617 2.185 2.055.001-.001zm-.879.741-1.683-2.483-.281.19-.232.249zm-18.766 3.357-.468 2.963zm-6.833-1.691.906-2.86-2.81-.889-.939 2.794zm-10.903 29.585-2.729-1.247-.024.053-.022.053zm-2.241 4.86-2.674-1.359-.004.007-.003.007zm-2.312 3.946-2.386-1.818-.006.008-.006.008zm-.453.541-2.156-2.086-.01.01-.01.011zm-.034.036 2.159 2.083.009-.009.008-.009zm-.023.023 2.151 2.091.008-.008zm-.056.057-2.111-2.131h-.001zm-.055.053-2.061-2.18-.042.04-.04.041zm-1.296.93-1.515-2.589-.013.007-.014.008zm-15.613 6.249-.946-2.847-.001.001zm-.14.047-.947-2.847-.011.004zm-8.996 2.846-.84-2.88-.015.005-.016.004zm-.33.1.868 2.872.002-.001zm-.42.127.863 2.874.005-.002zm-29.913 8.087-.714-2.913-5.706 1.398 4.478 3.802zm15.074 13.318-2.029 2.21v.001zm3.736 3.463 2.05-2.19zm31.112 36.634-2.586-1.522-1.599 2.717 2.793 1.462zm.002.001 2.857.913.768-2.402-2.234-1.169zm-24.69 7.608.507-2.957zm-59.326-23.857 1.45-2.626zm-35.634-24.114 1.82-2.385-.959-.732-1.199.136zm-20.439 1.547.086 2.999zm-111.2212-12.84-1.4501 2.626zm-4.7382-6.056 2.6744-1.359-.0053-.01-.0054-.011zm-3.9625-12.122 2.9679-.437-.0025-.017-.0026-.017zm-.3333-3.677 2.9998-.029v-.008l-.0002-.008zm.0773-1.771-2.9741-.394-.0058.044-.0045.044zm.3386-1.739 2.9045.751.0079-.031.0073-.031zm.3936-1.292 2.802 1.072.0155-.04.0142-.041zm60.3827-20.873-.493-2.959-.082.014-.081.018zm0 0 .494 2.959.118-.019.116-.029zm0 0-.694-2.918-.017.004-.016.004zm.001 0-.656-2.927-.02.004-.019.005zm27.265-6.854 1.038 2.815 2.387-.881-.479-2.499zm1.322-4.644 1.759 2.431zm5.66-.803.089 2.999 1.197-.036.844-.85zm51.768-13.748-.094 2.998zm79.862 6.377-.327 2.982.009.001zm8.041.886.373-2.977-.02-.002-.019-.002zm.001 0-.372 2.977.019.002.02.003zm10.798 1.166.286-2.986-.007-.001zm2.202.167-.015 3h.012.012zm2.41-1.843-2.246-1.988-.01.01-.009.011zm7.302-10.312 2.519 1.629.866-1.339-.626-1.467zm-1.624-12.644 2.672 1.365zm10.698-1.436-.791 2.894 2.074.567 1.203-1.783zm5.237-6.372-1.183-2.757zm20.314 19.466c1.62-5.264 3.014-10.04 3.993-13.765.489-1.859.882-3.487 1.149-4.797.243-1.193.455-2.449.407-3.377l-5.992.308c-.002-.034.003.095-.049.48-.047.351-.127.813-.245 1.391-.235 1.154-.597 2.662-1.073 4.47-.949 3.611-2.316 8.298-3.924 13.525zm19.607 9.503c-1.314-1.823-3.294-3.475-5.328-4.894-2.076-1.448-4.413-2.79-6.62-3.945-4.416-2.31-8.514-3.974-9.416-4.333l-2.22 5.573c.818.327 4.701 1.903 8.855 4.077 2.077 1.087 4.174 2.298 5.969 3.55 1.837 1.281 3.168 2.474 3.894 3.481zm1.64 4.134c-.116-1.6-.822-3-1.64-4.134l-4.866 3.509c.444.616.514.96.521 1.058zm-5.985.433c.003.034 0 .042-.006.055-.007.021-.049.121-.209.291l4.373 4.108c1.287-1.37 1.959-3.052 1.827-4.887zm-.214.345c-.088.093-.209.199-.376.313l3.366 4.967c.494-.335.96-.722 1.381-1.17zm-17.927 9.116c4.309.681 8.577.671 12.25.017 3.576-.638 7.011-1.964 9.179-4.292l-4.391-4.089c-.88.945-2.807 1.933-5.84 2.474-2.937.523-6.528.554-10.261-.036zm-7.27-1.793c2.514.796 5.005 1.435 7.27 1.793l.937-5.926c-1.878-.297-4.064-.849-6.396-1.588zm-7.27 27.97c2.535-5.548 6.849-17.468 11.019-29.875l-5.687-1.911c-4.182 12.442-8.404 24.073-10.789 29.293zm-2.295 4.974c.899-1.766 1.754-3.652 2.341-5.079l-5.549-2.282c-.526 1.279-1.314 3.018-2.14 4.642zm-2.6 4.405c.843-1.106 1.721-2.652 2.608-4.42l-5.363-2.69c-.841 1.677-1.521 2.821-2.017 3.473zm-.683.808c.254-.263.487-.548.695-.824l-4.796-3.605c-.112.148-.182.227-.211.257zm-.014.015.035-.037-4.353-4.129-.035.036zm-.04.041.023-.023-4.319-4.166-.022.024zm-.104.105c.034-.033.066-.065.096-.097l-4.302-4.182c-.007.008-.012.013-.016.017zm-.104.102c.033-.032.068-.066.105-.102l-4.224-4.262c.001-.001 0 .001-.004.004zm-1.843 1.339c.645-.377 1.369-.852 1.925-1.42l-4.287-4.198c.029-.03.001.004-.131.098-.124.089-.3.203-.537.342zm-16.182 6.507c7.448-2.474 13.24-4.744 16.209-6.522l-3.084-5.148c-2.325 1.393-7.514 3.483-15.017 5.976zm-.138.046.14-.046-1.895-5.693-.14.047zm-9.104 2.88c2.508-.731 5.755-1.751 9.114-2.883l-1.916-5.686c-3.292 1.109-6.46 2.104-8.878 2.809zm-.3.091.331-.1-1.742-5.742-.33.101zm-.422.128.42-.127-1.737-5.743-.42.127zm-30.067 8.129c11.041-2.705 21.325-5.503 30.062-8.127l-1.726-5.747c-8.626 2.591-18.81 5.363-29.764 8.047zm16.388 8.194c-4.962-4.555-10.099-9.097-15.16-13.394l-3.884 4.573c4.999 4.245 10.079 8.736 14.987 13.241zm3.758 3.483c-1.239-1.16-2.493-2.322-3.758-3.483l-4.057 4.421c1.251 1.148 2.491 2.297 3.715 3.442zm31.647 40.345c.93-1.579.54-3.296.226-4.26-.367-1.126-1.004-2.334-1.761-3.549-1.53-2.457-3.894-5.477-6.801-8.83-5.838-6.734-14.177-15.159-23.311-23.706l-4.1 4.38c9.056 8.475 17.23 16.741 22.878 23.256 2.836 3.272 4.96 6.015 6.241 8.072.649 1.042 1 1.778 1.149 2.236.202.619-.143.125.308-.642zm-1.192-4.178-.002-.001-2.783 5.315.002.001zm-26.588 13.222c8.917 1.529 15.158 1.757 19.595.172 4.892-1.747 7.064-5.458 8.459-9.823l-5.715-1.827c-1.129 3.534-2.395 5.154-4.762 6-2.824 1.008-7.665 1.09-16.563-.435zm-60.268-24.186c22.819 12.597 41.946 21.044 60.268 24.186l1.014-5.913c-17.305-2.968-35.716-11.013-58.383-23.526zm-36.004-24.356c10.388 7.926 24.072 17.769 36.004 24.356l2.899-5.253c-11.528-6.364-24.925-15.985-35.264-23.873zm-18.534 2.161c6.387-.183 13.366-.733 20.692-1.565l-.677-5.962c-7.205.819-14.01 1.353-20.186 1.529zm-112.7573-13.213c.9356.517 2.6793 1.054 4.6614 1.588 2.1323.573 4.9504 1.243 8.3314 1.966 6.767 1.446 15.8691 3.12 26.4015 4.669 21.047 3.097 47.926 5.716 73.363 4.99l-.171-5.998c-24.965.712-51.469-1.86-72.319-4.928-10.4165-1.532-19.3911-3.184-26.0206-4.601-3.3172-.709-6.0272-1.355-8.0268-1.892-1.0014-.27-1.8016-.506-2.3993-.703-.2987-.099-.5294-.182-.6994-.25-.1831-.072-.2408-.104-.221-.093zm-5.9624-7.322c.7977 1.569 1.6826 3.034 2.6286 4.262.9175 1.191 2.0299 2.34 3.3338 3.06l2.9002-5.252c-.2761-.153-.7939-.578-1.481-1.47-.6587-.855-1.3529-1.981-2.0329-3.319zm-4.2561-13.044c.6678 4.529 2.3155 9.299 4.2668 13.064l5.3273-2.76c-1.676-3.234-3.0967-7.371-3.6583-11.179zm-.3653-4.086c.0127 1.324.1471 2.716.3705 4.12l5.9255-.943c-.187-1.175-.287-2.265-.2963-3.235zm.0928-2.106c-.0723.705-.1032 1.413-.0926 2.122l5.9993-.09c-.0071-.474.0136-.948.062-1.42zm.4185-2.184c-.1782.689-.3145 1.389-.4082 2.096l5.9481.788c.0617-.466.1516-.928.2691-1.382zm.4961-1.612c-.2087.545-.3772 1.106-.5114 1.674l5.8395 1.378c.0788-.333.1717-.636.2759-.909zm62.5287-22.729c-12.643 2.834-27.16 6.085-38.8667 9.637-5.8447 1.773-11.1133 3.657-15.1449 5.652-2.0145.997-3.8153 2.068-5.249 3.23-1.4003 1.135-2.6875 2.547-3.2977 4.291l5.6633 1.981c.0865-.247.4166-.804 1.4123-1.611.9623-.779 2.336-1.624 4.1327-2.513 3.5908-1.778 8.4909-3.549 14.2251-5.289 11.4509-3.473 25.7319-6.676 38.4369-9.523zm.163-.032.987 5.918zm-.234.049 1.455 5.821zm.033-.008 1.389 5.837h.001zm26.922-6.75c-4.896 1.805-14.946 4.065-26.883 6.741l1.312 5.855c11.69-2.621 22.272-4.985 27.647-6.967zm.602-4.261c-2.729 1.975-2.96 5.297-2.51 7.64l5.892-1.13c-.115-.599-.089-1.057-.016-1.342.065-.256.143-.301.151-.306zm7.328-1.37c-1.521.045-2.895.135-4.012.288-.557.076-1.107.175-1.608.311-.44.12-1.107.336-1.708.771l3.517 4.862c-.284.205-.453.217-.232.156.16-.043.433-.099.843-.156.818-.111 1.955-.193 3.379-.235zm51.952-13.749c-17.709-.554-29.442 1.267-37.677 4.195-8.33 2.961-12.899 6.994-16.316 10.44l4.261 4.225c3.037-3.064 6.867-6.453 14.065-9.012 7.293-2.593 18.217-4.391 35.479-3.851zm80.094 6.393c-20.607-2.254-52.756-5.537-80.094-6.393l-.188 5.997c27.082.848 59.025 4.106 79.629 6.361zm8.049.888c-2.868-.321-5.76-.644-8.057-.889l-.636 5.967c2.279.242 5.154.564 8.026.885zm.039.004-.745 5.954h.001zm10.705 1.156c-2.15-.2-6.405-.676-10.744-1.16l-.666 5.963c4.305.48 8.633.964 10.853 1.171zm1.937.154c-.172-.001-.77-.042-1.93-.153l-.571 5.972c1.067.102 1.969.179 2.472.181zm.131-.81c-.446.513-.763.811-.95.955-.091.07-.091.057-.007.018.07-.034.358-.161.802-.163l.019 6c1.325-.004 2.351-.718 2.855-1.108.626-.483 1.237-1.106 1.811-1.767zm7.048-9.973c-2.788 4.311-5.281 7.977-7.029 9.952l4.492 3.977c2.102-2.374 4.837-6.437 7.575-10.672zm-1.776-12.38c-1.366 2.673-1.14 5.862-.651 8.351.512 2.608 1.452 5.112 2.187 6.835l5.518-2.355c-.657-1.539-1.42-3.611-1.818-5.636-.421-2.146-.311-3.648.107-4.466zm14.159-2.966c-1.907-.521-4.513-1.069-6.983-.976-2.376.09-5.592.839-7.176 3.942l5.343 2.729c.077-.151.404-.613 2.059-.675 1.56-.059 3.472.302 5.176.768zm3.264-6.235c-.782.335-1.415.898-1.833 1.307-.476.465-.964 1.026-1.449 1.628-.972 1.208-2.084 2.775-3.259 4.515l4.973 3.357c1.146-1.697 2.147-3.099 2.96-4.109.408-.507.73-.867.969-1.1.296-.29.28-.202.005-.084zm26.932-.394c-.551-1.91-2.266-2.605-3.072-2.853-.971-.299-2.083-.404-3.13-.431-2.139-.056-4.81.201-7.438.583-5.177.752-11.007 2.115-13.292 3.095l2.366 5.514c1.523-.654 6.699-1.932 11.789-2.671 2.507-.365 4.785-.566 6.419-.523.839.022 1.319.105 1.522.167.368.114-.591-.048-.929-1.217z" fill="#5795bf" mask="url(#a)"/><g mask="url(#b)"><path d="m67.0321 152.662c3.392 3.7 8.3515 4.539 10.4073 4.497 0 7.452 11.1782 10.792 16.7031 11.049s21.8425 3.341 22.7415 8.223c.72 3.906-4.925 14.476-7.837 19.273l39.83 16.189 38.546-26.082c0-8.737-12.826-21.91-14.496-26.535-1.671-4.626 3.525-2.699 3.726-15.547.2-12.849-17.368-34.11-19.553-36.423-2.184-2.313-6.401-4.625-8.714-6.167-2.313-1.5419-1.816-9.6789-7.452-12.1449-8.223-3.5976-15.033 6.6812-17.603 7.1952-2.57.5139-6.19-2.888-9.273-1.9886-2.467.7195-2.227 4.9253-1.799 6.9383-1.285-.214-5.345-.514-11.307 0-7.4519.642-27.4957 11.05-31.7357 15.932-4.24 4.883-6.4243 30.965-2.1842 35.591z" fill="#95f5e8" stroke="#1e9a79" stroke-width="3"/><path clip-rule="evenodd" d="m144.987 96.3497-3.816-3.0871c-2.056-1.5418-8.481-2.1842-11.05 1.9273-.58.9275-.767 2.0107-.966 3.1543-.68 3.9258-1.483 8.5638-18.697 10.0568-5.525 1.542-16.9341 5.987-18.3732 11.435-1.7988 6.81-4.1073 33.686-1.5376 36.385 1.3676 1.435 2.8794 1.773 4.0141 2.027.9975.222 1.7034.38 1.7635 1.161.1285 1.671 4.5012 7.09 10.7972 7.733.75.076 1.55.14 2.392.207 6.221.497 14.74 1.177 22.658 8.53 6.027 5.596 11.276 24.97 13.687 35.423l1.842.749 38.546-26.083c0-5.764-5.584-13.46-9.862-19.357-2.207-3.041-4.066-5.604-4.635-7.178-.714-1.979-.172-2.759.698-4.009 1.164-1.672 2.913-4.187 3.028-11.538.201-12.848-17.368-34.11-19.552-36.422-1.645-1.742-4.444-3.484-6.713-4.897-.744-.463-1.431-.89-2.001-1.271-.88-.586-1.353-2.1271-1.912-3.9471-.1-.3254-.203-.6598-.311-.9992z" fill="#00bf86" fill-rule="evenodd"/><ellipse cx="74.5267" cy="120.234" fill="#1e9a79" rx="2.44311" ry="4.07185" transform="matrix(.83120868 .55596054 -.55596054 .83120868 79.42482 -21.139449)"/><ellipse fill="#1e9a79" rx="3.13801" ry="5.23002" transform="matrix(-.831209 .555961 .555961 .831209 92.0054 122.71)"/><path d="m124.873 151.86-7.966 2.374c.956 1.846 3.25 5.379 4.78 4.746 1.529-.633 2.761-5.01 3.186-7.12z" fill="#fff"/><path d="m161.597 148.421c2.365-3.392 1.928-8.437 1.414-10.536 1.37 2.056 3.854 6.861 2.826 9.637-1.027 2.775-7.28 6.295-10.278 7.709 1.027-.857 3.674-3.418 6.038-6.81z" fill="#1e9a79" opacity=".5"/><ellipse cx="137.208" cy="99.5975" fill="#1e9a79" opacity=".5" rx="5.65336" ry="6.29579"/><ellipse cx="137.253" cy="100.56" fill="#fff" rx="4.66205" ry="5.69806"/><g fill="#1e9a79"><ellipse cx="139.325" cy="100.559" rx="2.59003" ry="3.10803"/><path d="m115.751 152.76c-7.452 1.927-19.6579 3.469-38.9307 2.955l1.0279 2.955 13.1055.386c20.6863 0 36.2333-7.581 39.9593-9.765 2.981-1.748 4.754-4.583 5.268-5.782-2.57 2.313-12.562 7.216-20.43 9.251z"/></g></g><path clip-rule="evenodd" d="m186.008 175.462c-4.495 7.305-10.185 11.181-27.614 20.159-7.387 3.806-17.235 4.35-26.338 3.598-9.152-.757-17.82-2.849-23.038-4.559l.988-3.017c5.013 1.642 13.437 3.678 22.312 4.411 8.925.738 18.04.136 24.622-3.255 17.497-9.014 22.392-12.546 26.364-19.001z" fill="#1e9a79" fill-rule="evenodd"/></svg>