<svg fill="none" height="78" viewBox="0 0 321 155" width="161" xmlns="http://www.w3.org/2000/svg"><path clip-rule="evenodd" d="m4.36964 56.4702c-1.47582 1.9677-2.52802 9.9754-2.86964 13.7332v9.2765c.37881 6.8186 6.35816 6.6364 8.5581 6.5694.1809-.0055.3362-.0102.4608-.0102.4099 2.8696 2.0352 6.4188 7.174 9.5811 5.3294 3.2796 22.1372.8882 30.9511-.8199 1.3119 2.7877 9.2922 5.8077 13.1184 6.9687-5.1244 1.777-16.316 5.699-20.0875 7.175-3.065 1.199-8.6425.665-12.9023.258h-.0001c-2.2923-.219-4.2031-.402-5.1353-.258-2.6647.409-5.7393 1.434-7.994 7.379-1.8038 4.755 2.2547 5.261 4.5094 4.919 1.6398 4.591 3.8262 2.186 4.7144.41.615 3.28 7.5841 5.739 10.6587 4.919 1.7179-.458.6201-2.26-.4686-4.047-.8598-1.411-1.7139-2.813-1.1712-3.537.9839-1.312 6.5592-.956 9.2238-.615 12.2985 1.476 39.2867-3.484 51.2435-6.149 22.1368 14.348 60.6728 17.271 75.2258 14.348 1.686-.338 3.316-.691 4.893-1.059 8.292 5.388 15.496 5.864 23.455 4.715 13.663-1.972 19.937-7.775 24.237-11.752.578-.535 1.121-1.037 1.642-1.493 5.694-4.982 28.194-5.649 37.232 4.679.99 1.132 2.742 3.804 4.654 6.722 3.21 4.897 6.873 10.485 8.153 10.646-.094 4.42 1.506 13.338 8.663 13.646l.177-14.259c1.828 4.416 6.802 12.674 12.071 10.381l-.581-11.891c2.036 3.374 7.54 9.368 13.27 6.345-.733-5.18-3.626-16.657-9.338-21.117-4.202-3.281-7.57-13.192-10.355-21.387-1.948-5.7322-3.611-10.6249-5.074-11.8222-.687-.562-1.338-.9909-1.978-1.2949 22.479-14.0671 33.812-33.5507 37.28-45.8653-24.596 24.4424-74.108 20.6585-100.377 14.8338-7.409-18.8941-31.238-27.6578-38.595-29.2345-8.609-1.8448-27.672-2.2547-42.635 7.379-14.963 9.6338-61.4923 18.4477-66.8216 14.1433-2.367-1.9118-2.9549-4.6726-3.5056-7.259-.6894-3.237-1.3205-6.2006-5.3083-6.8843-4.5686-.7831-6.4772 2.0911-8.1079 4.5469-.93 1.4005-1.7696 2.665-2.9607 3.0372-1.7188.5371-2.3116-.3333-2.9587-1.2834-.5875-.8628-1.2198-1.7912-2.7806-1.7912-1.7675 0-2.4038 1.667-3.064 3.3967-.5649 1.4797-1.1472 3.0054-2.4703 3.5724-1.4136.6058-1.6832.6148-3.1609.6639-1.5221.0506-4.3261.1438-10.9823.9759-13.1183 1.6398-18.0377 6.1492-19.88246 8.6089z" fill="#00bf86" fill-rule="evenodd"/><path d="m1.5 70.2034-1.49383986-.1358-.00616014.0678v.068zm2.86964-13.7332-1.2-.9zm-2.86964 23.0097h-1.5v.0416l.00230944.0416zm8.5581 6.5694-.0456-1.4993zm.4608-.0102 1.4849-.2121-.184-1.2879h-1.3009zm7.174 9.5811-.7861 1.2775zm30.9511-.8199 1.3573-.6387-.497-1.0559-1.1457.222zm13.1184 6.9687.4913 1.418 4.361-1.512-4.4166-1.341zm-20.0875 7.175.5466 1.396zm-12.9023.258.1428-1.493-.0713-.007h-.0715zm-.0001 0-.1428 1.493.0712.007h.0716zm-5.1353-.258.2281 1.482zm-7.994 7.379-1.4025-.532zm4.5094 4.919 1.4127-.505-.4156-1.163-1.2218.185zm4.7144.41 1.4743-.277-.8217-4.382-1.9942 3.988zm10.6587 4.919-.3865-1.449zm-.4686-4.047-1.281.78zm-1.1712-3.537 1.2.9zm9.2238-.615-.1907 1.488.012.002zm51.2435-6.149.8159-1.259-.528-.342-.6141.137zm75.2258 14.348-.296-1.47zm4.893-1.059.817-1.257-.536-.348-.622.144zm23.455 4.715-.214-1.484zm24.237-11.752 1.018 1.101zm1.642-1.493.987 1.129zm37.232 4.679 1.129-.987zm4.654 6.722-1.254.822zm8.153 10.646 1.5.032.028-1.352-1.341-.168zm8.663 13.646-.065 1.499 1.545.066.019-1.546zm.177-14.259 1.386-.573-2.886.555zm12.071 10.381.598 1.376.951-.414-.051-1.035zm-.581-11.891 1.284-.775-2.782.848zm13.27 6.345.7 1.327.933-.492-.148-1.045zm-9.338-21.117.923-1.182zm-10.355-21.387 1.42-.483zm-5.074-11.8222.95-1.1608zm-1.978-1.2949-.795-1.2716-2.319 1.4512 2.47 1.175zm37.28-45.8653 1.443.4066 1.547-5.4932-4.048 4.0227zm-100.377 14.8338-1.396.5476.292.7438.78.173zm-38.595-29.2345.314-1.4667zm-42.635 7.379.812 1.2612zm-66.8216 14.1433.9425-1.1669zm-3.5056-7.259-1.4671.3125zm-5.3083-6.8843-.2534 1.4785zm-8.1079 4.5469 1.2496.8298zm-2.9607 3.0372-.4474-1.4317zm-2.9587-1.2834 1.2398-.8444zm-5.8446 1.6055-1.4014-.5349zm-2.4703 3.5724.5909 1.3787zm-3.1609.6639-.0499-1.4992zm-10.9823.9759-.186-1.4884zm-21.25826 22.4779c.16794-1.8472.51129-4.7435.99183-7.4074.24054-1.3334.51072-2.5819.80289-3.6006.30854-1.0757.59147-1.7082.78108-1.961l-2.4-1.8c-.5483.7311-.95033 1.8374-1.26482 2.934-.33087 1.1536-.62181 2.5109-.8715 3.895-.499916 2.7714-.853472 5.7579-1.02715986 7.6684zm.00616 9.1407v-9.2765h-3v9.2765zm7.0125 5.0701c-1.12876.0344-2.84664.0677-4.31299-.5766-.69996-.3075-1.31297-.7591-1.77669-1.4321-.46461-.6743-.84282-1.663-.92513-3.1446l-2.99538056.1664c.10709456 1.9277.61835956 3.4732 1.45017056 4.6804.8327 1.2085 1.92305 1.9856 3.04028 2.4765 2.16802.9526 4.53981.8613 5.61104.8286zm.5064-.0109c-.1526 0-.3339.0057-.5064.0109l.0913 2.9986c.1892-.0057.3185-.0095.4151-.0095zm7.9602 9.8036c-4.778-2.9403-6.1315-6.1088-6.4753-8.5157l-2.96987.4242c.47606 3.3324 2.37317 7.2621 7.87287 10.6465zm29.8795-1.015c-4.3725.8474-10.7118 1.8606-16.5975 2.2563-2.9447.198-5.7375.2387-8.0956.0373-2.4069-.2055-4.164-.6494-5.1864-1.2786l-1.5723 2.555c1.6423 1.0106 3.9847 1.4977 6.5035 1.7128 2.5677.2192 5.5269.1702 8.5521-.0332 6.0541-.4071 12.5256-1.4436 16.967-2.3044zm13.8395 7.0063c-1.8623-.5652-4.7416-1.5857-7.2959-2.7951-1.2789-.6054-2.4367-1.2397-3.334-1.8666-.9433-.659-1.4131-1.1838-1.5669-1.5107l-2.7145 1.2774c.5021 1.0669 1.5217 1.965 2.5633 2.6926 1.0875.7597 2.4099 1.4756 3.7684 2.1184 2.7204 1.288 5.7443 2.359 7.7081 2.955zm-19.9766 10.006c3.7374-1.462 14.8954-5.373 20.0322-7.153l-.9826-2.835c-5.112 1.772-16.3371 5.705-20.1428 7.195zm-13.5917.355c2.1188.203 4.6389.445 7.0197.48 2.338.035 4.7499-.122 6.572-.835l-1.0932-2.793c-1.2429.486-3.1523.662-5.4342.628-2.2392-.033-4.6378-.261-6.7787-.466zm.1427.007h.0001v-3h-.0001zm-4.9072-.276c.2875-.044.85-.048 1.7358.008.8509.053 1.8746.151 3.0286.261l.2856-2.986c-1.1384-.109-2.2162-.212-3.1267-.269-.8758-.055-1.7348-.078-2.3795.021zm-6.8196 6.429c1.0578-2.789 2.2476-4.267 3.3478-5.103 1.096-.832 2.2457-1.137 3.4718-1.326l-.4562-2.965c-1.4386.221-3.1585.633-4.8297 1.902-1.6669 1.266-3.1418 3.272-4.3387 6.428zm2.8822 2.904c-1.0023.152-2.1363.056-2.7495-.333-.242-.153-.3824-.334-.4462-.614-.0741-.325-.0749-.934.3135-1.957l-2.805-1.064c-.5135 1.353-.6834 2.591-.4334 3.688.2604 1.142.9373 1.957 1.7663 2.482 1.5287.968 3.5513.954 4.8037.764zm3.5975 1.222c-.1783.357-.4133.725-.6646 1.01-.2712.308-.4487.392-.4857.403-.0017 0 .0087-.003.0289-.004.0209 0 .0443.002.0665.007.0504.012.0406.026-.0278-.034-.1679-.147-.503-.577-.8774-1.626l-2.8253 1.009c.4455 1.248.9986 2.238 1.7296 2.877.8159.712 1.7948.926 2.7387.653.8256-.239 1.4637-.802 1.9035-1.301.4597-.522.831-1.121 1.0969-1.652zm11.6138 4.141c-.49.131-1.2723.156-2.2641.005-.9676-.147-2.0276-.446-3.0219-.862-.9999-.418-1.8773-.933-2.5145-1.482-.6535-.563-.9309-1.053-.9974-1.408l-2.9486.553c.241 1.286 1.0653 2.333 1.9876 3.128.9386.809 2.1109 1.473 3.3145 1.977 1.2092.506 2.5063.874 3.7294 1.06 1.1988.182 2.4406.207 3.488-.072zm-1.3631-1.818c.277.455.5271.866.7332 1.251.2104.392.3323.68.3857.879.0585.219-.0185.132.0755-.07.1238-.266.3219-.283.1687-.242l.773 2.899c.7058-.189 1.4109-.602 1.778-1.391.3373-.724.2399-1.46.1027-1.972-.2647-.988-.9563-2.096-1.4548-2.914zm-1.0902-5.217c-.4097.547-.4973 1.158-.4634 1.66.0325.483.1792.939.3353 1.32.3078.751.8084 1.565 1.2183 2.237l2.562-1.56c-.4499-.739-.8062-1.331-1.0047-1.815-.0971-.237-.1159-.355-.1177-.383-.0006-.008.0086.157-.1298.341zm10.6146-1.202c-1.3794-.177-3.5155-.359-5.4593-.325-.9667.017-1.9445.088-2.7785.261-.4175.087-.8433.208-1.2311.385-.3766.172-.8166.442-1.1457.881l2.4 1.8c-.0831.111-.1337.105-.0066.047.1158-.053.3078-.116.593-.176.5713-.118 1.3383-.183 2.2215-.198 1.756-.031 3.7399.135 5.0252.3zm50.7265-6.126c-5.9468 1.325-15.6441 3.224-25.3783 4.606-9.7865 1.39-19.4291 2.23-25.3603 1.518l-.3574 2.979c6.3673.764 16.3681-.139 26.1395-1.526 9.8238-1.396 19.5989-3.309 25.609-4.649zm75.256 14.342c-7.037 1.413-20.116 1.435-34.248-.71-14.123-2.145-29.052-6.418-39.8659-13.427l-1.6317 2.518c11.3236 7.339 26.7306 11.701 41.0476 13.875 14.308 2.172 27.773 2.194 35.289.685zm4.848-1.05c-1.561.364-3.176.714-4.848 1.05l.591 2.941c1.7-.341 3.346-.698 4.938-1.069zm23.582 4.692c-7.709 1.113-14.519.648-22.424-4.488l-1.635 2.515c8.679 5.639 16.278 6.127 24.487 4.942zm23.432-11.369c-4.21 3.894-10.21 9.46-23.432 11.369l.428 2.969c14.104-2.036 20.652-8.076 25.041-12.136zm1.673-1.52c-.539.471-1.098.988-1.673 1.52l2.037 2.202c.582-.538 1.109-1.026 1.611-1.465zm39.349 4.82c-4.904-5.604-13.272-8.078-20.899-8.59-3.85-.259-7.611-.026-10.804.603-3.14.62-5.925 1.661-7.646 3.167l1.975 2.257c1.127-.985 3.289-1.896 6.252-2.48 2.91-.574 6.407-.797 10.022-.554 7.306.49 14.708 2.847 18.842 7.572zm4.78 6.887c-1.874-2.859-3.702-5.655-4.78-6.887l-2.258 1.975c.902 1.031 2.578 3.58 4.529 6.556zm7.085 9.98c.258.032.328.141.147 0-.137-.106-.334-.289-.593-.571-.515-.559-1.154-1.371-1.881-2.371-1.451-1.993-3.147-4.58-4.758-7.038l-2.509 1.644c1.598 2.439 3.338 5.094 4.841 7.16.749 1.029 1.468 1.951 2.1 2.637.314.342.638.659.96.909.276.215.741.534 1.319.606zm8.54 13.635c-2.81-.121-4.602-1.881-5.749-4.403-1.163-2.556-1.522-5.651-1.478-7.712l-3-.064c-.05 2.359.344 5.933 1.747 9.018 1.418 3.118 4.005 5.971 8.351 6.159zm-1.387-12.778-.177 14.258 2.999.038.178-14.259zm12.973 9.024c-1.68.731-3.57-.069-5.621-2.312-1.973-2.158-3.592-5.156-4.466-7.267l-2.772 1.147c.954 2.305 2.736 5.643 5.024 8.145 2.21 2.416 5.442 4.599 9.031 3.038zm-1.481-10.443.581 11.891 2.996-.146-.581-11.892zm14.068 4.946c-2.209 1.165-4.416.666-6.497-.701-2.107-1.385-3.85-3.537-4.789-5.093l-2.568 1.549c1.096 1.819 3.124 4.351 5.71 6.051 2.613 1.717 6.023 2.704 9.544.847zm-9.561-18.609c2.518 1.967 4.55 5.624 6.055 9.634 1.485 3.958 2.367 8.014 2.721 10.511l2.97-.42c-.38-2.683-1.31-6.956-2.883-11.145-1.553-4.139-3.824-8.451-7.017-10.944zm-10.852-22.086c1.388 4.083 2.947 8.674 4.693 12.656 1.714 3.91 3.73 7.534 6.159 9.43l1.846-2.364c-1.773-1.385-3.542-4.357-5.258-8.271-1.685-3.842-3.203-8.305-4.6-12.417zm-4.604-11.1443c.134.1094.4.4277.77 1.1053.352.6428.733 1.4847 1.144 2.505.823 2.0423 1.711 4.654 2.69 7.534l2.84-.966c-.969-2.8522-1.886-5.553-2.748-7.6894-.43-1.0691-.861-2.0331-1.294-2.8235-.413-.7557-.904-1.4979-1.502-1.9871zm-1.672-1.1012c.504.2395 1.054.595 1.672 1.1012l1.9-2.3217c-.755-.6178-1.509-1.1202-2.283-1.4887zm36.48-47.6264c-3.368 11.9629-14.475 31.1348-36.631 45.0002l1.591 2.5431c22.801-14.2688 34.361-34.0639 37.927-46.7302zm-99.257 16.7047c13.238 2.9355 32.334 5.3593 51.25 3.9648 18.879-1.3917 37.837-6.6068 50.508-19.199l-2.115-2.1279c-11.924 11.8502-30.02 16.9643-48.613 18.335-18.556 1.368-37.351-1.0125-50.381-3.9018zm-38.586-29.2322c3.519.7541 11.158 3.2779 18.813 7.9378 7.663 4.6642 15.164 11.3595 18.701 20.3776l2.793-1.0953c-3.873-9.8759-11.991-17.0096-19.934-21.8449-7.951-4.8397-15.905-7.486-19.744-8.3086zm-41.508 7.1735c14.516-9.346 33.132-8.9685 41.508-7.1735l.629-2.9334c-8.841-1.8945-28.351-2.337-43.761 7.5845zm-68.5761 14.049c.5668.4578 1.2906.7446 2.0211.939.7505.1997 1.6245.3315 2.5835.4121 1.9184.1611 4.3161.1276 7.0269-.0608 5.4301-.3774 12.2813-1.3887 19.4068-2.8319 7.1298-1.444 14.5708-3.3277 21.1828-5.4616 6.585-2.1252 12.447-4.5299 16.355-7.0458l-1.624-2.5224c-3.574 2.3011-9.139 4.6108-15.653 6.7132-6.487 2.0937-13.817 3.9507-20.8563 5.3763-7.0432 1.4265-13.7588 2.4138-19.0193 2.7794-2.6346.1831-4.8632.2072-6.5679.0641-.8525-.0716-1.5392-.1823-2.0631-.3217-.544-.1448-.8082-.2935-.9075-.3737zm-4.0302-8.1134c.5343 2.5092 1.1896 5.819 4.0302 8.1134l1.885-2.3338c-1.8933-1.5292-2.4139-3.7411-2.981-6.4045zm-4.0946-5.7183c1.5784.2706 2.35.9352 2.86 1.7808.5871.9734.8761 2.2542 1.2346 3.9375l2.9342-.6249c-.3309-1.5537-.7021-3.3733-1.5999-4.8619-.9748-1.6164-2.5127-2.7754-4.9221-3.1884zm-6.6049 3.8982c.8416-1.2675 1.5902-2.3677 2.5956-3.1126.9152-.6781 2.1185-1.1098 4.0093-.7856l.5068-2.9569c-2.6777-.459-4.7131.1548-6.302 1.332-1.4987 1.1104-2.5198 2.6752-3.3089 3.8635zm-3.7629 3.6391c.9654-.3017 1.6926-.935 2.255-1.5716.5568-.6302 1.0578-1.3898 1.5079-2.0675l-2.4992-1.6596c-.4799.7228-.8637 1.2957-1.257 1.7409-.3876.4388-.6758.6238-.9015.6944zm-4.6459-1.8708c.279.4096.7652 1.1681 1.5394 1.6377.9059.5494 1.9542.5932 3.1065.2331l-.8948-2.8634c-.2999.0937-.4693.1001-.5472.0948-.0637-.0043-.0879-.017-.1088-.0297-.0345-.0209-.1022-.0724-.2123-.2037-.1166-.1391-.2328-.3073-.4032-.5575zm-1.5408-1.1355c.4419 0 .6604.1175.8205.2451.2204.1757.4058.4285.7203.8904l2.4796-1.6887c-.273-.4008-.6975-1.0436-1.3303-1.5479-.6931-.5523-1.5712-.8989-2.6901-.8989zm-1.6627 2.4316c.3508-.919.6066-1.559.9266-1.9969.2529-.3461.4424-.4347.7361-.4347v-3c-1.4737 0-2.4861.7448-3.1583 1.6647-.6052.8281-.9977 1.8864-1.3071 2.6971zm-3.2807 4.4162c1.057-.453 1.7426-1.2622 2.2155-2.0521.4616-.7709.7934-1.6519 1.0652-2.3641l-2.8027-1.0698c-.293.7676-.5348 1.3892-.8363 1.8928-.2902.4846-.5574.7217-.8234.8358zm-3.702.7844c.7002-.0233 1.2711-.0382 1.8434-.1504.5947-.1167 1.1386-.3254 1.8586-.634l-1.1817-2.7574c-.6937.2972-.9913.3959-1.2543.4475-.2853.0559-.5881.0701-1.3657.0959zm-10.846.9651c6.6082-.826 9.3666-.9159 10.846-.9651l-.0997-2.9984c-1.5648.0521-4.4143.1486-11.1184.9867zm-18.86856 8.0205c1.55174-2.069 6.06536-6.4201 18.86856-8.0205l-.3721-2.9768c-13.4335 1.6791-18.75867 6.3469-20.89646 9.1973z" fill="#1e9a79"/><path d="m54.5 45.3538c2-6 7-9.0012 12 2.333 2.386 7.1586 17.6564 2.8824 21.9271 1.6865l.0729-.0204 7.6396-1.6671 2 10.5c48.0004.3334 145.6184 3.6667 162.8604 3.6667 17.5 0 33-1 53.5-15-6.167 6-30.26 26.4333-49.86 38.8333s-39 1-55.5 2.5c-7 0-28.5 2.5-32.5 25.5002-1.788 10.276-54.667-5-76.5-11-.8337-4.6668-5.0004-13.2002-15.0004-10.0002s-28.8333-5.3333-37-10c-2.5 1-8.8001 3-14 3-6.4997 0-6.0002.5-7.5002-13.5s9.5-17.5 14-17.5 11.8606-3.332 13.8606-9.332z" fill="#95f5e8"/><ellipse cx="9.90077" cy="59.5587" fill="#1e9a79" rx="2.33017" ry="3.88362" transform="matrix(.83120868 .55596054 -.55596054 .83120868 34.783451 4.548554)"/><ellipse fill="#1e9a79" rx="2.99295" ry="4.98825" transform="matrix(-.949613 .313425 .313425 .949613 22.1012 64.2082)"/><path d="m47.267 81.5302-7.591 3.9401c1.324 1.673 4.3278 4.7854 5.7509 3.8504s1.8197-5.5833 1.8401-7.7905z" fill="#f6e9ed"/><ellipse cx="59.0984" cy="46.0692" fill="#f6e9ed" rx="4.30445" ry="5.94425"/><ellipse cx="60.327" cy="46.2751" fill="#159070" opacity=".6" rx="2.25471" ry="2.45969"/><path d="m40.0944 83.0108c-5.6612 1.9311-14.9339 3.4761-29.5749 2.9611l.7809 2.9611 9.9559.3862c15.7146 0 27.525-7.5959 30.3556-9.7845 2.2645-1.7509 3.6115-4.5919 4.0019-5.7935-1.9521 2.3174-9.5429 7.2308-15.5194 9.2696z" fill="#1e9a79"/><path d="m76.9299 68.154c-2.7876 7.543-12.0934 17.3544-16.3979 21.3173-3.8262 2.8696-10.7816 9.1008-7.994 11.0687 3.4846 2.46 14.5532-8.4041 19.6775-13.5284 5.1244-5.1244 15.1681-13.1184 27.8765-16.6029 12.708-3.4846 19.063 5.1243 72.151 0 53.088-5.1244 58.417 5.1243 77.07 8.1989 18.653 3.0747 42.635 1.2299 41.815-3.0746-.82-4.3044-18.038-4.3044-25.007-12.2984s7.379-11.6835 9.429-18.8576-8.404-7.994-14.758-20.4974c-6.355-12.5034 9.428-16.19297 6.354-20.49742-3.075-4.304442-22.137 6.55916-28.492 7.58402-6.354 1.0249-9.428-2.04972-27.876-7.58402s-40.175 7.17412-44.889 9.63382c-4.715 2.4597-26.647 8.8138-57.188 17.6277-30.5412 8.8139-28.2865 28.0815-31.7711 37.5103z" fill="#ff8387" stroke="#dd5e62" stroke-linecap="round" stroke-width="3"/><g fill="#cf494d"><ellipse cx="178.51" cy="33.5534" opacity=".66" rx="64" ry="3.9256" transform="matrix(.99281998 -.11961806 .11961806 .99281998 -2.731888 21.593933)"/><ellipse cx="181.791" cy="52.6094" opacity=".66" rx="64" ry="4.13374" transform="matrix(.99957693 -.0290853 .0290853 .99957693 -1.45325 5.309703)"/></g></svg>