<svg fill="none" height="165" viewBox="0 0 355 329" width="178" xmlns="http://www.w3.org/2000/svg" xmlns:xlink="http://www.w3.org/1999/xlink"><mask id="a" height="96" maskUnits="userSpaceOnUse" width="97" x="127" y="117"><circle cx="175.5" cy="165" fill="#d9d9d9" r="48"/></mask><mask id="b" fill="#fff"><path clip-rule="evenodd" d="m262.971 103.071c1.888-6.5007 5.392-12.4836 10.261-17.3529 7.502-7.5016 17.646-11.7622 28.255-11.8666.598.0076 1.183-.1799 1.665-.534.446-.2751.815-.6584 1.073-1.1142.258-.4559.397-.9697.404-1.4936-.004-.8322-.336-1.6293-.925-2.2178-.588-.5885-1.385-.9207-2.217-.9241l-75.09-.0004c-12.304.0679-24.097 4.9302-32.874 13.554-6.183 6.0762-10.526 13.6824-12.652 21.9486h-13.414c-92.2446-.001-166.957 61.328-166.957 61.328l3.04751 2.419c14.89239 11.311 82.63079 59.067 163.94149 59.068l13.976.004c2.294 7.412 6.398 14.212 12.028 19.744 8.777 8.624 20.57 13.487 32.874 13.555l75.058-.031c.414.004.824-.074 1.208-.23.383-.157.731-.388 1.023-.681.293-.292.524-.64.681-1.023.156-.384.234-.794.23-1.208.004-.518-.127-1.028-.38-1.48-.254-.452-.621-.829-1.065-1.096h.188c-.482-.354-1.066-.542-1.665-.534-10.608-.105-20.753-4.365-28.254-11.867-4.308-4.308-7.548-9.488-9.545-15.126 3.072-.262 5.936-1.658 8.034-3.918 1.284-1.383 2.224-3.028 2.768-4.803.58.041 1.162.083 1.745.125l.003.001h.003c5.881.424 11.92.859 18.522.778v-.825l.001.446c7.773-.181 15.372-2.332 22.087-6.252-1.743-1.041-3.56-1.954-5.435-2.733 5.115-.951 10.04-2.734 14.578-5.278-4.528-2.55-9.442-4.343-14.547-5.31 1.879-.772 3.696-1.686 5.435-2.734-6.726-3.921-14.336-6.071-22.119-6.251v-.345c-6.899 0-13.558.294-19.73.833v-4.022c9.68.856 20.135 1.365 31.041 1.365v-12.189 11.624c11.929-.276 23.592-3.573 33.9-9.582-2.69-1.597-5.493-2.993-8.388-4.179 7.836-1.491 15.379-4.239 22.338-8.137-6.959-3.899-14.502-6.646-22.338-8.138 2.894-1.185 5.698-2.582 8.388-4.178-10.308-6.01-21.972-9.307-33.9-9.583l-.001-.503c-10.906-.001-21.36.508-31.04 1.365v-4.152l.471.034 1.071.078.02.001.003.001h.001c5.805.423 11.785.86 18.289.726v-.256c7.75-.195 15.326-2.344 22.025-6.249-1.74-1.048-3.557-1.962-5.435-2.734 5.105-.967 10.019-2.76 14.546-5.31-4.538-2.544-9.463-4.327-14.578-5.278 1.875-.779 3.692-1.692 5.435-2.733-6.69-3.902-14.252-6.061-21.993-6.281v-.441c-7.181.03-14.045.318-20.401.893-.545-1.772-1.484-3.414-2.766-4.795-2.112-2.274-4.999-3.674-8.093-3.922z" fill="#fff" fill-rule="evenodd"/></mask><path d="m182.789 209.641 75.404.001c.832.003 1.629.335 2.218.924.588.588.921 1.385.924 2.218.105 10.608 4.365 20.752 11.867 28.254s17.646 11.763 28.255 11.867c.598-.007 1.182.18 1.665.534.444.267.811.645 1.065 1.097.253.451.384.962.38 1.48.004.413-.074.824-.231 1.207-.156.383-.387.731-.68 1.024-.292.292-.64.523-1.024.68-.383.156-.793.235-1.207.23l-75.058.031c-12.305-.068-24.097-4.93-32.874-13.554-8.776-8.624-13.845-20.33-14.129-32.631.009-.814.336-1.592.912-2.168.304-.373.687-.674 1.122-.88.434-.207.91-.314 1.391-.314z" fill="#42b5ff"/><path d="m184.737 209.641 73.645.001c.832.003 1.629.335 2.218.924.588.588.92 1.385.924 2.217.104 10.609 4.365 20.753 11.867 28.255s17.646 11.762 28.254 11.867c.599-.008 1.183.18 1.666.534h-71.886c-11.856-.116-23.237-4.683-31.884-12.795-8.648-8.112-13.932-19.178-14.804-31.003z" fill="#0786d6"/><path d="m306.232 186.424c11.929-.276 23.592-3.573 33.9-9.582-2.69-1.596-5.493-2.993-8.388-4.179 7.836-1.491 15.379-4.239 22.338-8.137-6.959-3.898-14.502-6.646-22.338-8.138 2.894-1.185 5.698-2.582 8.388-4.178-10.308-6.009-21.972-9.306-33.9-9.583z" fill="#ff8e68"/><path d="m306.263 183.817c5.675-1.609 11.122-3.931 16.212-6.912-2.69-1.597-5.494-2.993-8.389-4.179 7.836-1.491 15.38-4.239 22.339-8.137-6.959-3.898-14.503-6.646-22.339-8.138 2.895-1.185 5.699-2.582 8.389-4.178-5.09-2.981-10.537-5.304-16.212-6.912z" fill="#ffa887"/><path d="m273.619 185.481c10.117.943 21.114 1.508 32.613 1.508l-.001-44.865c-11.499 0-22.495.565-32.612 1.508z" fill="#1a98e7"/><path d="m273.62 174.109c10.116.44 21.113.691 32.612.691v-20.485c-11.499 0-22.496.252-32.612.691z" fill="#42b5ff"/><path d="m294.922 217.716c7.773-.181 15.372-2.332 22.087-6.252-1.744-1.041-3.56-1.954-5.436-2.733 5.116-.951 10.04-2.734 14.579-5.278-4.528-2.55-9.442-4.343-14.547-5.31 1.878-.772 3.695-1.686 5.435-2.733-6.735-3.927-14.356-6.078-22.15-6.253z" fill="#ff8e68"/><path d="m294.891 215.99c3.744-1.018 7.344-2.506 10.714-4.43-1.771-1.032-3.608-1.945-5.499-2.734 5.13-.95 10.067-2.744 14.61-5.309-4.557-2.505-9.475-4.285-14.578-5.279 1.878-.772 3.695-1.685 5.435-2.733-3.362-1.909-6.951-3.387-10.682-4.399z" fill="#ffa887"/><path d="m273.651 217.121c6.755.471 13.636 1.068 21.271.974l-.001-29.282c-7.477 0-14.672.346-21.27.974z" fill="#1a98e7"/><path d="m273.619 209.675c6.598.314 13.793.471 21.302.44l-.031-13.353c-7.478 0-14.673.157-21.271.471z" fill="#42b5ff"/><path d="m294.921 139.924c7.794-.175 15.415-2.326 22.15-6.252-1.74-1.048-3.557-1.962-5.435-2.734 5.105-.967 10.019-2.76 14.546-5.309-4.538-2.545-9.462-4.328-14.578-5.279 1.876-.779 3.692-1.692 5.436-2.733-6.727-3.923-14.335-6.085-22.119-6.284z" fill="#ff8e68"/><path d="m294.921 138.229c3.728-1.021 7.316-2.498 10.682-4.399-1.74-1.047-3.557-1.961-5.435-2.733 5.109-.973 10.03-2.754 14.578-5.278-4.536-2.562-9.46-4.366-14.578-5.341 1.878-.772 3.695-1.686 5.435-2.734-3.362-1.909-6.951-3.387-10.682-4.398z" fill="#ffa887"/><path d="m273.745 139.234c6.755.472 13.666 1.1 21.301.943v-29.282c-7.509.031-14.672.346-21.27.974z" fill="#1a98e7"/><path d="m273.619 131.882c6.598.314 13.793.471 21.271.472l.031-13.353c-7.509-.032-14.672.157-21.302.439z" fill="#42b5ff"/><path d="m167.457 103.07 96.329.001c3.094.248 5.982 1.648 8.093 3.922 2.112 2.275 3.294 5.259 3.312 8.363l.001 98.276c-.018 3.104-1.2 6.088-3.312 8.362-2.111 2.275-4.999 3.675-8.093 3.923l-96.298-.032c-81.3105-.001-149.0489-47.757-163.94131-59.068l-3.047506-2.419s74.712416-61.328 166.956816-61.328z" fill="#1a98e7"/><path d="m182.82 117.114 75.404.001c.413.004.824-.075 1.207-.231s.731-.387 1.024-.68c.292-.293.524-.641.68-1.024s.235-.793.231-1.207c.104-10.609 4.364-20.753 11.866-28.2547 7.502-7.5016 17.646-11.7621 28.255-11.8665.598.0075 1.183-.1799 1.665-.5341.446-.2751.815-.6583 1.073-1.1142s.397-.9697.403-1.4935c-.003-.8322-.335-1.6294-.924-2.2179-.588-.5884-1.385-.9206-2.217-.924l-75.09-.0005c-12.305.068-24.097 4.9303-32.874 13.5541-8.776 8.6238-13.844 20.3293-14.128 32.6303.014.816.327 1.599.88 2.2.301.381.689.686 1.132.888.442.202.927.296 1.413.274z" fill="#42b5ff"/><path d="m184.579 116.989 73.676-.031c.414.004.825-.074 1.208-.231.383-.156.731-.387 1.023-.68.293-.292.524-.64.681-1.023.156-.384.234-.794.23-1.208.105-10.608 4.365-20.7526 11.867-28.2542 7.501-7.5017 17.646-11.7622 28.254-11.8666.599.0076 1.183-.18 1.665-.5341l-71.885-.0006c-11.87.0979-23.268 4.6619-31.925 12.7835-8.657 8.1215-13.939 19.205-14.794 31.045z" fill="#1a98e7"/><path d="m167.456 103.071 96.329.001c3.094.248 5.981 1.648 8.093 3.922 2.112 2.275 3.294 5.259 3.312 8.362v14.578c-32.612 22.182-91.333 36.916-158.38 36.916l-113.10632-.001-3.047612-2.419s74.555432-61.36 166.799932-61.359z" fill="#42b5ff"/><g mask="url(#a)"><path d="m132.473 174.178c2.585 2.82 6.366 3.46 7.933 3.427 0 5.681 8.52 8.227 12.731 8.423 4.212.196 16.65 2.546 17.335 6.268.549 2.977-3.754 11.034-5.974 14.69l30.36 12.34 29.381-19.881c0-6.659-9.777-16.7-11.05-20.226s2.687-2.057 2.84-11.85c.153-9.794-13.238-26-14.903-27.763s-4.88-3.525-6.642-4.701c-1.763-1.175-1.384-7.377-5.681-9.257-6.268-2.742-11.458 5.093-13.417 5.484-1.959.392-4.718-2.201-7.069-1.515-1.88.548-1.697 3.754-1.371 5.288-.979-.163-4.074-.391-8.618 0-5.68.49-20.958 8.423-24.19 12.144-3.232 3.722-4.897 23.603-1.665 27.129z" fill="#95f5e8" stroke="#1e9a79" stroke-width="3"/><path clip-rule="evenodd" d="m191.892 131.255-2.909-2.353c-1.567-1.175-6.463-1.665-8.422 1.469-.442.707-.585 1.533-.736 2.405-.518 2.992-1.13 6.527-14.252 7.665-4.211 1.175-12.908 4.564-14.004 8.716-1.372 5.191-3.131 25.677-1.172 27.734 1.042 1.095 2.194 1.352 3.059 1.545.761.17 1.299.29 1.344.886.098 1.273 3.431 5.404 8.23 5.894.572.058 1.182.107 1.824.158 4.741.379 11.235.897 17.271 6.501 4.594 4.266 8.594 19.033 10.433 27.002l1.403.57 29.381-19.881c0-4.394-4.256-10.26-7.517-14.755-1.682-2.318-3.1-4.272-3.533-5.471-.545-1.509-.131-2.103.532-3.056.887-1.275 2.221-3.191 2.308-8.794.153-9.794-13.238-26-14.903-27.763-1.254-1.328-3.387-2.656-5.117-3.732-.567-.353-1.091-.679-1.526-.969-.67-.447-1.031-1.621-1.457-3.009-.076-.248-.154-.503-.237-.762z" fill="#00bf86" fill-rule="evenodd"/><ellipse cx="138.185" cy="149.46" fill="#1e9a79" rx="1.86223" ry="3.10371" transform="matrix(.83120868 .55596054 -.55596054 .83120868 106.418291 -51.597857)"/><ellipse fill="#1e9a79" rx="2.3919" ry="3.9865" transform="matrix(-.831209 .555961 .555961 .831209 151.508 151.347)"/><path d="m176.561 173.566-6.072 1.809c.729 1.407 2.478 4.101 3.643 3.618 1.166-.482 2.105-3.819 2.429-5.427z" fill="#fff"/><path d="m204.554 170.945c1.802-2.586 1.469-6.431 1.077-8.031 1.045 1.567 2.938 5.23 2.155 7.345-.784 2.116-5.55 4.799-7.835 5.876.783-.652 2.801-2.605 4.603-5.19z" fill="#1e9a79" opacity=".5"/><ellipse cx="185.963" cy="133.73" fill="#1e9a79" opacity=".5" rx="4.30919" ry="4.79887"/><ellipse cx="185.997" cy="134.464" fill="#fff" rx="3.55358" ry="4.34326"/><g fill="#1e9a79"><ellipse cx="187.577" cy="134.464" rx="1.97421" ry="2.36905"/><path d="m169.608 174.252c-5.68 1.469-14.984 2.644-29.674 2.253l.783 2.252 9.99.294c15.767 0 27.618-5.778 30.458-7.443 2.272-1.332 3.623-3.493 4.015-4.407-1.959 1.763-9.575 5.5-15.572 7.051z"/></g></g><path d="m230.104 164.104c-.053 10.796-3.301 21.335-9.332 30.29-6.032 8.955-14.579 15.924-24.564 20.031s-20.962 5.167-31.549 3.047c-10.587-2.119-20.309-7.324-27.944-14.958-7.634-7.635-12.839-17.358-14.959-27.944-2.119-10.587-1.059-21.564 3.048-31.549 4.106-9.985 11.076-18.532 20.031-24.564 8.954-6.032 19.494-9.279 30.29-9.333 7.23-.036 14.396 1.362 21.082 4.112 6.687 2.75 12.762 6.799 17.875 11.911 5.112 5.113 9.161 11.188 11.911 17.875 2.75 6.686 4.147 13.852 4.111 21.082zm-93.033-.001c.002 7.532 2.238 14.895 6.425 21.156 4.186 6.262 10.135 11.142 17.095 14.023 6.959 2.881 14.616 3.635 22.004 2.165 7.387-1.47 14.173-5.098 19.499-10.424s8.953-12.112 10.423-19.499.717-15.045-2.164-22.004c-2.881-6.96-7.761-12.908-14.023-17.095-6.262-4.186-13.624-6.422-21.156-6.425-10.101.014-19.785 4.033-26.927 11.176-7.143 7.142-11.162 16.826-11.176 26.927z" fill="#42b5ff"/><path d="m175.662 122.799c8.136-.004 16.09 2.406 22.856 6.924 6.766 4.517 12.041 10.94 15.156 18.456s3.931 15.786 2.345 23.766-5.504 15.309-11.257 21.062c-5.752 5.753-13.082 9.67-21.062 11.256-7.979 1.587-16.25.771-23.766-2.345-7.515-3.115-13.938-8.389-18.456-15.155s-6.927-14.72-6.924-22.856c-.006-5.4 1.053-10.749 3.117-15.739 2.063-4.99 5.091-9.524 8.91-13.343 3.818-3.818 8.352-6.846 13.343-8.91 4.99-2.063 10.338-3.122 15.738-3.116z" fill="#d5eaf0" opacity=".35"/><path d="m273.232 85.7181-2.121-2.1213zm-10.261 17.3529-2.881-.837-1.114 3.837h3.995zm38.516-29.2195.038-2.9997-.034-.0005-.034.0004zm1.665-.534-1.575-2.553-.103.0634-.098.0714zm1.477-2.6078 2.999.0378.001-.0251v-.025zm-3.142-3.1419.012-2.9999-.012-.0001zm-75.09-.0004v-3h-.009-.008zm-32.874 13.554-2.102-2.1398zm-12.652 21.9486v3h2.327l.579-2.253zm-13.414 0v3zm-166.957 61.328-1.90342-2.319-2.87244 2.358 2.91058 2.31zm3.04751 2.419-1.86528 2.349.02519.02.0256.02zm163.94149 59.068.001-3h-.001zm13.976.004 2.866-.887-.654-2.112-2.211-.001zm12.028 19.744-2.102 2.14zm32.874 13.555-.017 3h.009.009zm75.058-.031.031-3h-.016-.016zm1.208-.23-1.134-2.778zm1.023-.681 2.122 2.122zm.681-1.023 2.777 1.133zm.23-1.208-3-.023v.027.027zm-1.445-2.576-.001-3-10.824.003 9.281 5.569zm.188 0 .001 3 9.15-.003-7.375-5.415zm-1.665-.534-.029 3h.033.034zm-28.254-11.867 2.121-2.121zm-9.545-15.126-.254-2.989-3.87.329 1.297 3.661zm8.034-3.918-2.198-2.041h-.001zm2.768-4.803.213-2.992-2.382-.17-.699 2.283zm1.745.125-.216 2.993.013.001zm.006.001.216-2.992-.013-.001zm18.522.778.037 3 2.963-.037v-2.963zm0-.825 3-.003-6 .003zm.001.446-3 .004.003 3.067 3.067-.072zm22.087-6.252 1.512 2.591 4.389-2.561-4.363-2.606zm-5.435-2.733-.549-2.95-9.931 1.846 9.329 3.874zm14.578-5.278 1.467 2.616 4.657-2.611-4.652-2.62zm-14.547-5.31-1.14-2.775-9.351 3.841 9.933 1.881zm5.435-2.734 1.548 2.57 4.337-2.612-4.374-2.549zm-22.119-6.251h-3v2.931l2.931.068zm0-.345h3v-3h-3zm-19.73.833h-3v3.274l3.261-.285zm0-4.022.265-2.989-3.265-.289v3.278zm31.041 1.365v3h3v-3zm0-12.189h3-6zm0 11.624h-3v3.07l3.07-.071zm33.9-9.582 1.511 2.592 4.407-2.569-4.387-2.603zm-8.388-4.179-.561-2.947-9.934 1.89 9.358 3.833zm22.338-8.137 1.466 2.617 4.673-2.617-4.673-2.618zm-22.338-8.138-1.137-2.776-9.358 3.833 9.934 1.89zm8.388-4.178 1.531 2.58 4.387-2.603-4.407-2.569zm-33.9-9.583-3 .002.002 2.929 2.928.068zm-.001-.503 3-.003-.002-2.997h-2.998zm-31.04 1.365h-3v3.277l3.264-.289zm0-4.152.216-2.992-3.216-.233v3.225zm.471.034.218-2.992h-.002zm1.071.078.22-2.992h-.002zm.02.001-.22 2.992.009.001zm.003.001.249-2.99-.019-.002-.019-.001zm.001 0-.25 2.989.016.002.015.001zm18.289.726.062 2.999 2.938-.06v-2.939zm0-.256-.075-2.999-2.925.073v2.926zm22.025-6.249 1.511 2.591 4.374-2.549-4.337-2.612zm-5.435-2.734-.559-2.948-9.932 1.881 9.351 3.842zm14.546-5.31 1.472 2.615 4.653-2.62-4.657-2.611zm-14.578-5.278-1.15-2.771-9.33 3.875 9.932 1.846zm5.435-2.733 1.538 2.575 4.365-2.606-4.391-2.561zm-21.993-6.281h-3v2.917l2.915.082zm0-.441h3v-3.013l-3.013.013zm-20.401.893-2.868.881.714 2.326 2.424-.219zm-2.766-4.795 2.199-2.041zm-8.093-3.922.24-2.991-.12-.009h-.12zm7.325-19.4742c-5.23 5.2299-8.993 11.6558-11.021 18.6372l5.762 1.673c1.748-6.019 4.993-11.5588 9.502-16.0676zm30.346-12.7451c-11.394.1121-22.289 4.6881-30.346 12.7451l4.242 4.2426c6.947-6.9462 16.34-10.8914 26.163-10.988zm-.081.0476c.044-.0316.096-.0482.149-.0475l-.076 5.9995c1.25.0157 2.471-.3757 3.479-1.1157zm.238-.1743c-.009.0163-.022.0298-.037.0395l3.15 5.106c.876-.5406 1.601-1.2935 2.109-2.189zm.015-.053c0 .0186-.005.0369-.015.053l5.222 2.9565c.507-.8956.779-1.905.792-2.934zm-.046-.0588c.029.029.045.0681.046.1088l6-.0246c-.007-1.6237-.655-3.1789-1.803-4.3268zm-.109-.0454c.041.0002.08.0164.109.0454l4.243-4.2426c-1.148-1.148-2.703-1.7961-4.327-1.8027zm-75.077-.0004 75.09.0004v-6l-75.09-.0004zm-30.771 12.6938c8.219-8.0765 19.264-12.6302 30.787-12.6939l-.033-5.9999c-13.085.0723-25.626 5.2431-34.959 14.4142zm-11.849 20.5558c1.991-7.7418 6.058-14.8652 11.849-20.5558l-4.205-4.2796c-6.576 6.4618-11.195 14.5508-13.455 23.3414zm-16.32 2.253h13.414v-6h-13.414zm-166.957 58.328c1.90342 2.318 1.90302 2.319 1.90291 2.319.00034-.001.0005-.001.00118-.001.00136-.001.00385-.003.00747-.006.00724-.006.01901-.016.03527-.029.03252-.026.08301-.067.15127-.122.13651-.11.34404-.276.62086-.494.55365-.437 1.38435-1.083 2.47814-1.908 2.18773-1.65 5.427-4.017 9.6063-6.862 8.3605-5.692 20.4714-13.289 35.4411-20.886 29.9702-15.211 71.2305-30.339 116.7125-30.339v-6c-46.763 0-88.9809 15.535-119.428 30.988-15.2389 7.735-27.5714 15.47-36.1021 21.277-4.26634 2.905-7.58463 5.329-9.84307 7.032-1.129291.852-1.9938299 1.524-2.579639 1.986-.292913.231-.516161.409-.668011.531-.07592.062-.134.109-.174.141-.02001.016-.03549.029-.04643.038-.00548.004-.00981.008-.01301.011-.0016.001-.00314.002-.00394.003-.00125.001-.00222.002 1.9012 2.321zm4.91279.069-3.04751-2.419-3.73056 4.699 3.04751 2.419zm162.07621 58.418c-80.2756-.001-147.3393-47.226-162.127-58.457l-3.62898 4.778c14.99708 11.39 83.41018 59.678 165.75598 59.679zm13.977.004-13.976-.004-.002 6 13.976.004zm14.13 20.605c-5.273-5.181-9.116-11.55-11.265-18.492l-5.732 1.774c2.44 7.882 6.804 15.114 12.792 20.997zm30.787 12.694c-11.523-.064-22.568-4.618-30.787-12.694l-4.205 4.279c9.333 9.171 21.874 14.342 34.959 14.415zm75.041-.031-75.059.031.003 6 75.059-.031zm.075-.008c-.014.006-.028.008-.043.008l-.061 6c.812.008 1.619-.146 2.372-.453zm.036-.024c-.01.01-.023.019-.036.024l2.267 5.555c.753-.307 1.437-.762 2.012-1.336zm.024-.036c-.005.013-.014.026-.024.036l4.243 4.243c.574-.575 1.029-1.259 1.336-2.012zm.008-.043c0 .015-.002.029-.008.043l5.555 2.267c.307-.752.461-1.558.453-2.371zm.003-.043c-.002-.004-.003-.008-.003-.011l6 .047c.008-1.04-.255-2.064-.764-2.972zm.008.008c-.003-.001-.006-.004-.008-.008l5.233-2.936c-.509-.907-1.246-1.665-2.138-2.2zm1.731-5.572h-.188l.002 6h.188zm-1.626 5.466c-.053 0-.105-.017-.148-.048l3.551-4.836c-1.007-.74-2.228-1.132-3.479-1.116zm-30.414-12.746c8.057 8.057 18.953 12.633 30.347 12.746l.059-6c-9.823-.097-19.217-4.042-26.163-10.988zm-10.25-16.246c2.144 6.056 5.623 11.619 10.25 16.246l4.243-4.242c-3.989-3.99-6.988-8.785-8.838-14.007zm8.662-6.96c-1.59 1.713-3.761 2.772-6.089 2.97l.509 5.978c3.814-.325 7.372-2.059 9.978-4.866zm2.099-3.641c-.413 1.346-1.125 2.593-2.098 3.641l4.397 4.082c1.594-1.717 2.762-3.761 3.437-5.965zm4.828-1.988c-.582-.042-1.165-.084-1.747-.125l-.426 5.985c.579.041 1.159.083 1.742.125zm-.01 0-.003-.001-.405 5.987h.004zm.004 0h-.004l-.404 5.986h.003zm18.282.771c-6.458.08-12.376-.345-18.269-.77l-.431 5.984c5.869.423 12.028.869 18.774.786zm-2.963 2.175v.825h6v-.825zm6.001.443-.001-.446-6 .007.001.446zm17.575-8.84c-6.276 3.664-13.38 5.674-20.645 5.844l.14 5.998c8.28-.193 16.376-2.485 23.529-6.66zm-5.074 2.628c1.742.724 3.429 1.572 5.048 2.539l3.076-5.152c-1.868-1.115-3.814-2.094-5.823-2.928zm14.262-10.665c-4.253 2.384-8.867 4.055-13.66 4.945l1.097 5.899c5.437-1.01 10.673-2.906 15.497-5.611zm-13.638.254c4.785.907 9.389 2.587 13.633 4.977l2.944-5.229c-4.813-2.709-10.035-4.615-15.461-5.643zm4.446-8.251c-1.61.97-3.29 1.815-5.028 2.529l2.28 5.55c2.02-.83 3.973-1.812 5.843-2.939zm-20.641-.682c7.276.168 14.39 2.179 20.678 5.844l3.021-5.183c-7.164-4.177-15.27-6.468-23.56-6.66zm-2.931-3.344v.345h6v-.345zm-16.469 3.822c6.081-.531 12.653-.822 19.469-.822v-6c-6.983 0-13.729.298-19.991.845zm-3.261-7.011v4.022h6v-4.023zm34.041-1.635c-10.814 0-21.18-.505-30.776-1.354l-.529 5.977c9.764.864 20.306 1.377 31.305 1.377zm-3-9.189v12.189h6v-12.189zm6 11.624v-11.624h-6v11.624zm29.39-12.174c-9.87 5.754-21.038 8.91-32.459 9.175l.139 5.998c12.435-.288 24.595-3.725 35.341-9.989zm-8.015 1.189c2.758 1.13 5.431 2.461 7.994 3.983l3.062-5.16c-2.816-1.672-5.751-3.134-8.782-4.375zm22.009-13.531c-6.677 3.741-13.915 6.377-21.433 7.808l1.122 5.894c8.153-1.551 16.002-4.411 23.243-8.467zm-21.433-2.573c7.518 1.431 14.756 4.068 21.433 7.808l2.932-5.235c-7.241-4.056-15.09-6.915-23.244-8.467zm7.418-9.705c-2.563 1.521-5.236 2.852-7.994 3.982l2.274 5.552c3.03-1.241 5.966-2.703 8.782-4.374zm-32.439-4.004c11.422.265 22.589 3.422 32.459 9.175l3.022-5.183c-10.746-6.265-22.906-9.702-35.342-9.99zm-2.931-3.5.001.503 6-.005-.001-.503zm-27.776 4.351c9.597-.849 19.962-1.354 30.776-1.353v-6c-10.998-.001-21.54.512-31.305 1.376zm-3.264-7.14v4.152h6v-4.152zm3.687-2.958-.471-.034-.433 5.984.472.034zm1.073.078-1.071-.078-.436 5.984 1.072.078zm.021.001-.019-.001-.439 5.984.019.001zm-.005 0h-.003l-.422 5.985h.003zm.038.003-.498 5.979zm.001 0h-.001l-.498 5.979zm17.978.716c-6.344.131-12.19-.294-18.009-.718l-.437 5.984c5.792.422 11.905.87 18.57.733zm-2.938 2.744v.256h6v-.256zm23.514-8.841c-6.262 3.65-13.344 5.659-20.589 5.842l.151 5.998c8.255-.208 16.324-2.497 23.46-6.657zm-5.064 2.633c1.737.714 3.418 1.559 5.027 2.528l3.096-5.139c-1.87-1.127-3.824-2.109-5.843-2.939zm14.214-10.699c-4.243 2.39-8.848 4.07-13.633 4.976l1.117 5.896c5.426-1.028 10.648-2.934 15.46-5.643zm-13.654.286c4.793.89 9.407 2.561 13.659 4.945l2.935-5.233c-4.825-2.705-10.06-4.601-15.498-5.611zm4.445-8.259c-1.619.967-3.306 1.815-5.047 2.538l2.301 5.542c2.009-.835 3.955-1.813 5.822-2.929zm-20.54-.706c7.239.205 14.311 2.224 20.567 5.873l3.023-5.183c-7.125-4.155-15.177-6.454-23.42-6.688zm-2.915-3.44v.441h6v-.441zm-17.131 3.881c6.256-.566 13.033-.851 20.143-.881l-.025-6c-7.25.03-14.202.322-20.659.905zm-5.234-5.741c.971 1.046 1.683 2.291 2.096 3.634l5.735-1.762c-.676-2.2-1.842-4.24-3.434-5.955zm-6.135-2.974c2.345.188 4.534 1.249 6.135 2.974l4.397-4.083c-2.623-2.825-6.21-4.563-10.052-4.872zm-.575.01h.815v-6h-.815z" fill="#087cc5" mask="url(#b)"/></svg>